<svg xmlns="http://www.w3.org/2000/svg" width="54" height="32" viewBox="0 0 54 32">
    <g fill="none" fill-rule="evenodd">
        <path fill="#000" fill-rule="nonzero" d="M4.832 31.801c-2.556 0-4.634-2.1-4.634-4.702 0-2.59 2.078-4.702 4.634-4.702 1.688 0 3.167.908 3.986 2.284l-1.638.97c-.465-.774-1.37-1.34-2.348-1.34-1.467 0-2.751 1.302-2.751 2.788 0 1.498 1.284 2.787 2.751 2.787.978 0 1.895-.552 2.348-1.363l1.65.982c-.819 1.376-2.299 2.296-3.998 2.296zm6.737-.22H9.59v-8.939h1.98v8.938zm5.368.004h-1.98v-7.052h-2.813v-1.89h7.605v1.89h-2.812v7.052zm5.283-4.842h2.14c.746 0 1.394-.307 1.394-1.179 0-.871-.6-1.215-1.394-1.215h-2.14v2.394zm0 1.633v3.204H20.3v-8.938h4.34c1.908 0 3.045 1.069 3.045 2.898 0 1.461-.733 2.382-1.944 2.701l2.335 3.34h-2.25l-2.066-3.205h-1.54zm10.76 3.475c-2.592 0-4.695-2.136-4.695-4.715 0-2.59 2.103-4.715 4.695-4.715 2.605 0 4.757 2.112 4.757 4.715 0 2.579-2.152 4.715-4.757 4.715zm0-7.453c-1.516 0-2.726 1.24-2.726 2.763 0 1.498 1.235 2.713 2.726 2.713a2.721 2.721 0 0 0 2.727-2.713c0-1.523-1.199-2.763-2.727-2.763zm8.23-2.762c0 .43-.392.773-.82.773-.44 0-.758-.344-.758-.773a.785.785 0 0 1 .783-.786.8.8 0 0 1 .794.786zm2.848 0c0 .43-.378.773-.818.773-.429 0-.746-.344-.746-.773a.78.78 0 0 1 .77-.786.8.8 0 0 1 .794.786zm-3.655 2.787v1.682h4.243v1.633h-4.243v1.99h4.805v1.853h-6.713v-8.938h6.713v1.78h-4.805zm7.446 1.277v5.88h-1.932v-8.938h2.335l3.534 6.041v-6.04h1.944v8.937h-2.384l-3.497-5.88z"/>
        <path fill="#CC2132" d="M35.885 18.15V.227h-17.85V18.15h17.85z"/>
        <path fill="#FFF" d="M18.63 17.554l8.33-7.171 8.331 7.17L26.96 6.536z"/>
        <path fill="#FFF" d="M26.96.824l-8.33 11.018 8.33-7.17 8.332 7.17z"/>
    </g>
</svg>
