<svg xmlns="http://www.w3.org/2000/svg" width="30" height="32" viewBox="0 0 30 32">
    <g fill="none" fill-rule="nonzero">
        <path fill="#E1E3E2" d="M2.756 4.148c.872 1.076 2.402 1.902 2.467 1.937a.134.134 0 0 0 .186-.064c.017-.037 1.756-3.707 9.467-3.707 7.713 0 9.498 3.689 9.515 3.726a.136.136 0 0 0 .186.064c.079-.043 1.95-1.042 2.608-2 .003-.004.004-.008.005-.012a.13.13 0 0 0 .016-.048l.002-.012a.15.15 0 0 0-.006-.048v-.003l-.005-.007c-.003-.008-.006-.016-.011-.024-.103-.155-2.646-3.792-12.31-3.792-9.668 0-12.034 3.676-12.13 3.833 0 0-.057.075.01.157z"/>
        <path fill="#000" d="M14.876 2.042c-7.166 0-9.264 3.05-9.646 3.736-.316-.181-1.202-.715-1.892-1.393l.842.312c.054.02.115.003.151-.043C7.31.91 14.795 1.223 14.871 1.226h.012c.075-.003 7.562-.314 10.538 3.428a.134.134 0 0 0 .15.044l1.078-.379c-.648.654-1.724 1.28-2.079 1.478-.386-.683-2.518-3.755-9.694-3.755z"/>
        <path fill="#E1E3E2" d="M2.427 4.31s.08-.134.208-.015c.016.015 1.594 1.66 4.411 2.867l.716.303c2.675 1.123 5.697 2.392 7.186 5.78.688-1.565 1.703-2.678 2.86-3.534l.003-.002c1.347-.994 2.886-1.64 4.324-2.244l.715-.303c2.085-.893 3.493-2.027 4.09-2.562a.132.132 0 0 1 .045-.041c.179-.163.273-.26.277-.264a.133.133 0 0 1 .119-.04.133.133 0 0 1 .132.056c.868 1.25 2.324 3.982 2.324 8.231 0 3.635-1.725 8.064-5.58 9.764-3.935 1.737-8.335 1.557-9.287 1.557-.953 0-5.352.18-9.288-1.557-3.855-1.7-5.58-6.129-5.58-9.764 0-4.248 1.457-6.981 2.325-8.231zm12.646 13.065c-.148.302-.25 0-.25 0-.012-.029-1.173-2.95-3.412-4.466-1.458-.988-3.041-1.436-4.438-1.83-1.192-.337-2.233-.632-3.004-1.187-.142 1.147-.614 6.355 2.094 9.04 2.646 2.622 7.14 2.823 8.907 2.788.043-.001-.023 0 0 0 0 0-.001 0 0 0 0 0-.001 0 0 0 .022 0-.044-.001 0 0 1.766.035 6.26-.166 8.906-2.788 2.732-2.707 2.229-7.983 2.091-9.068-.775.574-1.832.873-3.044 1.215-1.397.395-2.98.842-4.437 1.83-2.238 1.515-3.401 4.437-3.413 4.466z"/>
        <path fill="#000" d="M14.823 13.644l.001.001a.141.141 0 0 0 .021.033l.008.011.01.008a.13.13 0 0 0 .034.022c.007.003.013.002.019.004.01.002.02.005.032.005.011 0 .022-.003.032-.005.006-.002.012-.001.018-.004H15a.129.129 0 0 0 .033-.022c.003-.003.008-.005.01-.008.004-.003.006-.008.008-.01a.13.13 0 0 0 .022-.034v-.001a8.202 8.202 0 0 1 1.628-2.583c-.207.705-.21 1.202-.21 1.228a.135.135 0 1 0 .255.06c.042-.083.238-.28.365-.393a.137.137 0 0 0 .044-.09c.063-.756.71-1.767.822-1.938A13.07 13.07 0 0 1 19.75 8.84c-.753.604-1.696 1.475-2.235 2.4a.137.137 0 0 0 .036.177c.054.04.13.036.178-.013.011-.012 1.202-1.217 4.108-2.029.672-.188 2.391-.801 4.455-2.015a.136.136 0 0 0 .062-.08l.81-2.519.05-.045c-.046.897-.22 1.766-.43 2.516-.261.171-2.043 1.32-3.568 1.884-.317.117-.678.229-1.06.347-2.247.694-5.305 1.64-7.208 5.726-1.902-4.086-4.96-5.032-7.206-5.726-.383-.119-.744-.23-1.06-.347-1.525-.564-3.307-1.714-3.57-1.885-.336-.76-.457-1.603-.511-2.322.728 2.921 3.87 3.955 5.322 4.428 2.19.712 3.449 1.43 3.461 1.438.051.03.115.023.158-.017a.136.136 0 0 0 .031-.158c-.317-.693-.908-1.31-1.444-1.77 1.918.989 3.716 2.355 4.695 4.813z"/>
        <path fill="#000" d="M14.825 15.569c.002.006.007.01.011.016.005.009.01.017.017.024.007.008.016.012.025.018l.016.011h.003c.01.005.02.006.03.007.007.002.014.004.021.004.007 0 .014-.002.022-.004.01-.001.02-.002.03-.006h.003c.006-.003.01-.009.016-.012.008-.006.017-.01.024-.018.007-.007.012-.015.017-.024.003-.006.009-.01.011-.016 1.842-4.202 4.917-5.152 7.163-5.845.386-.12.751-.232 1.075-.351 1.285-.475 2.744-1.356 3.359-1.744a14.094 14.094 0 0 1-.745 1.926c-.742.604-1.823.91-3.073 1.263-1.416.4-3.021.854-4.515 1.866-1.91 1.293-3.03 3.503-3.387 4.299-.358-.796-1.478-3.006-3.387-4.3-1.494-1.012-3.099-1.465-4.515-1.865-1.25-.353-2.331-.66-3.072-1.263-.07-.142-.424-.884-.746-1.926.615.388 2.075 1.269 3.36 1.744.323.12.688.232 1.074.351 2.246.693 5.32 1.643 7.163 5.845zM2.838 7.252c.347 1.27.791 2.212.889 2.413-.087.57-.789 5.704 1.597 8.832-.54-.217-1.56-.762-2.397-1.991-.019-.033-2.296-4.087-.089-9.254zm23.368 2.369l-.007-.018c.11-.231.385-.84.654-1.667 1.375 4.133.1 7.712.086 7.748l-.004.014c-.507 1.57-1.6 2.312-2.177 2.605 2.296-3.257 1.487-8.444 1.448-8.682z"/>
        <path fill="#000" d="M29.568 12.542c0 3.547-1.7 7.811-5.418 9.515-3.356 1.538-8.457 1.572-9.18 1.572-.723 0-5.389.074-9.18-1.572C2.22 20.507.542 16.505.385 13.068c.808 2.433 2.012 3.475 2.236 3.653.95 2.847 3.387 4.83 7.05 5.735 1.515.375 3.65.49 4.854.52-.107.004.076.01.445.007.369.003.552-.003.445-.008 1.204-.03 3.338-.144 4.854-.519 3.68-.91 6.123-2.907 7.064-5.776.016-.047 1.562-4.83-.213-9.55-.005-.012-.013-.022-.02-.032.186-.713.337-1.518.381-2.349.857 1.33 2.087 3.915 2.087 7.793z"/>
        <path fill="#397FC2" d="M8.675 28.77v3.197h-1.38V29.17s-.055-.405-.461-.405h-.719v3.202H4.774v-3.202H3.562v3.202H2.205v-4.432H7.24c1.407 0 1.435 1.235 1.435 1.235m4.984-1.235h3.278l-1.5 1.23h-1.778v-1.23m-3.662 1.667h2V29s0-.29-.48-.29H8.969v-1.174h2.97c1.548 0 1.4 1.443 1.4 1.443v1.996l4.174-3.438h3.673c1.668 0 1.878 1.014 1.878 2.24 0 .877-.114 2.191-1.782 2.191h-3.04l-.002-3.445-4.198 3.445H9.997c-.2 0-1.32.072-1.32-1.428 0-1.426 1.12-1.337 1.32-1.337m9.638 1.536h1.168c.746 0 .904-.256.904-.953 0-.698-.158-1.02-.904-1.02h-1.168v1.973m-9.227.12h1.566l.001-.65h-1.566c-.129 0-.38 0-.38.317 0 .321.25.333.379.333m7.438-.12v1.23h-3.232l1.469-1.23h1.763m6.507-1.536h2.002V29s0-.29-.482-.29h-2.548v-1.174h2.97c1.547 0 1.4 1.443 1.4 1.443v2.988h-3.342c-.2 0-1.32.073-1.32-1.427 0-1.426 1.12-1.337 1.32-1.337m.411 1.656h1.566l.001-.65h-1.566c-.128 0-.38 0-.38.317 0 .321.25.333.38.333"/>
    </g>
</svg>
