<svg xmlns="http://www.w3.org/2000/svg" width="47" height="24" viewBox="0 0 47 24">
    <g fill="#32377D" fill-rule="evenodd">
        <path fill-rule="nonzero" d="M15.485 11.835l3.348-4.9c.128-.192-.026-.41-.295-.41l-2.585-.02c-.192 0-.577.244-.744.455l-1.167 1.52-1.622 2.123.012-3.668c0-.25-.263-.41-.423-.41H9.046c-.205 0-.391.076-.398.454-.006.372.456.45.456.552v9.806c0 .186.256.468.436.468l2.54-.013c.18-.006.333-.263.333-.436l.006-4.085 1.623 2.007 1.719 2.117c.14.166.416.397.705.397l2.758-.019c.263 0 .237-.32.173-.404a879.503 879.503 0 0 1-3.912-5.534zm9.517-5.31h-2.93c-.347 0-.424.205-.482.423.064.397.481.506.481.513v9.896c0 .262.16.436.385.436l1.052-.007 1.565-.013c.288 0 .365-.172.365-.416V6.934c0-.25-.211-.41-.436-.41z"/>
        <path fill-rule="nonzero" d="M33.923 1.471C30.806.682 27.298.24 23.59.24c-.026 0-.051.006-.083.006-3.36 0-6.567.372-9.466 1.032C5.903 3.139.209 7.295.209 12.098c0 4.803 5.695 8.959 13.833 10.819 2.899.66 6.105 1.032 9.466 1.032h.083c3.707 0 7.215-.436 10.331-1.225 7.729-1.936 13.058-5.977 13.058-10.626 0-4.65-5.329-8.69-13.057-10.627zm0 18.669c-3.072.712-6.593 1.116-10.332 1.116-.026 0-.051-.006-.083-.006-3.386 0-6.6-.34-9.466-.937-7.176-1.494-12.127-4.617-12.127-8.215s4.95-6.721 12.127-8.215c2.867-.597 6.08-.937 9.466-.943h.083c3.739 0 7.26.404 10.332 1.116 6.753 1.552 11.351 4.579 11.351 8.042s-4.598 6.49-11.351 8.042z"/>
        <path d="M35.943 6.948c-.096-.218-.263-.423-.481-.423h-3.964c-.14 0-.333.115-.333.307-.006.565.584.546.552.629l-3.341 9.857c-.058.167.09.474.294.474l2.328-.019a.674.674 0 0 0 .578-.423l1.103-3.309c.372-1.103.744-2.206 1.11-3.31.019-.044.076-.07.134-.07.09 0 .186.032.205.097l2.161 6.63c.045.148.347.385.507.385l2.424.02c.141 0 .308-.282.263-.41l-3.54-10.435z"/>
    </g>
</svg>
