<svg xmlns="http://www.w3.org/2000/svg" width="60" height="24" viewBox="0 0 60 24">
    <path fill="#265CAD" fill-rule="evenodd" d="M0 12C0 5.373 13.431 0 30 0c16.569 0 30 5.373 30 12S46.569 24 30 24C13.431 24 0 18.628 0 12zm36.691 1.05a.1.1 0 0 0-.081-.077 41.658 41.658 0 0 0-2.6-.297c-.052-.01-.088-.057-.054-.17 2.773-2.917 3.826-6.629 2.424-9.533a.101.101 0 0 1 .113-.09C46.034 4.042 53 7.686 53 12c0 5.247-10.297 9.5-23 9.5-12.702 0-23-4.253-23-9.5 0-4.548 7.74-8.35 18.076-9.282.05.002.093.04.095.12l-2.244 12.358A1.5 1.5 0 0 0 24.4 16.98l.08.004c2.002-.104 4.153-.728 6.185-1.902.576-.332 1.13-.7 1.66-1.103a.1.1 0 0 1 .11-.01c.676.45 1.065.978 1.065 1.542 0 .766-.718 1.466-1.9 1.996-1.374.616-3.374 1.004-5.6 1.004-1.886 0-3.61-.279-4.947-.743a.1.1 0 0 0-.116.081l-.19 1.048a.1.1 0 0 0 .077.11c2.72.634 5.849.994 9.178.994 4.142 0 7.5-1.344 7.5-3 0-.645-.507-1.241-1.37-1.73-.757-.37-1.234-.852-1.117-1.174.122-.335.845-.388 1.705-.157.049.007.096-.023.114-.11l-.143-.78zM30 5.488c0 .065-.002.13-.006.193.11 2.202-1.252 5.148-3.74 7.636-.494.494-1.02.956-1.575 1.382a.098.098 0 0 1-.073.013c-.052-.011-.086-.06-.077-.121l2.438-13.422a.1.1 0 0 0-.095-.095C13.434 1.705 3 6.356 3 12c0 6.075 12.088 11 27 11s27-4.925 27-11S44.913 1 30 1c-.472 0-.942.005-1.414.015a.1.1 0 0 0-.097.076l-.285 1.567a.1.1 0 0 0 .048.102A3 3 0 0 1 30 5.487z"/>
</svg>
