<svg xmlns="http://www.w3.org/2000/svg" width="42" height="32" viewBox="0 0 42 32">
    <path fill="#000" fill-rule="nonzero" d="M0 12.127l5.519-.05C7.258 5.138 13.5 0 20.937 0c8.782 0 15.9 7.164 15.9 16 0 .137 0 .274-.005.411l5.168.243v2.697l-5.523.05C34.927 26.604 28.558 32 20.937 32c-8.782 0-15.899-7.164-15.899-16 0-.302.008-.602.024-.9L0 14.964v-2.838zm7.265-.065l22.658-.204-5.3 3.982 10.53.492c.002-.11.003-.221.003-.333 0-7.903-6.366-14.309-14.219-14.309-6.495.001-11.974 4.384-13.672 10.372zm27.482 7.354l-22.603.203 5.636-4.183-11.036-.292c-.017.285-.025.57-.025.856 0 7.901 6.366 14.308 14.219 14.308 6.681-.001 12.287-4.64 13.81-10.892z"/>
</svg>
