<svg xmlns="http://www.w3.org/2000/svg" width="26" height="32" viewBox="0 0 26 32">
    <g fill="none" fill-rule="evenodd">
        <path fill="#FF0016" d="M9.368 6.736c.24-.8.85-.392.85-.392s1.58 1.226 5.914 4.036c4.333 2.81 9.735-1.09 9.735-1.09L13.037 0C7.407 6.079.204 8.258.204 8.258l.02.008 16.402 11.72c-.24.8-.85.392-.85.392s-1.58-1.226-5.914-4.036c-4.333-2.81-9.736 1.09-9.736 1.09l12.832 9.29c5.627-6.079 12.83-8.258 12.83-8.258l-.02-.008L9.368 6.736z"/>
        <path fill="#015CD0" fill-rule="nonzero" d="M0 30.41l1.974.011c.034.19-.02.189.084.287.163.155.415.19.627.152.173-.031.442-.085.455-.305.014-.238-.148-.32-.35-.348-.281-.037-.564-.047-.844-.093-.721-.12-1.104-.174-1.411-.374-.31-.2-.336-.634-.336-.943 0-.203.079-.395.237-.576.158-.18.397-.323.715-.427.318-.103.753-.154 1.307-.154.68 0 1.198.093 1.555.28.357.188.569.607.636 1.015H2.971c.013-.024-.033-.133-.04-.16-.064-.238-.29-.307-.504-.356-.177-.04-.378-.043-.537.056-.097.06-.172.125-.172.211 0 .063.04.12.12.17.077.052.261.1.551.145.719.116 1.233.232 1.544.35.31.118.537.264.679.438.14.175.212.37.212.585 0 .254-.095.488-.283.701-.189.214-.452.377-.79.487-.34.11-.766.166-1.281.166-.904 0-1.53-.13-1.879-.388-.348-.259-.545-.53-.591-.93zm8.01-2.696h1.458v2.795c0 .573-.35.98-1.05 1.22-.323.11-.71.113-1.15.113-.394 0-.747.008-1.074-.08-.77-.313-1.155-.73-1.155-1.253v-2.795h1.47v2.394c0 .435.056.76.76.76.716 0 .73-.339.73-.775l.01-2.38zm9.538 0h1.459v2.795c0 .573-.35.98-1.05 1.22-.323.11-.71.113-1.15.113-.394 0-.747.008-1.074-.08-.77-.313-1.155-.73-1.155-1.253v-2.795h1.47v2.394c0 .435.056.76.759.76.717 0 .732-.339.732-.775l.009-2.38zm-7.78.029h4.52v.859l-2.208 2.022h2.207v1.125H9.768v-.967l2.157-1.993H9.772l-.004-1.046zm9.6 3.999v-4.006h1.449v1.483l1.562-1.483h1.812l-2.08 1.941 2.167 2.065h-1.956l-1.491-1.434.014 1.434h-1.477zm6.562-4.007v4.007h-1.445v-4.006h1.445z"/>
    </g>
</svg>
