<svg xmlns="http://www.w3.org/2000/svg" width="32" height="32" viewBox="0 0 32 32">
    <g fill="#234B8D" fill-rule="evenodd">
        <path fill-rule="nonzero" d="M24.165 19.529H7.827c-1.005-3.938-1.522-5.6-3.714-8.95l2.43-3.296H25.45l2.43 3.295c-2.333 3.575-2.654 4.971-3.715 8.95zM15.325 9c.015.028-.069.112-.083.14-.237-.07-.544-.14-.796-.014-.237.112-.754.126-1.145.21l-.07.07c-.07.125-.125.265-.111.404 0 0 .6.056.684.098.084.056.293.154.349.321a.91.91 0 0 1-.223.307c-.573.433-1.439 1.215-1.62 1.494-.196.28-.433.629-.517.95-.084.335.014.503.07.712-.517.098-1.173.154-1.62.182l-.112.042c0 .21-.041.447 0 .628.475.363 1.09.628 1.495.908-.824.893-1.439 1.913-2.416 2.653-.35.21-.838.656-.978.796-.125.125-.111.237-.111.237.153.042.39.014.544.028.252-.014.489-.237.6-.489.168-.111.294-.335.49-.377.362-.181.488-.6.725-.88.252-.237.405-.53.685-.711.39-.238.558-.699.935-.992l.629.433c.32.126.67-.014 1.019 0l.154-.098c-.014-.195-.196-.349-.35-.447-.209-.153-.349.112-.558.084-.182-.07-.419-.042-.545-.223.335-.196.559-.475.922-.615l.545.112c1.075-.195 2.345-.377 3.393-.237.265.07.46.349.6.572.405.628-.447.894-.67 1.355-.684.74-1.745 1.27-2.123 2.262-.014.125-.055.265 0 .39.238-.013.433-.125.643-.209.265-.098.14-.251.153-.405-.014-.251.154-.447.294-.614.237.098.335-.168.419-.307.502-.796 1.857-1.425 2.024-1.564.168-.14.251-.154.28-.293.027-.14-.224-.503-.168-.866.614.181 1.229.363 1.787.698.517.28.81.796 1.118 1.27.516.783.963 1.872 1.717 2.235.167.112.39.112.474.056-.055-.28-.209-.517-.223-.824-.084.042-.181.07-.265.042-.238-.014-.391-.28-.433-.447-.028-.154.014-.363.014-.363-.335-.112-.656-.46-.852-.74-.181-.265-.53-.977-.503-1.592-.852-.153-1.41-1.48-1.48-1.83-.056-.348.028-.53.084-.781-.335-.307-.74-.545-1.215-.614-.46-.07-2.22-.028-3.295.111-.238.028-.559.084-.74-.111-.098-.084-.14-.336-.084-.503.056-.168.377-.489.517-.698.153-.21.39-.67.572-.992.154.056.39.112.6.07.21-.042.475-.126.447-.28-.014-.139-.586-.265-.893-.18a.32.32 0 0 1-.335-.28c.013-.084.097-.126.153-.154.74.154 1.69.224 2.374.084.754-.14 1.647-.419 2.108-1.173-.265-.042-.628-.098-.782-.098-.25.461-.88.88-1.48.936-.279.028-.405-.14-.558-.28-.391.35-1.257.364-1.69.266-.433-.112-1.41-.642-1.83-1.033-.055.21-.11.53-.11.614.349.237 1.368.544 1.368.544z"/>
        <path d="M12.156 14.642c.112.181-.181.293-.237.433-.321-.168-.684-.322-.922-.643.419 0 .81.042 1.16.21z"/>
        <path fill-rule="nonzero" d="M27.111 4.015h-1.927V.035l-1.69.783-1.69-.782V1.04h-.362V.036l-1.69.782-1.69-.782V1.04h-.39V.05l-1.69.782L14.306.05v.991h-.363V.036l-1.69.782-1.675-.782V1.04h-.405V.036l-1.69.782-1.69-.782v3.98H4.868L.049 10.592c3.868 4.874 4.93 9.552 5.293 15.92l10.654 5.403 10.626-5.404c.378-8.085 2.388-12.274 5.293-15.919L27.11 4.015zM23.495 2.06l1.229-.572v4.161H22.28V1.488l1.215.572zm-3.743-.014l1.23-.558v4.161h-2.444V1.488l1.214.558zm-3.77.014l1.229-.558v4.161h-2.444V1.502l1.215.558zm-3.728 0l1.229-.572v4.161h-2.444V1.488l1.215.572zm13.81 24.102l-10.068 5.082-10.068-5.082C5.565 19.85 4.616 15.452.804 10.564l4.37-5.948h1.62v1.508l3.38-.014V2.2h.404v3.924h3.365V2.2h.364v3.938h3.365V2.2h.39v3.924h3.38V2.2h.363v3.924h3.38V4.616h1.619l4.385 5.962c-2.877 3.645-4.734 7.596-5.125 15.584zM8.484 2.06l1.228-.572v4.161H7.255V1.488l1.229.572z"/>
        <path fill-rule="nonzero" d="M7.911 20.13c.265.963.545 4.384.545 4.384l7.554 3.798 7.54-3.812s.196-2.779.53-4.37H7.912zm14.327 3.965h-5.99l-.112-.335h-1.103l-.098.335h-.74l.558-2.262H12.66v2.262H10.13v-3.198h7.47l.894 2.472h1.397l.014-.782h-.391l.265-.754h-1.396v-.922h3.756v.182l-.377 1.103h.475v1.899z"/>
        <path d="M15.912 23.02l-.405-1.23-.307 1.23z"/>
    </g>
</svg>
