<svg xmlns="http://www.w3.org/2000/svg" width="39" height="32" viewBox="0 0 39 32">
    <defs>
        <linearGradient id="a" x1="50%" x2="50%" y1="92.559%" y2="16.46%">
            <stop offset="0%" stop-color="#F0F3F5"/>
            <stop offset="5.6%" stop-color="#E2E5E8"/>
            <stop offset="13.8%" stop-color="#D4D8DD"/>
            <stop offset="24.2%" stop-color="#CCD0D6"/>
            <stop offset="44%" stop-color="#CACED4"/>
            <stop offset="56.8%" stop-color="#B3B7BD"/>
            <stop offset="83.5%" stop-color="#797C83"/>
            <stop offset="100%" stop-color="#52545C"/>
        </linearGradient>
        <linearGradient id="b" x1="50%" x2="50%" y1="122.592%" y2="27.082%">
            <stop offset="0%" stop-color="#F0F3F5"/>
            <stop offset="5.6%" stop-color="#E2E5E8"/>
            <stop offset="13.8%" stop-color="#D4D8DD"/>
            <stop offset="24.2%" stop-color="#CCD0D6"/>
            <stop offset="44%" stop-color="#CACED4"/>
            <stop offset="56.8%" stop-color="#B3B7BD"/>
            <stop offset="83.5%" stop-color="#797C83"/>
            <stop offset="100%" stop-color="#52545C"/>
        </linearGradient>
        <linearGradient id="c" x1="92.46%" x2="12.597%" y1="95.727%" y2="37.599%">
            <stop offset="0%" stop-color="#F0F3F5"/>
            <stop offset="5.6%" stop-color="#E2E5E8"/>
            <stop offset="13.8%" stop-color="#D4D8DD"/>
            <stop offset="24.2%" stop-color="#CCD0D6"/>
            <stop offset="44%" stop-color="#CACED4"/>
            <stop offset="56.8%" stop-color="#B3B7BD"/>
            <stop offset="83.5%" stop-color="#797C83"/>
            <stop offset="100%" stop-color="#52545C"/>
        </linearGradient>
        <linearGradient id="d" x1="74.374%" x2="18.249%" y1="60.64%" y2="15.453%">
            <stop offset="0%" stop-color="#F0F3F5"/>
            <stop offset="5.6%" stop-color="#E2E5E8"/>
            <stop offset="13.8%" stop-color="#D4D8DD"/>
            <stop offset="24.2%" stop-color="#CCD0D6"/>
            <stop offset="44%" stop-color="#CACED4"/>
            <stop offset="56.8%" stop-color="#B3B7BD"/>
            <stop offset="83.5%" stop-color="#797C83"/>
            <stop offset="100%" stop-color="#52545C"/>
        </linearGradient>
        <linearGradient id="e" x1="50.002%" x2="50.002%" y1="-20.464%" y2="136.875%">
            <stop offset="0%" stop-color="#F0F3F5"/>
            <stop offset="5.6%" stop-color="#E2E5E8"/>
            <stop offset="13.8%" stop-color="#D4D8DD"/>
            <stop offset="24.2%" stop-color="#CCD0D6"/>
            <stop offset="44%" stop-color="#CACED4"/>
            <stop offset="56.8%" stop-color="#B3B7BD"/>
            <stop offset="83.5%" stop-color="#797C83"/>
            <stop offset="100%" stop-color="#52545C"/>
        </linearGradient>
        <linearGradient id="f" x1="50.002%" x2="50.002%" y1="-20.464%" y2="136.875%">
            <stop offset="0%" stop-color="#F0F3F5"/>
            <stop offset="5.6%" stop-color="#E2E5E8"/>
            <stop offset="13.8%" stop-color="#D4D8DD"/>
            <stop offset="24.2%" stop-color="#CCD0D6"/>
            <stop offset="44%" stop-color="#CACED4"/>
            <stop offset="56.8%" stop-color="#B3B7BD"/>
            <stop offset="83.5%" stop-color="#797C83"/>
            <stop offset="100%" stop-color="#52545C"/>
        </linearGradient>
        <linearGradient id="g" x1="49.998%" x2="49.998%" y1="-89.758%" y2="72.813%">
            <stop offset="0%" stop-color="#F0F3F5"/>
            <stop offset="5.6%" stop-color="#E2E5E8"/>
            <stop offset="13.8%" stop-color="#D4D8DD"/>
            <stop offset="24.2%" stop-color="#CCD0D6"/>
            <stop offset="44%" stop-color="#CACED4"/>
            <stop offset="56.8%" stop-color="#B3B7BD"/>
            <stop offset="83.5%" stop-color="#797C83"/>
            <stop offset="100%" stop-color="#52545C"/>
        </linearGradient>
        <linearGradient id="h" x1="49.998%" x2="49.998%" y1="-89.759%" y2="72.811%">
            <stop offset="0%" stop-color="#F0F3F5"/>
            <stop offset="5.6%" stop-color="#E2E5E8"/>
            <stop offset="13.8%" stop-color="#D4D8DD"/>
            <stop offset="24.2%" stop-color="#CCD0D6"/>
            <stop offset="44%" stop-color="#CACED4"/>
            <stop offset="56.8%" stop-color="#B3B7BD"/>
            <stop offset="83.5%" stop-color="#797C83"/>
            <stop offset="100%" stop-color="#52545C"/>
        </linearGradient>
        <linearGradient id="i" x1="50%" x2="50%" y1="0%" y2="100%">
            <stop offset="0%" stop-color="#F0F3F5"/>
            <stop offset="25.3%" stop-color="#EDF0F3"/>
            <stop offset="40.6%" stop-color="#E5E8EA"/>
            <stop offset="53.1%" stop-color="#D7DADC"/>
            <stop offset="64.2%" stop-color="#C3C5C9"/>
            <stop offset="74.4%" stop-color="#A9ABAF"/>
            <stop offset="83.9%" stop-color="#888B90"/>
            <stop offset="92.6%" stop-color="#63656B"/>
            <stop offset="100%" stop-color="#3D3F46"/>
        </linearGradient>
        <linearGradient id="j" x1="49.999%" x2="49.999%" y1="-7.19%" y2="105.671%">
            <stop offset="0%" stop-color="#F0F3F5"/>
            <stop offset="25.3%" stop-color="#EDF0F3"/>
            <stop offset="40.6%" stop-color="#E5E8EA"/>
            <stop offset="53.1%" stop-color="#D7DADC"/>
            <stop offset="64.2%" stop-color="#C3C5C9"/>
            <stop offset="74.4%" stop-color="#A9ABAF"/>
            <stop offset="83.9%" stop-color="#888B90"/>
            <stop offset="92.6%" stop-color="#63656B"/>
            <stop offset="100%" stop-color="#3D3F46"/>
        </linearGradient>
        <linearGradient id="k" x1="50%" x2="50%" y1="-2.057%" y2="219.725%">
            <stop offset="0%" stop-color="#F0F3F5"/>
            <stop offset="25.3%" stop-color="#EDF0F3"/>
            <stop offset="40.6%" stop-color="#E5E8EA"/>
            <stop offset="53.1%" stop-color="#D7DADC"/>
            <stop offset="64.2%" stop-color="#C3C5C9"/>
            <stop offset="74.4%" stop-color="#A9ABAF"/>
            <stop offset="83.9%" stop-color="#888B90"/>
            <stop offset="92.6%" stop-color="#63656B"/>
            <stop offset="100%" stop-color="#3D3F46"/>
        </linearGradient>
        <linearGradient id="l" x1="50%" x2="50%" y1="-12.919%" y2="101.124%">
            <stop offset="0%" stop-color="#CACED4"/>
            <stop offset="100%" stop-color="#52545C"/>
        </linearGradient>
    </defs>
    <g fill="none" fill-rule="evenodd">
        <path fill="#AB002F" fill-rule="nonzero" d="M19.417 28.518c-.006-1.907 1.538-3.446 3.465-3.449 1.88.003 3.425 1.541 3.463 3.449-.037 1.885-1.582 3.424-3.463 3.45-1.927-.026-3.47-1.565-3.465-3.45zm3.465 2.18c1.041-.017 1.903-.99 1.913-2.18-.01-1.213-.872-2.187-1.913-2.18-1.085-.007-1.949.967-1.915 2.18-.034 1.19.83 2.163 1.915 2.18zm7.383-4.178v5.267h-1.458V26.52H26.71v-1.178h5.561v1.178h-2.006zm3.737 3.812l-.546 1.455h-1.73l2.734-6.445h1.822l2.645 6.445h-1.731l-.547-1.455h-2.647zm1.37-1.088h.91l-.91-2.361-.912 2.361h.912zM3.464 26.52v5.267H2.005V26.52H0v-1.178h5.47v1.178H3.464zm2.37 1.998a3.455 3.455 0 0 1 3.463-3.449c1.892.003 3.437 1.541 3.465 3.449-.028 1.885-1.573 3.424-3.465 3.45-1.917-.026-3.46-1.565-3.462-3.45zm3.463 2.18c1.053-.017 1.914-.99 1.915-2.18-.001-1.213-.862-2.187-1.915-2.18-1.075-.007-1.937.967-1.912 2.18-.025 1.19.837 2.163 1.912 2.18zm6.747 1.089h.729v-2.452l2.553-3.993h-1.64l-1.642 2.722-1.55-2.722h-1.732l2.554 3.993v2.452h.728z"/>
        <path fill="#000" fill-rule="nonzero" d="M1.174 11.154c0 6.15 8.03 11.153 17.9 11.153s17.9-5.003 17.9-11.153S28.944 0 19.074 0s-17.9 5.003-17.9 11.154zm.549 0C1.723 5.306 9.506.548 19.073.548c9.568 0 17.352 4.758 17.352 10.606 0 5.849-7.784 10.606-17.351 10.606-9.568 0-17.351-4.757-17.351-10.606z"/>
        <path fill="#000" fill-rule="nonzero" d="M17.382 2.028c-4.189.254-7.232 1.36-7.75 2.817-.053.147-.08.301-.081.457 0 .246.07.492.208.727.581.986 2.386 1.8 4.955 2.236l.272.045.045-.27c.422-2.562 1.347-4.576 2.54-5.526l.676-.54-.865.054zm-7.149 3.725a.806.806 0 0 1-.084-.725c.396-1.113 3.085-2.085 6.521-2.398-.98 1.104-1.734 2.883-2.127 5.044-2.232-.411-3.838-1.12-4.31-1.921zm6.383 2.45l-.053.297.303.023a29.888 29.888 0 0 0 4.416 0l.302-.023-.054-.297c-.413-2.311-1.332-3.691-2.456-3.691-1.126 0-2.044 1.38-2.458 3.69zm2.458-3.144c.768 0 1.478 1.146 1.852 2.936-.608.04-1.227.064-1.853.064-.625 0-1.244-.025-1.851-.064.372-1.79 1.083-2.936 1.852-2.936zm1.502-2.545c1.192.95 2.119 2.965 2.54 5.525l.045.27.272-.043c2.57-.437 4.375-1.25 4.954-2.237.226-.38.269-.789.13-1.184-.52-1.456-3.562-2.562-7.752-2.817l-.863-.054.674.54zm.903.116c3.434.313 6.124 1.287 6.518 2.398.035.093.05.183.05.276a.896.896 0 0 1-.132.449c-.473.801-2.08 1.51-4.31 1.921-.394-2.161-1.146-3.94-2.126-5.044zM6.98 5.919c-1.882 1.57-2.877 3.436-2.877 5.396 0 4.612 5.646 8.51 13.134 9.065l.836.063-.637-.542c-1.64-1.397-2.659-4.713-2.659-8.653l.017-.931-.23-.047c-3.938-.703-6.74-2.352-7.138-4.199l-.096-.443-.35.29zm-2.328 5.396c0-1.68.824-3.294 2.37-4.695.72 1.866 3.411 3.42 7.215 4.144l-.009.484c0 3.653.871 6.809 2.307 8.511-6.822-.725-11.883-4.273-11.883-8.444zm11.74-.492v.099c0 3.663 1.152 6.426 2.682 6.426 1.529 0 2.682-2.763 2.682-6.426l-.004-.395-.295.025c-.778.068-1.578.101-2.383.101a27.48 27.48 0 0 1-2.382-.101l-.296-.027-.003.298zm4.811.293c-.041 3.408-1.12 5.685-2.13 5.685-1.01 0-2.089-2.277-2.129-5.685.699.051 1.412.083 2.13.083.719 0 1.43-.032 2.13-.083zm9.518-5.045c-.399 1.847-3.201 3.496-7.138 4.2l-.23.042.017.934c0 3.941-1.019 7.257-2.659 8.654l-.636.542.835-.063c7.488-.555 13.135-4.453 13.135-9.065 0-1.96-.996-3.826-2.88-5.397l-.348-.29-.096.443zm.404.549c1.547 1.401 2.37 3.014 2.37 4.695 0 4.17-5.06 7.72-11.882 8.444 1.436-1.702 2.306-4.858 2.306-8.511l-.009-.484c3.803-.724 6.494-2.278 7.215-4.144z"/>
        <path fill="url(#a)" d="M30.916 4.663a2.077 2.077 0 0 1 .014 1.416c1.786 1.467 2.84 3.276 2.84 5.237 0 4.893-6.58 8.86-14.696 8.86-8.117 0-14.696-3.967-14.696-8.86 0-1.96 1.054-3.77 2.838-5.237a2.086 2.086 0 0 1-.05-1.204c.02-.078.05-.153.085-.226-2.438 1.73-3.916 3.996-3.916 6.478 0 5.42 7.046 9.813 15.739 9.813 8.691 0 15.738-4.393 15.738-9.813 0-2.477-1.472-4.738-3.896-6.464z"/>
        <path fill="url(#b)" fill-rule="nonzero" d="M21.26 8.25a29.373 29.373 0 0 1-4.373 0h-.002l-.453.329a30.563 30.563 0 0 0 5.284 0l-.456-.328zm8.04-3.437c-.553-1.819-5.107-3.154-10.226-3.154-5.118 0-9.672 1.336-10.225 3.154-.48 1.577 2.138 3.037 6.268 3.616l-.359-.435c-3.34-.566-5.326-1.773-4.868-3.057.555-1.558 4.588-2.687 9.183-2.687 4.596 0 8.63 1.13 9.184 2.687.458 1.284-1.527 2.491-4.869 3.057l-.357.435c4.128-.579 6.747-2.039 6.268-3.616z"/>
        <path fill="url(#c)" d="M16.893 8.25c.383-2.121 1.215-3.448 2.18-3.448.966 0 1.798 1.327 2.182 3.449h.008l.448.324c-.379-2.803-1.416-4.594-2.637-4.594-1.222 0-2.259 1.791-2.637 4.594l.448-.324h.008z"/>
        <path fill="url(#d)" d="M21.847 10.163l-.367.661.002.148c0 3.518-1.08 6.185-2.409 6.185-1.33 0-2.408-2.667-2.408-6.185 0-.056.002-.11.003-.164l-.368-.645c-.01.268-.016.537-.016.805 0 3.989 1.249 7.01 2.79 7.01s2.791-3.021 2.791-7.01c0-.268-.007-.537-.018-.805z"/>
        <path fill="url(#e)" d="M15.123 8.43c.528-3.895 2.097-6.771 3.95-6.771-1.987 0-3.68 2.548-4.31 6.343l.355.429h.005z"/>
        <path fill="url(#f)" d="M23.025 8.43h.004l.354-.428c-.628-3.795-2.323-6.343-4.31-6.343 1.855 0 3.425 2.876 3.952 6.772z"/>
        <path fill="url(#g)" d="M23.63 10.537l-.451-.536h-.004c.026.426.04.859.04 1.298 0 5.325-1.854 9.64-4.141 9.64 2.564 0 4.57-4.002 4.57-9.64 0-.258-.005-.51-.014-.762z"/>
        <path fill="url(#h)" d="M14.934 11.3c0-.44.014-.873.039-1.298h-.003l-.452.534c-.01.254-.014.509-.015.763 0 5.638 2.008 9.64 4.571 9.64-2.286 0-4.14-4.315-4.14-9.64z"/>
        <path fill="#2D2F34" fill-rule="nonzero" d="M30.93 6.079a9.07 9.07 0 0 1 1.71 1.823 6.26 6.26 0 0 0-1.202-2.847c-.17-.135-.345-.266-.523-.391a2.073 2.073 0 0 1 .015 1.415zm-23.713 0a2.086 2.086 0 0 1-.051-1.204c.021-.078.05-.154.085-.226-.183.132-.364.267-.541.406a6.284 6.284 0 0 0-1.202 2.847A9.06 9.06 0 0 1 7.217 6.08z"/>
        <path fill="url(#i)" fill-rule="nonzero" d="M1.448 11.154C1.448 5.146 9.34.274 19.074.274c9.733 0 17.624 4.872 17.624 10.88 0 6.009-7.89 10.879-17.624 10.879-9.735 0-17.626-4.87-17.626-10.88zm17.626 9.786c8.691 0 15.738-4.393 15.738-9.813 0-5.42-7.047-9.815-15.738-9.815-8.693 0-15.74 4.395-15.74 9.815s7.047 9.813 15.74 9.813z"/>
        <path fill="url(#j)" fill-rule="nonzero" d="M14.934 11.3c0-5.269 1.854-9.64 4.14-9.64 2.286 0 4.141 4.371 4.141 9.64 0 5.324-1.855 9.64-4.141 9.64-2.287 0-4.14-4.316-4.14-9.64zm4.14 6.678c1.54 0 2.79-3.021 2.79-7.008 0-4.138-1.25-6.989-2.79-6.989-1.541 0-2.79 2.851-2.79 6.989 0 3.987 1.249 7.008 2.79 7.008z"/>
        <path fill="url(#k)" fill-rule="nonzero" d="M7.166 4.875C7.62 3.084 13.114.477 19.074.477c5.96 0 11.264 1.863 11.908 4.398.72 2.842-4.574 5.413-11.908 5.413-7.336 0-12.63-2.571-11.908-5.413zm11.908-3.216c-5.118 0-9.672 1.336-10.225 3.154-.619 2.037 3.927 3.88 10.225 3.88 6.3 0 10.844-1.843 10.225-3.88-.552-1.819-5.106-3.154-10.225-3.154z"/>
        <path fill="url(#l)" fill-rule="nonzero" d="M16.295 10.158l.003.002.378.664a27.812 27.812 0 0 0 4.806-.002l.368-.662.003-.002a29.478 29.478 0 0 1-5.558 0zm14.75-4.669c-.095 2.032-3.232 3.832-7.868 4.51l.002.002.452.538c4.536-.812 7.52-2.806 7.413-5.05zm-23.942 0c-.107 2.246 2.877 4.238 7.412 5.05l.454-.538V10C10.334 9.32 7.2 7.52 7.104 5.49z"/>
    </g>
</svg>
