<svg xmlns="http://www.w3.org/2000/svg" width="73" height="32" viewBox="0 0 73 32">
    <g fill="#000" fill-rule="nonzero">
        <path d="M12.456 25.58h-3.03v-4.07H7.312v10.177h2.114v-4.553h3.03v4.553h2.115V21.509h-2.115v4.072zm50.45-4.07v1.553h2.872v8.624h2.114v-8.624h2.872v-1.554h-7.858zm-11.164 0h-2.114v10.177h6.048v-1.554H51.74l.001-8.624zm-24.194 8.484c-.031.106-.11.134-.22.134-.108 0-.19-.041-.224-.14l-2.226-8.478h-2.467l2.559 9.284c.124.61.53.894 1.103.894h1.95c.574 0 .946-.294 1.09-.88l2.496-9.298h-1.867l-2.194 8.484zM.195 23.099l-.001 6.997c0 1.132.578 1.592 1.579 1.592l4.728-.001V30.13h-3.42c-.586 0-.774-.143-.774-.778l.002-5.512c0-.613.142-.777.774-.777H6.5V21.51H1.777c-1.08 0-1.582.56-1.582 1.59zm17.76 6.253v-2.218h4.202V25.58h-4.199V23.84c0-.59.13-.777.773-.777h3.471V21.51l-4.778.002c-1.092 0-1.58.547-1.58 1.587l-.002 6.997c0 1.075.521 1.592 1.58 1.592l5.22-.001V30.13H18.73c-.588 0-.776-.132-.776-.778zm19.824-1.966c.978 0 1.58-.447 1.58-1.59l-.002-2.697c0-1.063-.499-1.59-1.58-1.59h-5.893v10.178h2.114v-8.624h2.47c.655 0 .774.187.774.777l.003 1.24c0 .6-.165.778-.775.778h-1.155c-.448 0-.7.272-.7.71 0 .221.11.38.199.54l2.67 4.58H40.1l-2.796-4.298.475-.004zm8.987-5.875h-4.659c-1.115 0-1.58.57-1.58 1.588l-.002 6.997c0 1.156.613 1.591 1.58 1.591h4.661c1.013 0 1.582-.482 1.582-1.591l-.002-6.997c0-1.04-.488-1.588-1.58-1.588zm-1.306 8.62h-2.047c-.61 0-.774-.167-.774-.779V23.84c0-.532.072-.777.774-.777h2.048c.552 0 .771.095.771.777l.002 5.512c0 .657-.2.778-.774.778zm12.739-.779v-2.218h4.203V25.58h-4.2V23.84c0-.59.13-.777.774-.777h3.47V21.51l-4.778.002c-1.093 0-1.581.547-1.581 1.587v6.997c0 1.075.52 1.592 1.579 1.592l5.22-.001V30.13h-3.912c-.587 0-.775-.132-.775-.778zM53.983 3.027l-11.261.001c-.288 0-.476-.086-.476-.483V.867c0-.484-.26-.74-.73-.74H28.625c-.482 0-.73.273-.73.736V2.54c0 .355-.167.484-.477.484l-7.38.002c-.564 0-.894.27-1.065.626l-3.593 7.056a.661.661 0 0 0-.073.299c0 .28.182.64.685.64l11.425-.002c.353 0 .477.161.477.483l-.001 1.678c0 .506.292.736.731.736h6.446l6.444-.001c.44 0 .731-.213.731-.73v-1.678c0-.343.145-.483.475-.483l7.165-.002c.494 0 .85-.13 1.097-.593l3.552-6.972c.078-.151.132-.237.132-.416.002-.474-.405-.64-.683-.64zm-2.838 2.81l-1.712 3.365c-.108.195-.299.204-.433.204h-8.5c-.354 0-.482.16-.482.482l-.002 1.936c0 .322-.14.476-.482.476h-8.929c-.298 0-.481-.105-.481-.48l-.001-1.936c0-.354-.162-.48-.481-.48H19.219c-.256 0-.433-.163-.433-.388 0-.064.017-.126.045-.18l1.713-3.365c.065-.12.173-.201.431-.201h8.667c.299 0 .484-.12.484-.486V2.85c0-.343.15-.481.48-.481h8.93c.32 0 .48.143.48.486v1.935c0 .332.153.48.484.48h10.257c.327 0 .433.216.433.387a.407.407 0 0 1-.045.181z"/>
        <path d="M43.92 1.615c0-.172-.138-.211-.282-.211h-.345V2.2h.112v-.348h.154l.226.348h.125l-.236-.36c.141-.004.247-.069.247-.225zm-.308.141h-.207V1.5h.212c.083 0 .193.01.193.113 0 .079-.037.144-.198.144z"/>
        <path d="M43.557 1.091a.706.706 0 0 0-.71.71c0 .392.314.71.71.71a.706.706 0 0 0 .707-.71.708.708 0 0 0-.707-.71zm0 1.308a.597.597 0 0 1-.58-.598c0-.325.257-.59.58-.599.327 0 .592.267.592.595a.596.596 0 0 1-.592.602zm28.77 19.677c0-.17-.14-.21-.284-.21H71.7v.795h.111v-.348h.154l.227.348h.124l-.236-.36c.141-.002.247-.069.247-.225zm-.31.142h-.207v-.257h.212c.083 0 .193.01.193.114 0 .078-.037.143-.198.143z"/>
        <path d="M71.962 21.553a.71.71 0 1 0 0 1.42.706.706 0 0 0 .707-.71.708.708 0 0 0-.707-.71zm0 1.308a.597.597 0 0 1-.595-.598.594.594 0 0 1 1.187-.004.595.595 0 0 1-.592.602z"/>
    </g>
</svg>
