<svg xmlns="http://www.w3.org/2000/svg" width="73" height="24" viewBox="0 0 73 24">
    <g fill="none" fill-rule="evenodd">
        <path fill="#DEE1E9" d="M.168.607s.195-.66.88-.455l35.2 10.588L71.679.108s.663-.21.888.478c-1.177.395-36.33 12.449-36.33 12.449L.167.607z"/>
        <path fill="#97A0B2" d="M45.033 8.099C43.251 4.468 39.453 2 35.125 2a10.903 10.903 0 0 0-9.543 5.546l.689.981a9.9 9.9 0 0 1 8.854-5.452c4.163 0 7.773 2.521 9.235 6.15l.673-1.126z"/>
        <path fill="#DEE1E9" d="M43.84 13.461c-.276 4.558-4.073 8.169-8.715 8.169-4.822 0-8.732-3.897-8.732-8.704 0-.15.004-.3.012-.448l-1.048-1.266c-.101.57-.152 1.149-.151 1.728 0 5.46 4.44 9.888 9.92 9.888 5.477 0 9.919-4.427 9.919-9.888 0-.341-.018-.678-.052-1.01l-1.152 1.531z"/>
        <path fill="#DEE1E9" d="M28.45 15.705s-.247-.715.55-1.047c.796-.332 1.187-.476 1.187-.476l6.049-1.147-7.786 2.67z"/>
        <path fill="#000" d="M45.028 11.992l-.026.037c.027.296.043.595.043.897 0 5.453-4.435 9.873-9.906 9.873-5.47 0-9.905-4.42-9.905-9.873 0-.548.047-1.085.133-1.609l-1.14.346c-.052.426-.078.856-.079 1.285 0 6.05 4.92 10.956 10.991 10.956 6.07 0 10.992-4.905 10.992-10.956 0-.15-.006-.297-.011-.446l-1.092-.51z"/>
        <path fill="#000" d="M72.591.58L36.236 13.034.149.605S.063.808.06.94c-.002.131.015.447.463.635.448.189 23.712 10.094 23.712 10.094l1.135-.345 1.052 1.251 3.78 1.609 6.003-1.14-7.768 2.661s.096.44.738.486c.643.046 7.144.574 7.144.574l7.509-3.19 1.175-1.56 1.106.563S71.71 1.782 72.279 1.552c.57-.23.312-.973.312-.973z"/>
        <path fill="#000" d="M27.75 8.171a8.763 8.763 0 0 1 7.357-3.988 8.766 8.766 0 0 1 7.701 4.564l1.552.48a9.943 9.943 0 0 0-9.21-6.173 9.943 9.943 0 0 0-8.894 5.481l1.494-.364z"/>
    </g>
</svg>
