<svg xmlns="http://www.w3.org/2000/svg" width="32" height="32" viewBox="0 0 32 32">
    <g fill="none" fill-rule="evenodd">
        <path fill="#295CA7" d="M15.982.051c8.769 0 15.918 7.15 15.918 15.931 0 8.755-7.15 15.918-15.918 15.918-8.768 0-15.93-7.163-15.93-15.918 0-8.78 7.162-15.93 15.93-15.93z"/>
        <path fill="#FFF" fill-rule="nonzero" d="M15.982 2.074c7.646 0 13.896 6.25 13.896 13.909 0 7.646-6.25 13.882-13.896 13.882-7.646 0-13.895-6.237-13.895-13.883 0-7.659 6.25-13.908 13.895-13.908zm0 1.97a11.87 11.87 0 0 0-2.988.378l3.027 8.35 3.014-8.337c-.978-.26-2.009-.391-3.053-.391zM6.68 8.506l4.985 12.93 1.826-4.723h4.789l1.826 4.723L25.14 8.35a12.007 12.007 0 0 0-3.157-2.687l-3.497 9.629h-4.932l-3.51-9.669A12.095 12.095 0 0 0 6.68 8.506zm20.472 3.249l-5.676 14.809c3.81-1.996 6.433-5.989 6.433-10.581 0-1.488-.261-2.91-.757-4.228zm-8.155 15.774l-.039-.3-3.08-7.985L12.8 27.23l-.013.248c1.017.287 2.087.43 3.196.43 1.044 0 2.049-.13 3.014-.378zm-8.742-1.096L4.722 12.016a11.725 11.725 0 0 0-.678 3.966c0 4.489 2.505 8.429 6.21 10.451z"/>
    </g>
</svg>
