<svg xmlns="http://www.w3.org/2000/svg" width="60" height="32" viewBox="0 0 60 32">
    <g fill="#33348E" fill-rule="nonzero">
        <path d="M55.574 15.334H37.37L31.156.129l-1.143 2.842-4.968 12.363H5.57L.266 27.612l29.747 4.062.868.12 29.094-4.182-4.4-12.278zM30.795 28.261l-.782-.026-28.02-.981 4.479-10.188h18.47L30.013 4.2l1.143-2.884 6.197 15.751h17.216l3.472 10.188-27.246 1.007z"/>
        <path d="M56.021 23.158l-1.814-.827.997-1.357-.91-3.182H39.836l1.47 3.08h8.148l-1.117 1.459 1.401 1.288H38.565L31.156 2.86l-1.143 2.953-6.154 15.99h-2.767l-.808-4.01h-4.942l-2.364 3.276-1.83-3.277h-4.28l-3.886 8.831h4.143l1.813-3.003 1.367 3.003h5.226l1.641-3.19 1.642 3.19h7.787l1.556-1.91 1.856 1.185 1.144.725 2.724-1.91 1.487 1.91h21.848l-1.195-3.464zm-24.865-.64l-1.143-.793-1.22-.853 1.22-2.867 1.143-2.671 2.295 5.538-2.295 1.646z"/>
    </g>
</svg>
