<svg xmlns="http://www.w3.org/2000/svg" width="63" height="24" viewBox="0 0 63 24">
    <g fill="none" fill-rule="evenodd">
        <path fill="#425E99" d="M31.568 23.91c17.306 0 31.337-5.269 31.337-11.784C62.905 5.61 48.874.32 31.568.32 14.242.32.211 5.61.211 12.126S14.242 23.91 31.568 23.91z"/>
        <path fill="#FFF" d="M31.568 22.704c-16.619 0-30.124-4.706-30.124-10.578 0-5.852 13.505-10.619 30.124-10.619 16.66 0 30.144 4.767 30.144 10.619 0 5.872-13.485 10.578-30.144 10.578z"/>
        <path fill="#425E99" d="M31.568 21.88c16.113 0 29.193-4.364 29.193-9.754 0-5.37-13.08-9.734-29.193-9.734-16.133 0-29.174 4.364-29.174 9.734 0 5.39 13.04 9.754 29.174 9.754z"/>
        <path fill="#FFF" fill-rule="nonzero" d="M39.21 14.076c1.375-1.287 2.143-2.634 4.125-2.614 1.193.02 1.496.965 1.698 1.368l2.608-4.384h1.597l-4.326 7.622c-.081.16-.284.462-.263.703.04.382.526.282.344.282.869-.04 2.466-1.69 2.85-2.091.08-.101.223-.282.303-.282.081 0 .243.08.243.201 0 .08-.182.382-.323.563-.81 1.006-2.143 2.554-3.66 2.594-.748 0-1.031-.301-1.132-.884-.344.301-1.516.824-2.709.824-.99-.02-1.395-.603-1.597-1.066-.182-.382-.263-.945-.122-1.508-.546.282-1.051.322-1.779.302-.85-.02-1.375-.402-1.638-1.388-.97 1.77-1.01 1.83-2.001 3.68h-1.719l2.204-3.72a4.84 4.84 0 0 0 .526-1.327c.06-.242-.121-.463-.384-.483-.283 0-.748.282-1.193.704 0 0-1.132 1.207-1.961 2.433-.789 1.167-2.143 2.494-3.619 2.494-1.072 0-2.042-.583-2.244-1.71 0 0-.101.262-1.052.805-.08.04-.283.16-.343.12-.182-.16-.283-.361-.304-.502.061.02.182-.08.566-.382.748-.563.91-1.006.91-1.006.182-.382.506-.986.728-1.408.607-1.207 1.658-2.433 3.376-2.494.284 0 .364.121.425.222.161.12.101.362.101.362-1.213.18-2.042.884-2.547 1.568-.303.443-.627 1.167-.688 1.69-.121.904.304 1.507.93 1.648 1.173.181 2.143-.663 2.912-1.97.202-.342.343-1.227.343-1.71 0-.483-.263-.985-.465-1.187 0-.341.223-.563.485-.563.081 0 .162 0 .243.08.404.403.627 1.167.627 1.75 0 .202 0 .403-.04.604.848-1.026 1.92-2.353 2.75-2.614.16-.08.323-.08.484-.08 1.516-.041 1.314 1.327 1.314 1.327.809-.925 1.375-1.267 2.123-1.227.809.04 1.092.603 1.092 1.046-.02.522-.404 1.126-1.07 1.146-.588 0-.932-.282-1.113-.805-.385.141-.566.403-.647.925-.122.664.384 1.187 1.03 1.187 1.113 0 1.598-.483 2.003-.845zm1.214-8.667c0 .644-2.265 1.87-4.186 1.87-2.992 0-6.105-1.428-7.54-1.75-1.557-.361-2.972-.663-4.084-.663-3.902 0-5.641 1.67-5.56 3.198.04.623.545 1.025 1.294.884.809-.14 1.94-.905 2.224-1.568.06-.141.222-.161.283-.121.121.1.08.241.08.241-.1.785-1.314 2.957-3.416 2.957-1.173 0-1.961-1.086-1.941-2.152.02-1.991 2.062-4.002 7.096-4.002.95 0 2.022.08 3.195.281 1.354.242 4.73.805 7.48.845 1.011 0 2.305.04 3.356-.12 1.112-.182.87-.222 1.314-.222.405 0 .405.161.405.322z"/>
        <path fill="#425E99" d="M43.416 12.407c-.708-.08-1.598.523-2.325 1.408-.364.443-.748 1.287-.81 1.79-.08.503.062 1.006.244 1.146.182.141.99.563 2.244-.703.707-.704 1.395-1.85 1.395-1.85l-.223-.061c.425-.784.343-1.63-.525-1.73z"/>
        <path fill="#FFF" d="M28.637 10.034c0 .222.303.403.566.423-.06.221-.04.322-.142.302-.606 0-.849-.584-.849-.584-.808.141-1.597.242-3.194.403-4.023 6.475-5.277 7.541-7.743 7.541-1.76 0-3.316-1.146-3.356-3.197-.02-1.247.99-2.776 2.87-3.238.223 0 .304.08.304.201 0 .08-.081.181-.263.261-.546.202-1.496 1.267-1.496 2.253 0 .744.465 1.569 1.253 1.75.223.06.425.04.627.04 1.961 0 4.165-2.192 6.55-5.53-.384.02-2.021.2-2.426.663-.181.14-.303.06-.343-.1 0-.041.06-.182.121-.262.647-.724 2.588-.885 3.053-.945 1.82-2.776 4.165-4.505 4.65-4.485.08 0 .263.12.182.322-.02.04-.223.261-.303.321-.405.362-1.78 1.247-3.275 3.761 1.213-.06 2.628-.302 2.628-.302s-.081-.261-.081-.482c.06-.865.566-1.388 1.213-1.287.364.06.607.362.607.683 0 .342-.263.845-.526 1.086-.182.14-.385.282-.627.402z"/>
        <path fill="#425E99" d="M28.535 9.592s.203.02.506-.322c.121-.12.323-.483.283-.724-.02-.12-.08-.261-.222-.241-.304.06-.486.201-.567.503-.1.321-.06.543 0 .784z"/>
    </g>
</svg>
