<svg xmlns="http://www.w3.org/2000/svg" width="67" height="32" viewBox="0 0 67 32">
    <path fill="#295BA7" fill-rule="nonzero" d="M.19 23.524h2.576v2.85h4.6v-2.85H9.91v7.998H7.366v-3.368H2.733v3.336H.191v-7.966zm10.008 0h2.51l2.638 3.076 2.607-3.076h2.477l-3.829 4.89v3.108H14.06v-3.335l-3.86-4.663zm10.554 0h2.542v6.185h4.087c.643 0 1.061-.647 1.061-1.328v-4.857h2.542v6.38c0 1.003-1.126 1.586-1.77 1.586h-8.462v-7.966zm10.779 0h8.463c.998 0 1.802.615 1.802 1.863v6.119l-2.542.016v-4.857c0-.68-.226-1.084-1.094-1.084h-3.83v5.958h-2.8v-8.015zm11.037 0h7.4c1.481 0 2.624 1.198 2.624 2.12v3.676c-.017.647-.918 2.201-2.044 2.201h-7.98v-7.997zm2.59 6.217h3.906c.563 0 .997-.42.997-.94v-2.33c0-.567-.462-.906-1.057-.906h-3.846v4.176zm10.571-6.25h7.932v8.03h-2.833v-2.07h-4.875v2.07H53.09v-5.213c-.065-1.748 1.48-2.818 2.64-2.818zm.192 2.851v1.294h4.892v-2.041h-4.12c-.482 0-.772.293-.772.747zm8.254-2.834h2.542v8.257h-2.542v-8.257zM33.609.368c-10.549 0-19.1 4.25-19.1 9.49s8.551 9.49 19.1 9.49c10.547 0 19.099-4.25 19.099-9.49s-8.552-9.49-19.1-9.49zm-1.812 2.113c2.18-.776 8.656 0 11.172 1.216.805.777-3.59 3.274-8.823 4.356-7.482 1.518-3.926-4.29-2.35-5.572zm-12.85 11.244c-1.644-1.18-4.865-4.558.47-8.07 2.818-1.653 4.395-2.026 6.34-2.43.94-.204 1.611.033.772.742-1.778 1.857-5.468 8.001-5.803 9.353-.27.912-.806 1.147-1.779.405zm15.365 3.917c-3.153.337-10.164-.709-10.3-1.62.136-2.196 11.14-5.842 13.118-3.816.84 1.586-.77 5.335-2.818 5.436zM50.35 11.26c-.806 1.858-3.523 3.952-9.226 5.37-.873.201-1.175-.338-.605-.845.94-.573 5.47-8.204 6.04-9.724.335-.777.972-.472 1.376-.169 1.812 1.181 3.187 3.106 2.415 5.368z"/>
</svg>
