<svg xmlns="http://www.w3.org/2000/svg" xmlns:xlink="http://www.w3.org/1999/xlink" width="377" height="101" viewBox="0 0 377 101">
    <defs>
        <path id="a" d="M23 50.03L0 100.026l16 .004 4.388-11.31h25.086L51 100.03h16l-23-50H23zm9.942 8.602l.058-.126.012-.006.48-.158.132.16 8.336 20.82H24.542l8.4-20.69zm90.284-5.374c-3.193-2.606-7.235-3.522-11.346-3.228H76v50l36.994.12c4.998 0 8.734-.358 11.31-2.83 2.576-2.472 3.842-6.138 3.842-11.1v-.062a21.036 21.036 0 0 0-.16-2.614c-.1-.83-.267-1.65-.498-2.454a9.704 9.704 0 0 0-5.086-6.354l.2-.132a12.128 12.128 0 0 0 4.654-10.238 14.403 14.403 0 0 0-4.03-11.108zM154 100.03h16v-40h20v-10l-56-.004V60.03h20v40zm71.766-50.548c-9.66 0-17.308.946-22.604 4.88-5.388 4-8.248 10.566-8.248 20.956 0 10.39 2.872 16.956 8.272 20.956 5.302 3.938 12.912 4.466 22.564 4.466s17.232-.526 22.488-4.464c5.342-4.004 8.172-10.558 8.172-20.958 0-10.392-2.824-16.952-8.166-20.952-5.252-3.936-12.818-4.884-22.478-4.884zM208.89 75.316c0-5.95 1.17-9.992 3.788-12.48l.002.016c2.638-2.506 6.872-3.582 12.978-3.582 6.142 0 10.404 1.086 13.01 3.564 2.606 2.478 3.76 6.52 3.76 12.498 0 5.942-1.164 9.97-3.8 12.474-2.636 2.504-6.874 3.582-12.978 3.582-6.072 0-10.344-1.114-12.96-3.6-2.616-2.486-3.8-6.522-3.8-12.472zm8.118-37.206h6.222a.793.793 0 0 0 .48-.16.822.822 0 0 0 .29-.412l3.53-8.86h17.504l3.6 8.91a.803.803 0 0 0 .744.522h6.218a.846.846 0 0 0 .814-.872.923.923 0 0 0-.092-.4L241.634.562a.817.817 0 0 0-.744-.522h-8.922a.822.822 0 0 0-.766.574l-14.938 36.274a.896.896 0 0 0 .416 1.146c.102.05.214.075.328.076zm19.296-32.028l6.664 16.924h-13.38l6.716-16.924zm-210.286.336v30.81a.843.843 0 0 0 .814.872h5.934a.844.844 0 0 0 .812-.872V1.012a.844.844 0 0 0-.812-.87h-.13l-4.6-.014-4.6-.01c-3.77-.005-7.543-.005-11.316 0C8.347.123 4.575.133.804.146a.84.84 0 0 0-.8.868v36.212a.844.844 0 0 0 .812.872h5.936a.84.84 0 0 0 .81-.868V6.418h18.456zm9.992 31.694h6.098l.006-.01a.8.8 0 0 0 .744-.578l11.85-30.62 11.804 30.69a.8.8 0 0 0 .726.528h6.09a.834.834 0 0 0 .79-.872.93.93 0 0 0-.088-.4L59.83.65a.784.784 0 0 0-.722-.522h-8.824a.8.8 0 0 0-.754.612L35.288 36.902a.907.907 0 0 0 .41 1.14c.097.047.204.07.312.07zM150.356.14h-5.872l-.004-.012a.84.84 0 0 0-.8.868V15.43h-18.724V.996a.841.841 0 0 0-.812-.87h-5.932a.85.85 0 0 0-.814.894v36.224a.844.844 0 0 0 .814.872h5.936a.84.84 0 0 0 .8-.868V21.696h18.726v15.552a.84.84 0 0 0 .81.868h5.936a.844.844 0 0 0 .812-.872V1.01a.844.844 0 0 0-.812-.87h-.064zm36.782 37.106v-4.518l-.006-.016a.847.847 0 0 0-.812-.872h-.066l-21.986.02V21.832h21.31a.844.844 0 0 0 .812-.87V16.46a.844.844 0 0 0-.812-.87H164.27V6.4l21.84-.018a.84.84 0 0 0 .81-.868V.994a.842.842 0 0 0-.812-.87h-.06l-28.4-.094a.84.84 0 0 0-.8.868v36.36a.844.844 0 0 0 .814.87h.076l28.6-.014a.84.84 0 0 0 .8-.868zm23.114-.004V6.392l12.406-.014a.847.847 0 0 0 .812-.87V.994a.84.84 0 0 0-.812-.87h-31.642a.844.844 0 0 0-.814.87v4.514a.845.845 0 0 0 .814.87h11.69v30.86a.843.843 0 0 0 .812.872h5.934a.842.842 0 0 0 .8-.868zm-133.658.86h6.08l-.002.004a.8.8 0 0 0 .746-.576l3.452-8.86h17.106l3.522 8.91a.8.8 0 0 0 .726.522h6.078a.836.836 0 0 0 .8-.872.94.94 0 0 0-.088-.4L100.666.554a.8.8 0 0 0-.726-.522h-8.718a.8.8 0 0 0-.748.574l-14.6 36.274a.904.904 0 0 0 .4 1.146c.1.05.209.076.32.076zM95.45 6.074l6.514 16.924H88.89l6.56-16.924zM88 60.03h21a5 5 0 0 1 0 10H88v-10zm0 20h22a6 6 0 0 1 0 12H88v-12z"/>
    </defs>
    <g fill="none" fill-rule="evenodd">
        <path fill="#FFF" d="M77.998 18.07h-56a4 4 0 0 0-4 4V100h-18V4a4 4 0 0 1 4-4h91.998a4 4 0 0 1 4 4l.002 96h-18V22.07a4 4 0 0 0-4-4z"/>
        <path fill="#E5682C" d="M100 100H81.998c0-16.431-17.007-25.627-25.291-33.611-7.41-7.17-7.49-16.147 13.419-20.14L100 100zM43.567 78.402C46.285 85.926 41.725 95.125 32.81 100H0l25.745-46.033 22.508-40.803a2 2 0 0 1 3.5-.005l16.82 30.288c-14.323.657-25.982 3.601-31.08 9.227-8.939 9.793 3.063 17.38 6.074 25.728z"/>
        <g>
            <g transform="translate(120)">
                <mask id="b" fill="#fff">
                    <use xlink:href="#a"/>
                </mask>
                <use fill="#000" xlink:href="#a"/>
                <g fill="#FFF" mask="url(#b)">
                    <path d="M0 0h258v102H0z"/>
                </g>
            </g>
        </g>
    </g>
</svg>
