<svg xmlns="http://www.w3.org/2000/svg" xmlns:xlink="http://www.w3.org/1999/xlink" width="24" height="24" viewBox="0 0 24 24">
    <defs>
        <path id="a" d="M5.999 19a2 2 0 1 0 4 0 2 2 0 0 0-4 0zM16 19a2 2 0 1 0 3.999.001 2 2 0 0 0-3.999 0zm-6.453-4.728l11.068-3.162A.563.563 0 0 0 21 10.6V5.1H6.9V3.4a.4.4 0 0 0-.4-.4H3.4a.4.4 0 0 0-.4.4V5h1.943l1.968 9.056L7.1 15v1.5c0 .22.18.4.4.4h13.1a.4.4 0 0 0 .4-.4V15H9.752c-1.15 0-1.174-.45-.205-.728z"/>
    </defs>
    <g fill="none" fill-rule="evenodd">
        <path d="M0 0h24v24H0z"/>
        <mask id="b" fill="#fff">
            <use xlink:href="#a"/>
        </mask>
        <g fill="#FFFFFF" mask="url(#b)">
            <path d="M0 0h24v24H0z"/>
        </g>
    </g>
</svg>
