<svg xmlns="http://www.w3.org/2000/svg" xmlns:xlink="http://www.w3.org/1999/xlink" width="24" height="24" viewBox="0 0 24 24">
    <defs>
        <path id="a" d="M3.593 7.123l7.5 4.169c.252.14.578.206.906.206.328 0 .653-.066.906-.206l7.5-4.169c.488-.271.95-1.123.053-1.123H3.539c-.897 0-.435.852.054 1.123zm17.018 2.07l-7.706 4.168c-.34.183-.578.207-.906.207-.33 0-.567-.024-.906-.207L3.387 9.192C2.996 8.982 3 9.23 3 9.42v7.59c0 .433.559.991.992.991h16.016c.433 0 .992-.558.992-.992V9.42c0-.19.002-.438-.389-.227z"/>
    </defs>
    <g fill="none" fill-rule="evenodd">
        <path d="M0 0h24v24H0z"/>
        <mask id="b" fill="#fff">
            <use xlink:href="#a"/>
        </mask>
        <g fill="#32377D" mask="url(#b)">
            <path d="M0 0h24v24H0z"/>
        </g>
    </g>
</svg>
