<svg xmlns="http://www.w3.org/2000/svg" xmlns:xlink="http://www.w3.org/1999/xlink" width="24" height="24" viewBox="0 0 24 24">
    <defs>
        <path id="a" d="M4 15.404c.117.14.184.214.184.214 1.003 1.316 2.65 1.339 3.633 0 0 0 1.11-1.226 2.186-3.15v6.069l6.004 2.138V7.613l-4.023-1.416c.01-.19.016-.38.016-.572 0-.366-.037-.724-.109-1.071l3.765 1.334c.23.081.47.071.69-.01l2.932-1.155C20.59 4.206 22 5.18 22 6.607v12.005c0 .872-.55 1.652-1.36 1.925l-3.993 1.358c-.42.142-.88.142-1.3-.01l-5.003-1.773a.955.955 0 0 0-.69.01l-2.932 1.155C5.41 21.794 4 20.82 4 19.393v-3.99zM2 6.063C2 3.818 3.791 2 6 2c2.21 0 4 1.818 4 4.063 0 3.879-3.41 8.136-3.41 8.136-.315.437-.854.442-1.18 0 0 0-3.41-4.257-3.41-8.136zm1.84.048c0 1.211.967 2.194 2.16 2.194s2.16-.983 2.16-2.194C8.16 4.9 7.193 3.917 6 3.917c-1.192 0-2.16.982-2.16 2.194z"/>
    </defs>
    <g fill="none" fill-rule="evenodd">
        <path d="M0 0h24v24H0z"/>
        <mask id="b" fill="#fff">
            <use xlink:href="#a"/>
        </mask>
        <g fill="#32377D" mask="url(#b)">
            <path d="M0 0h24v24H0z"/>
        </g>
    </g>
</svg>
