<svg xmlns="http://www.w3.org/2000/svg" xmlns:xlink="http://www.w3.org/1999/xlink" width="24" height="24" viewBox="0 0 24 24">
    <defs>
        <path id="a" d="M12 6C5.439 6 2 11.18 2 12c0 .822 3.439 6 10 6 6.56 0 10-5.18 10-6 0-.82-3.44-6-10-6zm0 10.615c-2.455 0-4.445-2.066-4.445-4.616S9.545 7.383 12 7.383c2.454 0 4.444 2.067 4.444 4.616 0 2.55-1.99 4.616-4.444 4.616zM12 12c-.407-.479.663-2.309 0-2.309-1.227 0-2.223 1.034-2.223 2.309 0 1.274.995 2.307 2.223 2.307 1.227 0 2.222-1.034 2.222-2.307 0-.586-1.877.406-2.222 0z"/>
    </defs>
    <g fill="none" fill-rule="evenodd">
        <path d="M0 0h24v24H0z"/>
        <mask id="b" fill="#fff">
            <use xlink:href="#a"/>
        </mask>
        <g fill="#32377D" mask="url(#b)">
            <path d="M0 0h24v24H0z"/>
        </g>
    </g>
</svg>
