<svg xmlns="http://www.w3.org/2000/svg" xmlns:xlink="http://www.w3.org/1999/xlink" width="24" height="24" viewBox="0 0 24 24">
    <defs>
        <path id="a" d="M21.544 6.814c.138-.469 0-.814-.66-.814h-2.188c-.556 0-.813.296-.95.626 0 0-1.114 2.741-2.688 4.519-.509.514-.743.679-1.021.679-.137 0-.349-.165-.349-.634V6.814c0-.563-.156-.814-.616-.814H9.634c-.35 0-.557.263-.557.506 0 .533.787.656.868 2.156v3.255c0 .713-.126.844-.404.844-.743 0-2.547-2.752-3.616-5.902C5.709 6.247 5.498 6 4.937 6H2.75c-.624 0-.75.296-.75.626 0 .585.743 3.491 3.457 7.331C7.265 16.58 9.812 18 12.129 18c1.392 0 1.563-.315 1.563-.859 0-2.505-.127-2.741.571-2.741.323 0 .88.165 2.18 1.429 1.485 1.5 1.73 2.171 2.562 2.171h2.186c.624 0 .94-.315.758-.938-.416-1.308-3.227-4-3.353-4.18-.323-.42-.23-.608 0-.983.004-.004 2.673-3.799 2.948-5.085z"/>
    </defs>
    <g fill="none" fill-rule="evenodd">
        <path d="M0 0h24v24H0z"/>
        <mask id="b" fill="#fff">
            <use xlink:href="#a"/>
        </mask>
        <g fill="#32377D" mask="url(#b)">
            <path d="M0 0h24v24H0z"/>
        </g>
    </g>
</svg>
