<svg xmlns="http://www.w3.org/2000/svg" xmlns:xlink="http://www.w3.org/1999/xlink" width="24" height="24" viewBox="0 0 24 24">
    <defs>
        <path id="a" d="M11.216 10.968c.276-.484.486-1.01.62-1.567l2.286 1.342 6.541-3.838-2.947-1.752-5.796 3.83a6.042 6.042 0 0 0-.004-1.991l4.212-2.784-2.137-1.27-2.973 1.771a6.032 6.032 0 0 0-1.12-1.27l3.07-1.83a2 2 0 0 1 2.046 0l7.008 4.168A2 2 0 0 1 23 7.497v9.007a2 2 0 0 1-.978 1.719l-7.008 4.168a2 2 0 0 1-2.047 0l-6.991-4.168A2 2 0 0 1 5 16.505v-2.588a6.04 6.04 0 0 0 1.643.049v2.717L13.3 20.65v-8.46l-2.084-1.223zm3.728 9.528l6.413-3.814V8.428l-6.413 3.763v8.305zM6 3a5 5 0 1 1 0 10A5 5 0 0 1 6 3zm0 8.914a3.913 3.913 0 1 0 0-7.827 3.913 3.913 0 0 0 0 7.827zm.38-6.74v2.669L8.009 9.47l-.538.538-1.85-1.85V5.173h.76z"/>
    </defs>
    <g fill="none" fill-rule="evenodd">
        <path d="M0 0h24v24H0z"/>
        <mask id="b" fill="#fff">
            <use xlink:href="#a"/>
        </mask>
        <g fill="#32377D" mask="url(#b)">
            <path d="M0 0h24v24H0z"/>
        </g>
    </g>
</svg>
