<svg xmlns="http://www.w3.org/2000/svg" xmlns:xlink="http://www.w3.org/1999/xlink" width="24" height="24" viewBox="0 0 24 24">
    <defs>
        <path id="a" d="M6.254 21.762c.306-1.001.77-2.412 1.39-4.451 2.708-.438 3.828.347 5.546-2.785-1.395.436-3.078-.81-2.987-1.347.091-.54 3.913.388 6.417-3.239-3.155.71-4.164-.852-3.758-1.089.94-.545 3.726-.227 5.212-1.703.767-.76 1.125-2.608.815-3.268-.375-.797-2.658-1.985-3.915-1.873-1.258.113-3.232 4.889-3.816 4.852-.586-.038-.703-2.14.317-4.094-1.077.485-3.05 1.999-3.67 3.292-1.153 2.406.108 7.923-.296 8.12-.405.196-1.766-2.533-2.171-3.769-.555 1.897-.568 3.797 1.053 6.32-.612 1.657-.946 3.563-.997 4.532-.022.774.726.94.86.502z"/>
    </defs>
    <g fill="none" fill-rule="evenodd">
        <path d="M0 0h24v24H0z"/>
        <mask id="b" fill="#fff">
            <use xlink:href="#a"/>
        </mask>
        <g fill="#32377D" mask="url(#b)">
            <path d="M0 0h24v24H0z"/>
        </g>
    </g>
</svg>
