<svg xmlns="http://www.w3.org/2000/svg" xmlns:xlink="http://www.w3.org/1999/xlink" width="16" height="16" viewBox="0 0 16 16">
    <defs>
        <path id="a" d="M8.036 2.114l.004-.01a.32.32 0 0 1 .56 0v.002l2.692 4.846C9 7.057 7.135 7.528 6.319 8.428c-1.43 1.567.49 2.78.972 4.116.435 1.204-.295 2.676-1.721 3.456H.32l4.12-7.365 3.596-6.52zm2.46.777l-.777-1.41a1.6 1.6 0 0 0-2.798 0l-.782 1.41h-2.3a.64.64 0 0 0-.64.64V8.19L.32 13.379V16 .64A.64.64 0 0 1 .96 0h14.72a.64.64 0 0 1 .64.64V16v-2.54l-2.88-5.227V3.531a.64.64 0 0 0-.64-.64h-2.305zM16.32 16h-2.88c0-2.629-2.721-4.1-4.047-5.378C8.208 9.475 8.195 8.04 11.54 7.4l4.78 8.6z"/>
    </defs>
    <g fill="none" fill-rule="evenodd" transform="translate(-.32)">
        <mask id="b" fill="#fff">
            <use xlink:href="#a"/>
        </mask>
        <use fill="#000" xlink:href="#a"/>
        <g fill="#FFF" mask="url(#b)">
            <path d="M.32 0h15.616v15.616H.32z"/>
        </g>
    </g>
</svg>
