<svg xmlns="http://www.w3.org/2000/svg" xmlns:xlink="http://www.w3.org/1999/xlink" width="24" height="24" viewBox="0 0 24 24">
    <defs>
        <path id="a" d="M16.65 10.488c-2.28-4.989-3.466-6.884-7.192-6.806-1.326.028-1.008-.977-2.02-.595-1.01.38-.144.94-1.178 1.802C3.36 7.311 3.626 9.552 4.973 14.894c.567 2.249-1.368 2.36-.602 4.54.558 1.59 4.678 2.256 9.025.617 4.347-1.64 7.09-4.896 6.532-6.484-.767-2.183-2.318-.978-3.278-3.08zm-3.727 8.219c-3.882 1.465-7.073.602-7.208.22-.231-.66 1.253-2.864 5.692-4.538 4.439-1.675 6.915-1.053 7.174-.316.153.435-1.776 3.17-5.658 4.634zm-1.247-3.554c-2.03.766-3.44 1.642-4.353 2.431.642.594 1.846.739 3.046.286 1.527-.576 2.465-1.9 2.093-2.954-.004-.013-.01-.024-.016-.037-.248.083-.506.175-.77.274z"/>
    </defs>
    <g fill="none" fill-rule="evenodd">
        <path d="M0 0h24v24H0z"/>
        <mask id="b" fill="#fff">
            <use xlink:href="#a"/>
        </mask>
        <g fill="#32377D" mask="url(#b)">
            <path d="M0 0h24v24H0z"/>
        </g>
    </g>
</svg>
