<svg xmlns="http://www.w3.org/2000/svg" xmlns:xlink="http://www.w3.org/1999/xlink" width="24" height="24" viewBox="0 0 24 24">
    <defs>
        <path id="a" d="M11 6V5h2v4h-2V8H3V6h8zm5 5v-1h2v4h-2v-1H3v-2h13zM6 16v-1h2v4H6v-1H3v-2h3zm8-8V6h7v2h-7zm5 5v-2h2v2h-2zM9 18v-2h12v2H9z"/>
    </defs>
    <g fill="none" fill-rule="evenodd">
        <path d="M0 0h24v24H0z"/>
        <mask id="b" fill="#fff">
            <use xlink:href="#a"/>
        </mask>
        <g fill="#32377D" mask="url(#b)">
            <path d="M0 0h24v24H0z"/>
        </g>
    </g>
</svg>
