<svg xmlns="http://www.w3.org/2000/svg" xmlns:xlink="http://www.w3.org/1999/xlink" width="24" height="24" viewBox="0 0 24 24">
    <defs>
        <path id="a" d="M19.125 8.846L17.08 3.508a.792.792 0 0 0-.989-.466L2.493 7.743a.731.731 0 0 0-.443.96l2.157 5.63v-3.017c0-1.362 1.15-2.469 2.561-2.469h3.593l4.286-2.85 2.48 2.85h1.998zm2.113 1.71a.76.76 0 0 1 .762.759v8.925c0 .42-.34.76-.762.76H6.768a.76.76 0 0 1-.762-.76v-8.925c0-.42.34-.76.761-.76h14.471zm-10.929 4.05A.498.498 0 0 0 10 14.5h-.5a.5.5 0 1 0 0 1v4c0 .275.225.5.5.5h.5c.275 0 .5-.225.5-.5V19h6v.5c0 .275.225.5.5.5h.5c.275 0 .5-.225.5-.5v-4a.5.5 0 1 0 0-1H18a.498.498 0 0 0-.308.106l-.732-2.101a.747.747 0 0 0-.71-.505h-4.5c-.33 0-.605.21-.71.505l-.731 2.102zm.941 2.894a.749.749 0 1 1 0-1.5.749.749 0 1 1 0 1.5zm5.5 0a.749.749 0 1 1 0-1.5.749.749 0 1 1 0 1.5zM11 15l.75-2.25h4.5L17 15h-6z"/>
    </defs>
    <g fill="none" fill-rule="evenodd">
        <path d="M0 0h24v24H0z"/>
        <mask id="b" fill="#fff">
            <use xlink:href="#a"/>
        </mask>
        <use fill="#000" xlink:href="#a"/>
        <g fill="#32377D" mask="url(#b)">
            <path d="M0 0h24v24H0z"/>
        </g>
    </g>
</svg>
