<svg xmlns="http://www.w3.org/2000/svg" xmlns:xlink="http://www.w3.org/1999/xlink" width="24" height="24" viewBox="0 0 24 24">
    <defs>
        <path id="a" d="M11.3 20.651v-8.46L4.643 8.285v8.398L11.3 20.65zm1.644-.155l6.413-3.814V8.428l-6.413 3.763v8.305zm1.184-16.288l-2.137-1.27-6.534 3.894 2.49 1.461 6.181-4.085zm1.588.945L9.544 9.23l2.578 1.512 6.541-3.838-2.947-1.752zM21 7.496v9.008a2 2 0 0 1-.978 1.719l-7.008 4.168a2 2 0 0 1-2.047 0l-6.991-4.168A2 2 0 0 1 3 16.505v-9.01a2 2 0 0 1 .976-1.718l6.991-4.167a2 2 0 0 1 2.047-.001l7.008 4.168A2 2 0 0 1 21 7.497z"/>
    </defs>
    <g fill="none" fill-rule="evenodd">
        <path d="M0 0h24v24H0z"/>
        <mask id="b" fill="#fff">
            <use xlink:href="#a"/>
        </mask>
        <g fill="#32377D" mask="url(#b)">
            <path d="M0 0h24v24H0z"/>
        </g>
    </g>
</svg>
