<svg xmlns="http://www.w3.org/2000/svg" xmlns:xlink="http://www.w3.org/1999/xlink" width="51" height="50" viewBox="0 0 51 50">
    <defs>
        <path id="a" d="M25.615 6.607l.013-.034c.023-.039.047-.076.073-.11a1 1 0 0 1 1.71.11l.004.008 8.578 15.143c-7.306.328-13.252 1.8-15.852 4.613-4.558 4.896 1.563 8.69 3.098 12.864 1.386 3.762-.94 8.362-5.486 10.799H1.02l13.13-23.017L25.615 6.607zm7.84 2.428l-2.477-4.404a5.051 5.051 0 0 0-1.981-1.943c-2.462-1.34-5.567-.471-6.935 1.943l-2.493 4.404h-7.37a2 2 0 0 0-2 2V25.59L1.02 41.807V50L1.019 2a2 2 0 0 1 2-2h46.999a2 2 0 0 1 2 2v40.06L42.84 25.73V11.035a2 2 0 0 0-2-2h-7.385zM52.018 50H44.88l-.004-.01.003.01h7.14zm.001 0h-9.181c0-8.216-8.674-12.813-12.899-16.806-3.779-3.585-3.82-8.073 6.844-10.069L52.02 50z"/>
    </defs>
    <g fill="none" fill-rule="evenodd" transform="translate(-1.02)">
        <mask id="b" fill="#FFFFFF">
            <use xlink:href="#a"/>
        </mask>
        <use fill="#FFF" xlink:href="#a"/>
        <g fill="#FFF" mask="url(#b)">
            <path d="M1.02 0h51v51h-51z"/>
        </g>
    </g>
</svg>
