<svg xmlns="http://www.w3.org/2000/svg" xmlns:xlink="http://www.w3.org/1999/xlink" width="24" height="24" viewBox="0 0 24 24">
    <defs>
        <path id="a" d="M5.91 10.043l1.016 9.101C6.982 19.577 9.032 20.997 12 21c2.969-.003 5.02-1.423 5.075-1.856l1.015-9.101c-1.55.883-3.869 1.3-6.09 1.3-2.221 0-4.54-.418-6.09-1.3zm9.008-5.626l-.792-.892C13.821 3.082 13.49 3 12.844 3h-1.686c-.645 0-.977.082-1.282.525l-.792.892C6.716 4.837 5 5.954 5 6.777v.16c0 1.45 3.134 2.625 7 2.625s7-1.175 7-2.625v-.16c0-.823-1.715-1.938-4.082-2.36zm-1.01 2.088L12.754 5.25h-1.505l-1.153 1.255H8.53s1.716-2.08 1.945-2.363c.175-.217.353-.297.586-.297h1.88c.233 0 .411.081.588.297.228.282 1.944 2.363 1.944 2.363h-1.565z"/>
    </defs>
    <g fill="none" fill-rule="evenodd">
        <path d="M0 0h24v24H0z"/>
        <mask id="b" fill="#fff">
            <use xlink:href="#a"/>
        </mask>
        <g fill="#32377D" mask="url(#b)">
            <path d="M0 0h24v24H0z"/>
        </g>
    </g>
</svg>
