<svg xmlns="http://www.w3.org/2000/svg" xmlns:xlink="http://www.w3.org/1999/xlink" width="24" height="24" viewBox="0 0 24 24">
    <defs>
        <path id="a" d="M5.25 8.05C5.402 7.428 5.88 7 6.425 7h2.137v8h-2.14v-4.728h-.153L5.047 15h-1.53l-1.225-4.728H2.14V15H0V7h2.137c.547 0 1.025.428 1.178 1.05l.89 3.675h.153L5.25 8.05zM17.097 15v-4.2h6.79c-.373 1.072-1.338 1.834-2.471 1.834H19.25V15h-2.153zm-3.814-7.156c.2-.513.633-.844 1.112-.844h1.816v8h-2.14v-4.725h-.152l-1.506 3.881c-.2.513-.634.844-1.112.844H9.484V7h2.14v4.728h.153l1.506-3.884zM21.629 7c.618 0 1.178.281 1.6.744.474.512.771 1.25.771 2.072 0 .168-.016.334-.04.496h-3.974c-1.346 0-2.487-1.05-2.87-2.5-.006-.015-.008-.034-.014-.053-.01-.043-.018-.09-.029-.134A4.379 4.379 0 0 1 16.997 7h4.632z"/>
    </defs>
    <g fill="none" fill-rule="evenodd">
        <path d="M0 0h24v24H0z"/>
        <mask id="b" fill="#fff">
            <use xlink:href="#a"/>
        </mask>
        <g fill="#32377D" mask="url(#b)">
            <path d="M0 0h24v24H0z"/>
        </g>
    </g>
</svg>
