<svg xmlns="http://www.w3.org/2000/svg" xmlns:xlink="http://www.w3.org/1999/xlink" width="24" height="24" viewBox="0 0 24 24">
    <defs>
        <path id="a" d="M5.602 18.957h-.36v-.947c0-.288-.117-.448-.36-.448-.237 0-.402.156-.402.452v.943h-.36v-.947c0-.288-.12-.448-.358-.448-.244 0-.402.156-.402.452v.943H3v-1.702h.357v.21a.537.537 0 0 1 .48-.252c.251 0 .43.114.543.302a.628.628 0 0 1 .577-.302c.398.003.645.274.645.676v1.068zm2.012-.85v.85h-.357v-.206A.614.614 0 0 1 6.74 19c-.46 0-.82-.374-.82-.894s.36-.893.82-.893c.233 0 .405.096.518.249v-.207h.357v.851zM8.672 19c-.268 0-.515-.071-.711-.22l.168-.29c.12.097.299.179.546.179.244 0 .374-.075.374-.207 0-.096-.092-.15-.288-.178l-.168-.025c-.368-.053-.567-.224-.567-.502 0-.338.268-.544.683-.544.261 0 .498.06.67.178l-.155.299a1.03 1.03 0 0 0-.511-.146c-.196 0-.313.075-.313.2 0 .113.124.145.278.167l.169.024c.357.054.573.21.573.51 0 .324-.275.555-.748.555zm1.891 0c-.422 0-.57-.235-.57-.63v-.776H9.66v-.339h.333v-.516h.36v.516h.584v.339h-.583v.769c0 .17.058.285.237.285.092 0 .21-.033.316-.097l.103.317a.817.817 0 0 1-.447.132zm2.26-.751h-1.22c.052.306.261.416.491.416.165 0 .34-.064.478-.178l.175.274a.975.975 0 0 1-.673.239c-.491 0-.841-.352-.841-.894 0-.53.336-.893.817-.893.46 0 .776.363.78.893 0 .05-.004.096-.008.143zm1.304-.641a.563.563 0 0 0-.223-.043c-.234 0-.35.157-.35.438v.954h-.358v-1.702h.354v.207a.48.48 0 0 1 .433-.25c.072 0 .175.015.254.047l-.11.349zm1.081 1.043a.705.705 0 0 0 .43-.153l.171.299a.84.84 0 0 1-.59.203c-.53 0-.876-.377-.876-.894 0-.516.347-.893.876-.893a.84.84 0 0 1 .59.203l-.172.299a.705.705 0 0 0-.429-.153c-.285.003-.494.217-.494.544 0 .328.21.542.494.545zm2.479-.545v.851h-.357v-.206a.614.614 0 0 1-.518.249c-.46 0-.82-.374-.82-.894s.36-.893.82-.893c.233 0 .405.096.518.249v-.207h.357v.851zm1.4-.498a.564.564 0 0 0-.222-.043c-.234 0-.35.157-.35.438v.954h-.358v-1.702h.354v.207a.48.48 0 0 1 .433-.25c.072 0 .175.015.254.047l-.11.349zm1.913.498v.851h-.357v-.206a.614.614 0 0 1-.518.249c-.46 0-.821-.374-.821-.894s.36-.893.82-.893c.234 0 .406.096.519.249v-.89H21v1.534zm-5.344-2.023c-1.417 0-2.699-.584-3.656-1.521-.957.937-2.24 1.521-3.656 1.521C5.397 16.083 3 13.597 3 10.542 3 7.486 5.397 5 8.344 5 9.76 5 11.043 5.585 12 6.522 12.957 5.585 14.24 5 15.656 5 18.603 5 21 7.486 21 10.542c0 3.055-2.397 5.541-5.344 5.541zM12 6.522a5.61 5.61 0 0 0-1.688 4.02A5.61 5.61 0 0 0 12 14.562a5.61 5.61 0 0 0 1.688-4.02A5.61 5.61 0 0 0 12 6.522zm8.17 11.04c-.31 0-.499.245-.499.544 0 .3.19.545.498.545.295 0 .495-.235.495-.545 0-.31-.2-.544-.495-.544zm-3.314 0c-.309 0-.498.245-.498.544 0 .3.19.545.498.545.295 0 .495-.235.495-.545 0-.31-.2-.544-.495-.544zm-10.073 0c-.309 0-.497.245-.497.544 0 .3.188.545.497.545.296 0 .495-.235.495-.545 0-.31-.2-.544-.495-.544zm5.26-.018c-.254 0-.398.167-.436.413h.851c-.037-.264-.185-.413-.415-.413z"/>
    </defs>
    <g fill="none" fill-rule="evenodd">
        <path d="M0 0h24v24H0z"/>
        <mask id="b" fill="#fff">
            <use xlink:href="#a"/>
        </mask>
        <g fill="#32377D" mask="url(#b)">
            <path d="M0 0h24v24H0z"/>
        </g>
    </g>
</svg>
