<svg xmlns="http://www.w3.org/2000/svg" xmlns:xlink="http://www.w3.org/1999/xlink" width="24" height="24" viewBox="0 0 24 24">
    <defs>
        <path id="a" d="M9.996 7.154h1.93l-1.584 7.795h-1.98l1.634-7.795zm-2.87 0v-.051h2.029l-3.167 7.794H3.909L2.375 8.692c-.099-.359-.148-.513-.445-.666C1.435 7.769.693 7.513 0 7.359l.05-.205h3.315c.396 0 .792.256.89.77l.842 4.512 2.029-5.282zm15.39 0L24 14.949h-1.781l-.248-1.18h-2.474l-.396 1.18h-2.029l2.92-7.231a.866.866 0 0 1 .841-.564h1.682zm-2.376 5.025h1.633l-.594-2.923-1.039 2.923zM14.5 9.308c-.05.923 2.722 1.077 2.722 3.025 0 1.641-1.336 2.667-3.365 2.667-.891 0-1.732-.205-2.178-.41l.347-1.693c.445.257.99.513 1.98.513.593 0 1.187-.256 1.187-.769 0-.359-.248-.615-.99-.974-.693-.36-1.682-.975-1.682-2.103C12.52 8.077 13.856 7 15.786 7c.742 0 1.385.205 1.83.359L17.27 9c-.89-.41-1.633-.41-1.93-.359-.594.103-.841.41-.841.667z"/>
    </defs>
    <g fill="none" fill-rule="evenodd">
        <path d="M0 0h24v24H0z"/>
        <mask id="b" fill="#fff">
            <use xlink:href="#a"/>
        </mask>
        <g fill="#32377D" mask="url(#b)">
            <path d="M0 0h24v24H0z"/>
        </g>
    </g>
</svg>
