<svg xmlns="http://www.w3.org/2000/svg" xmlns:xlink="http://www.w3.org/1999/xlink" width="24" height="24" viewBox="0 0 24 24">
    <defs>
        <path id="a" d="M11.998 1c4.97 0 8.998 3.899 8.998 8.708 0 0 .044.62-.17 1.671-.012.061-.026.122-.04.183-.534 2.414-2.392 6.87-8.783 11.433l-.001.005h-.004l-.002-.005c-6.304-4.501-8.198-8.9-8.76-11.335a9.438 9.438 0 0 1-.183-1.027c-.003-.016-.006-.031-.007-.047a5.71 5.71 0 0 1-.044-.837L3 9.709C3 4.898 7.028 1 11.998 1zm.624 2.357a1.273 1.273 0 0 0-1.257 0L6.643 6.045A1.273 1.273 0 0 0 6 7.15v5.7c0 .457.246.88.643 1.106l4.722 2.686c.39.222.867.222 1.257 0l4.734-2.686c.398-.226.644-.649.644-1.107V7.151c0-.458-.246-.88-.644-1.107zM7.095 7.636l4.438 2.485v5.384L7.095 12.98V7.636zm9.809.091v5.253l-4.275 2.426v-5.285l4.275-2.394zm-2.426-2.085l1.964 1.116-4.36 2.442-1.72-.963 4.116-2.595zm-2.484-1.41l1.425.809-4.122 2.6-1.66-.93 4.357-2.478z"/>
    </defs>
    <g fill="none" fill-rule="evenodd">
        <path d="M0 0h24v24H0z"/>
        <mask id="b" fill="#fff">
            <use xlink:href="#a"/>
        </mask>
        <g fill="#ffffff" mask="url(#b)">
            <path d="M0 0h24v24H0z"/>
        </g>
    </g>
</svg>
