<?xml version="1.0" encoding="UTF-8"?>
<svg width="24px" height="24px" viewBox="0 0 24 24" version="1.1" xmlns="http://www.w3.org/2000/svg" xmlns:xlink="http://www.w3.org/1999/xlink">
    <!-- Generator: sketchtool 52 (66869) - http://www.bohemiancoding.com/sketch -->
    <title>1AFE3FAD-BAC7-4761-841B-39EBBF4DB9CE</title>
    <desc>Created with sketchtool.</desc>
    <defs>
        <path d="M12.3071409,5.09976434 C12.1079055,5.69692325 12,6.33586029 12,7 C12,9.33421618 13.332928,11.3571103 15.2791524,12.349051 L8.54710735,14.2724722 C7.57847483,14.5502188 7.6027159,15.0006733 8.75214634,14.9996633 L20,14.9996633 L20,16.499495 C20,16.7196723 19.8202121,16.8994501 19.6000224,16.8994501 L17.0001683,16.8994501 L6.99971943,16.8994501 L6.49974749,16.8994501 C6.27955783,16.8994501 6.09976993,16.7196723 6.09976993,16.499495 L6.09976993,14.9996633 L5.91089164,14.0563349 L3.94332529,4.99977556 L2,4.99977556 L2,3.39995511 C2,3.1797778 2.17978789,3 2.39997755,3 L5.4998036,3 C5.71999327,3 5.89978116,3.1797778 5.89978116,3.39995511 L5.89978116,5.09976434 L12.3071409,5.09976434 Z M4.99882161,19.0002244 C4.99882161,17.8952979 5.89372089,17.0004489 6.99870939,17.0004489 C8.10369788,17.0004489 8.99859716,17.8963079 8.99859716,19.0002244 C8.99859716,20.1041409 8.10268784,21 6.99870939,21 C5.89473094,21 4.99882161,20.1051509 4.99882161,19.0002244 Z M15.0002806,19.0002244 C15.0002806,17.8952979 15.8951798,17.0004489 17.0001683,17.0004489 C18.1051568,17.0004489 19.0000561,17.8963079 19.0000561,19.0002244 C19.0000561,20.1041409 18.1051568,21 17.0001683,21 C15.8951798,21 15.0002806,20.1051509 15.0002806,19.0002244 Z M19,5.99962126 L22,5.99962126 L22,7.99936877 L19,7.99936877 L19,11 L17,11 L17,7.99936877 L14,7.99936877 L14,5.99962126 L17,5.99962126 L17,3 L19,3 L19,5.99962126 Z" id="path-1"></path>
    </defs>
    <g id="Symbols" stroke="none" stroke-width="1" fill="none" fill-rule="evenodd">
        <g id="Ic/-Shop/-3">
            <g>
                <rect id="Rectangle" x="0" y="0" width="24" height="24"></rect>
                <mask id="mask-2" fill="white">
                    <use xlink:href="#path-1"></use>
                </mask>
                <g id="Mask"></g>
                <g id="Color/-Prime/-Blueberry" mask="url(#mask-2)" fill="#FFFFFF">
                    <rect id="Blueberry" x="0" y="0" width="24" height="24"></rect>
                </g>
            </g>
        </g>
    </g>
</svg>