<svg xmlns="http://www.w3.org/2000/svg" xmlns:xlink="http://www.w3.org/1999/xlink" width="24" height="24" viewBox="0 0 24 24">
    <defs>
        <path id="a" d="M4.627 8.554c1.73-1.42 3.097-2.542 6.805-.54 1.781.962 3.217 1.325 4.413 1.325 2.095 0 3.451-1.113 4.624-2.077a.949.949 0 0 0 .121-1.36 1.008 1.008 0 0 0-1.396-.118c-1.729 1.42-3.096 2.541-6.805.54-4.898-2.644-7.193-.76-9.037.753a.95.95 0 0 0-.12 1.361c.352.408.977.46 1.395.116zm14.568 2.06c-1.729 1.42-3.096 2.541-6.805.54-4.898-2.644-7.193-.76-9.037.753a.95.95 0 0 0-.12 1.36c.352.41.977.462 1.395.119 1.73-1.42 3.097-2.542 6.805-.54 1.781.961 3.217 1.324 4.413 1.324 2.095 0 3.451-1.113 4.624-2.076a.95.95 0 0 0 .121-1.362 1.008 1.008 0 0 0-1.396-.118zm0 4.83c-1.729 1.42-3.096 2.542-6.805.54-4.898-2.644-7.193-.76-9.037.752a.95.95 0 0 0-.12 1.362c.352.408.977.46 1.395.118 1.73-1.42 3.097-2.542 6.805-.54 1.781.96 3.217 1.324 4.413 1.324 2.095 0 3.451-1.113 4.624-2.076a.95.95 0 0 0 .121-1.362 1.008 1.008 0 0 0-1.396-.117z"/>
    </defs>
    <g fill="none" fill-rule="evenodd">
        <path d="M0 0h24v24H0z"/>
        <mask id="b" fill="#fff">
            <use xlink:href="#a"/>
        </mask>
        <g fill="#000000" mask="url(#b)">
            <path d="M0 0h24v24H0z"/>
        </g>
    </g>
</svg>
