<svg xmlns="http://www.w3.org/2000/svg" xmlns:xlink="http://www.w3.org/1999/xlink" width="24" height="24" viewBox="0 0 24 24">
    <defs>
        <path id="a" d="M11.866 2c-5.522.074-9.939 4.612-9.865 10.134.073 5.52 4.61 9.938 10.133 9.865 5.521-.075 9.939-4.612 9.865-10.133C21.926 6.345 17.39 1.927 11.866 2zm1.109 3.333c1.018 0 1.317.59 1.317 1.264 0 .843-.675 1.623-1.825 1.623-.963 0-1.422-.485-1.396-1.286.001-.674.566-1.601 1.904-1.601zm-2.606 12.916c-.694 0-1.204-.421-.717-2.276l.798-3.287c.138-.527.161-.738 0-.738-.209 0-1.111.364-1.644.722l-.347-.568c1.691-1.412 3.633-2.24 4.466-2.24.695 0 .81.822.464 2.086l-.913 3.457c-.16.61-.092.82.069.82.208 0 .891-.253 1.563-.78l.393.527c-1.644 1.644-3.437 2.277-4.132 2.277z"/>
    </defs>
    <g fill="none" fill-rule="evenodd">
        <path d="M0 0h24v24H0z"/>
        <mask id="b" fill="#fff">
            <use xlink:href="#a"/>
        </mask>
        <g fill="#7125ea" mask="url(#b)">
            <path d="M0 0h24v24H0z"/>
        </g>
    </g>
</svg>
