<svg xmlns="http://www.w3.org/2000/svg" xmlns:xlink="http://www.w3.org/1999/xlink" width="24" height="24" viewBox="0 0 24 24">
    <defs>
        <path id="a" d="M12 22C6.477 22 2 17.523 2 12S6.477 2 12 2s10 4.477 10 10-4.477 10-10 10zm0-7.333a2.667 2.667 0 1 0 0-5.334 2.667 2.667 0 0 0 0 5.334zm0-8a.667.667 0 1 0 0-1.334.667.667 0 0 0 0 1.334zm1.929.36a.667.667 0 1 0 .477-1.244.667.667 0 0 0-.477 1.245zm1.667 1.034a.667.667 0 1 0 .892-.99.667.667 0 0 0-.892.99zm1.176 1.557a.667.667 0 1 0 1.198-.585.667.667 0 0 0-1.198.585zm.538 1.886a.667.667 0 1 0 1.329-.116.667.667 0 0 0-1.329.116zm-.18 1.954a.667.667 0 1 0 1.282.368.667.667 0 0 0-1.282-.368zm-.874 1.757a.667.667 0 1 0 1.065.802.667.667 0 0 0-1.065-.802zm-1.45 1.32a.667.667 0 1 0 .706 1.132.667.667 0 0 0-.707-1.131zm-1.83.708a.667.667 0 1 0 .254 1.31.667.667 0 0 0-.255-1.31zm-1.951 0a.667.667 0 1 0-.255 1.31.667.667 0 0 0 .255-1.31zm-1.83-.707a.667.667 0 1 0-.707 1.13.667.667 0 0 0 .707-1.13zm-1.45-1.321a.667.667 0 1 0-1.066.802.667.667 0 0 0 1.065-.802zm-.875-1.757a.667.667 0 1 0-1.282.368.667.667 0 0 0 1.282-.368zm-.18-1.954a.667.667 0 1 0-1.329-.116.667.667 0 0 0 1.329.116zm.538-1.886a.667.667 0 1 0-1.198-.585.667.667 0 0 0 1.198.585zM8.404 8.06a.667.667 0 1 0-.892-.99.667.667 0 0 0 .892.99zm1.667-1.033a.667.667 0 1 0-.477-1.245.667.667 0 0 0 .477 1.245zm3.161-2.018a.894.894 0 0 1-.723-1.037.894.894 0 0 1 1.035-.727c.485.086.809.55.723 1.037a.894.894 0 0 1-1.035.727zm2.458.926a.897.897 0 0 1-.304-1.229.891.891 0 0 1 1.225-.307.897.897 0 0 1 .304 1.229.891.891 0 0 1-1.225.307zm1.957 1.756a.898.898 0 0 1 .155-1.258.89.89 0 0 1 1.252.154.898.898 0 0 1-.154 1.257.89.89 0 0 1-1.253-.153zm1.187 2.332a.897.897 0 0 1 .612-1.108.89.89 0 0 1 1.104.614.897.897 0 0 1-.613 1.108.89.89 0 0 1-1.103-.614zm.27 2.622a.893.893 0 0 1 1.778.155.893.893 0 0 1-1.778-.155zm-.694 2.543a.892.892 0 1 1 1.604.785.892.892 0 1 1-1.604-.785zm-1.562 2.121a.89.89 0 0 1 1.26.044.898.898 0 0 1-.044 1.265.89.89 0 0 1-1.261-.043.898.898 0 0 1 .045-1.266zm-2.22 1.411a.89.89 0 0 1 1.161.495.898.898 0 0 1-.494 1.166.89.89 0 0 1-1.161-.494.898.898 0 0 1 .494-1.167zm-2.578.511a.896.896 0 1 1 .03 1.791.896.896 0 1 1-.03-1.791zm-2.57-.453a.896.896 0 0 1-.642 1.673.896.896 0 0 1 .641-1.673zm-2.248-1.362c.366.331.395.897.065 1.265a.89.89 0 0 1-1.26.067.898.898 0 0 1-.065-1.264.89.89 0 0 1 1.26-.068zm-1.603-2.085c.223.44.048.98-.391 1.205a.89.89 0 0 1-1.2-.39.898.898 0 0 1 .39-1.206.89.89 0 0 1 1.2.391zm-.743-2.527a.892.892 0 1 1-1.775.188.892.892 0 1 1 1.775-.188zm.218-2.627a.893.893 0 1 1-1.724-.463.893.893 0 1 1 1.724.463zm1.15-2.372a.89.89 0 0 1-1.247.2.897.897 0 0 1-.196-1.252.89.89 0 0 1 1.246-.199c.399.29.487.851.197 1.251zM8.167 6.02a.89.89 0 0 1-1.23-.284.898.898 0 0 1 .285-1.234.89.89 0 0 1 1.23.284c.26.42.133.972-.285 1.234zm2.44-.98a.891.891 0 0 1-1.047-.708.897.897 0 0 1 .707-1.05.891.891 0 0 1 1.046.707.897.897 0 0 1-.707 1.05z"/>
    </defs>
    <g fill="none" fill-rule="evenodd">
        <path d="M0 0h24v24H0z"/>
        <mask id="b" fill="#fff">
            <use xlink:href="#a"/>
        </mask>
        <g fill="#000000" mask="url(#b)">
            <path d="M0 0h24v24H0z"/>
        </g>
    </g>
</svg>
