<svg xmlns="http://www.w3.org/2000/svg" xmlns:xlink="http://www.w3.org/1999/xlink" width="24" height="24" viewBox="0 0 24 24">
    <defs>
        <path id="a" d="M8.428 7.382c2.509-3.15 6.844-4.317 10.559-2.569 4.385 2.063 6.245 7.398 4.155 11.92s-7.339 6.516-11.723 4.453a8.578 8.578 0 0 1-3.173-2.562c.552-.009.9-.085 1.265-.282.325-.176.594-.429.791-.74a6.417 6.417 0 0 0 2.062 1.538c3.289 1.547 7.226.051 8.793-3.34 1.567-3.39.173-7.393-3.116-8.94-2.671-1.257-5.77-.505-7.678 1.64a2.132 2.132 0 0 0-.852-.842c-.322-.174-.633-.254-1.083-.276zM6.15 8.5h1.748A1.111 1.111 0 0 1 8.95 9.962 9.556 9.556 0 0 0 8.444 13c0 1.013.17 2.025.507 3.038A1.111 1.111 0 0 1 7.897 17.5H6.15c-.59 0-1.078-.462-1.11-1.052-.009-.177-.015-.326-.018-.448C4.5 15.5 4 16.5 4 13s.5-2.5 1.022-3c.002-.123.008-.272.018-.448A1.111 1.111 0 0 1 6.15 8.5zM7 11a1 1 0 1 0 0-2 1 1 0 0 0 0 2zm0 6a1 1 0 1 0 0-2 1 1 0 0 0 0 2zm8.111 1.625c-3.068 0-5.555-2.518-5.555-5.625s2.487-5.625 5.555-5.625c3.068 0 5.556 2.518 5.556 5.625s-2.488 5.625-5.556 5.625zm0-3.375c1.227 0 2.222-1.007 2.222-2.25s-.995-2.25-2.222-2.25c-1.227 0-2.222 1.007-2.222 2.25s.995 2.25 2.222 2.25zm0-6.75a.56.56 0 0 0 .556-.563.56.56 0 0 0-.556-.562.56.56 0 0 0-.555.563c0 .31.248.562.555.562zm1.607.304a.553.553 0 0 0 .718-.323.565.565 0 0 0-.32-.727.553.553 0 0 0-.717.324c-.11.29.033.615.32.726zm1.39.873a.55.55 0 0 0 .784-.042.567.567 0 0 0-.04-.794.55.55 0 0 0-.785.041.567.567 0 0 0 .04.795zm.98 1.313c.134.28.467.395.742.259a.566.566 0 0 0 .256-.752.552.552 0 0 0-.743-.26.566.566 0 0 0-.255.753zm.448 1.592c.027.31.297.538.602.511a.56.56 0 0 0 .505-.61.558.558 0 0 0-.602-.51.56.56 0 0 0-.505.609zm-.15 1.648a.564.564 0 0 0 .381.696.555.555 0 0 0 .687-.386.564.564 0 0 0-.38-.695.555.555 0 0 0-.688.385zm-.728 1.482a.567.567 0 0 0 .109.788.551.551 0 0 0 .778-.11.567.567 0 0 0-.11-.788.551.551 0 0 0-.777.11zm-1.21 1.115a.567.567 0 0 0-.176.775.552.552 0 0 0 .766.18.567.567 0 0 0 .176-.776.552.552 0 0 0-.765-.179zm-1.524.597a.562.562 0 0 0-.44.66c.06.305.35.504.652.444a.562.562 0 0 0 .44-.659.556.556 0 0 0-.652-.445zm-1.626 0a.556.556 0 0 0-.651.445.556.556 0 1 0 1.09.215.562.562 0 0 0-.439-.66zm-1.525-.597a.552.552 0 0 0-.765.18.567.567 0 0 0 .177.774c.26.165.602.085.765-.179a.567.567 0 0 0-.177-.775zm-1.208-1.115a.551.551 0 0 0-.778-.11.567.567 0 0 0-.11.787.551.551 0 0 0 .778.111.567.567 0 0 0 .11-.788zm-.729-1.482a.555.555 0 0 0-.687-.385.564.564 0 0 0-.381.695.555.555 0 0 0 .687.386.564.564 0 0 0 .381-.696zm-.15-1.648a.56.56 0 0 0-.505-.61.558.558 0 0 0-.602.512.56.56 0 0 0 .505.61.558.558 0 0 0 .602-.512zm.449-1.592a.566.566 0 0 0-.256-.752.552.552 0 0 0-.743.259.566.566 0 0 0 .256.752c.276.136.608.02.743-.259zm.98-1.313a.567.567 0 0 0 .04-.795.55.55 0 0 0-.784-.041.567.567 0 0 0-.041.794.55.55 0 0 0 .784.042zm1.389-.873a.565.565 0 0 0 .32-.726.553.553 0 0 0-.718-.324.565.565 0 0 0-.32.727c.11.29.432.435.718.323z"/>
    </defs>
    <g fill="none" fill-rule="evenodd" transform="translate(-2 -1)">
        <path d="M2 1h24v24H2z"/>
        <mask id="b" fill="#fff">
            <use xlink:href="#a"/>
        </mask>
        <g fill="#000000" mask="url(#b)">
            <path d="M2 1h24v24H2z"/>
        </g>
    </g>
</svg>
