<svg xmlns="http://www.w3.org/2000/svg" xmlns:xlink="http://www.w3.org/1999/xlink" width="24" height="24" viewBox="0 0 24 24">
    <defs>
        <path id="a" d="M10.11 7.846c-3.466-1.767-4.804-.67-6.483.708a1.007 1.007 0 0 1-1.395-.116.95.95 0 0 1 .12-1.361c1.768-1.451 3.95-3.241 8.44-1.06a5.96 5.96 0 0 0-.681 1.83zm.1 2.735a6.004 6.004 0 0 0 2.01 3.078 13.473 13.473 0 0 1-1.787-.813c-3.708-2.002-5.075-.88-6.805.54a1.007 1.007 0 0 1-1.395-.119.95.95 0 0 1 .12-1.36c1.69-1.387 3.757-3.083 7.857-1.326zm7.985 4.864a1.008 1.008 0 0 1 1.396.117.95.95 0 0 1-.12 1.362C18.296 17.887 16.94 19 14.845 19c-1.196 0-2.632-.363-4.413-1.324-3.708-2.002-5.075-.88-6.805.54a1.008 1.008 0 0 1-1.395-.118.95.95 0 0 1 .12-1.362c1.844-1.512 4.14-3.396 9.037-.751 3.71 2.001 5.076.88 6.805-.54zm-2.684-9.632c2.756-1.625 8.007-.362 7.448-.06-2.394 1.295-2.223 3.952-3.9 5.151-1.262.903-3.043.446-4.072.057 0 0-.697.812-1.199 1.895-.167.363-.902-.037-.773-.344C14.65 8.62 20.22 6.68 20.22 6.68s-3.929-.153-6.555 3.008c-.07-.723-.186-2.675 1.847-3.874z"/>
    </defs>
    <g fill="none" fill-rule="evenodd">
        <path d="M0 0h24v24H0z"/>
        <mask id="b" fill="#fff">
            <use xlink:href="#a"/>
        </mask>
        <g fill="#000000" mask="url(#b)">
            <path d="M0 0h24v24H0z"/>
        </g>
    </g>
</svg>
