<svg xmlns="http://www.w3.org/2000/svg" xmlns:xlink="http://www.w3.org/1999/xlink" width="24" height="24" viewBox="0 0 24 24">
    <defs>
        <path id="a" d="M10.772 13.229c1.584 1.584 3.417 3.096 4.141 2.372 1.038-1.038 1.678-1.942 3.964-.103 2.289 1.84.532 3.065-.473 4.07-1.161 1.16-5.485.06-9.76-4.213-4.273-4.274-5.371-8.598-4.212-9.759 1.006-1.004 2.231-2.762 4.07-.474 1.839 2.287.935 2.927-.103 3.965-.724.725.79 2.558 2.373 4.142z"/>
    </defs>
    <g fill="none" fill-rule="evenodd">
        <path d="M0 0h24v24H0z"/>
        <mask id="b" fill="#fff">
            <use xlink:href="#a"/>
        </mask>
        <g fill="#FFFFFF" mask="url(#b)">
            <path d="M0 0h24v24H0z"/>
        </g>
    </g>
</svg>
