<?xml version="1.0" encoding="UTF-8"?>
<svg width="24px" height="24px" viewBox="0 0 24 24" version="1.1" xmlns="http://www.w3.org/2000/svg" xmlns:xlink="http://www.w3.org/1999/xlink">
    <!-- Generator: sketchtool 52 (66869) - http://www.bohemiancoding.com/sketch -->
    <title>978B4B9D-2475-4391-9CEB-30634E93A97B</title>
    <desc>Created with sketchtool.</desc>
    <defs>
        <path d="M4.6180296,9.2137915 L6.08,5.01 C6.29,4.42 6.84,4 7.5,4 L16.5,4 C17.16,4 17.72,4.42 17.92,5.01 L19.3835651,9.21253877 C19.553421,9.0793866 19.7674396,9 20,9 L21,9 C21.5522847,9 22,9.44771525 22,10 C22,10.5522847 21.5522847,11 21,11 L21,19 C21,19.55 20.55,20 20,20 L19,20 C18.45,20 18,19.55 18,19 L18,18 L6,18 L6,19 C6,19.55 5.55,20 5,20 L4,20 C3.45,20 3,19.55 3,19 L3,11 C2.44771525,11 2,10.5522847 2,10 C2,9.44771525 2.44771525,9 3,9 L4,9 C4.23328878,9 4.44791949,9.07988468 4.6180296,9.2137915 Z M6.5,15 C7.33,15 8,14.33 8,13.5 C8,12.67 7.33,12 6.5,12 C5.67,12 5,12.67 5,13.5 C5,14.33 5.67,15 6.5,15 Z M17.5,15 C18.33,15 19,14.33 19,13.5 C19,12.67 18.33,12 17.5,12 C16.67,12 16,12.67 16,13.5 C16,14.33 16.67,15 17.5,15 Z M6,10 L18,10 L16.5,5.5 L7.5,5.5 L6,10 Z" id="path-1"></path>
    </defs>
    <g id="Symbols" stroke="none" stroke-width="1" fill="none" fill-rule="evenodd">
        <g id="Ic/-Car/-1">
            <g id="Group">
                <rect id="Rectangle" x="0" y="0" width="24" height="24"></rect>
                <mask id="mask-2" fill="white">
                    <use xlink:href="#path-1"></use>
                </mask>
                <g id="Mask" fill-rule="nonzero"></g>
                <g id="Color/-Prime/-Blueberry" mask="url(#mask-2)" fill="#FFFFFF">
                    <rect id="Blueberry" x="0" y="0" width="24" height="24"></rect>
                </g>
            </g>
        </g>
    </g>
</svg>