<svg xmlns="http://www.w3.org/2000/svg" xmlns:xlink="http://www.w3.org/1999/xlink" width="24" height="24" viewBox="0 0 24 24">
    <defs>
        <path id="a" d="M4.618 9.214L6.08 5.01C6.29 4.42 6.84 4 7.5 4h9c.66 0 1.22.42 1.42 1.01l1.464 4.203A.996.996 0 0 1 20 9h1a1 1 0 0 1 0 2v8c0 .55-.45 1-1 1h-1c-.55 0-1-.45-1-1v-1H6v1c0 .55-.45 1-1 1H4c-.55 0-1-.45-1-1v-8a1 1 0 0 1 0-2h1c.233 0 .448.08.618.214zM6.5 15c.83 0 1.5-.67 1.5-1.5S7.33 12 6.5 12 5 12.67 5 13.5 5.67 15 6.5 15zm11 0c.83 0 1.5-.67 1.5-1.5s-.67-1.5-1.5-1.5-1.5.67-1.5 1.5.67 1.5 1.5 1.5zM6 10h12l-1.5-4.5h-9L6 10z"/>
    </defs>
    <g fill="none" fill-rule="evenodd">
        <path d="M0 0h24v24H0z"/>
        <mask id="b" fill="#fff">
            <use xlink:href="#a"/>
        </mask>
        <g fill="#000000" mask="url(#b)">
            <path d="M0 0h24v24H0z"/>
        </g>
    </g>
</svg>
