<?xml version="1.0" encoding="UTF-8"?>
<svg width="24px" height="24px" viewBox="0 0 24 24" version="1.1" xmlns="http://www.w3.org/2000/svg" xmlns:xlink="http://www.w3.org/1999/xlink">
    <!-- Generator: sketchtool 52 (66869) - http://www.bohemiancoding.com/sketch -->
    <title>B6452A09-3BD0-4070-B277-C7BC0B852BE0</title>
    <desc>Created with sketchtool.</desc>
    <defs>
        <path d="M5.99882161,19.0002244 C5.99882161,20.1051509 6.89473094,21 7.99870939,21 C9.10268784,21 9.99859716,20.1041409 9.99859716,19.0002244 C9.99859716,17.8963079 9.10369788,17.0004489 7.99870939,17.0004489 C6.89372089,17.0004489 5.99882161,17.8952979 5.99882161,19.0002244 L5.99882161,19.0002244 Z M16.0002806,19.0002244 C16.0002806,20.1051509 16.8951798,21 18.0001683,21 C19.1051568,21 20.0000561,20.1041409 20.0000561,19.0002244 C20.0000561,17.8963079 19.1051568,17.0004489 18.0001683,17.0004489 C16.8951798,17.0004489 16.0002806,17.8952979 16.0002806,19.0002244 L16.0002806,19.0002244 Z M9.54710735,14.2724722 L20.6151731,11.1102009 C20.8272824,11.0485916 21,10.8203344 21,10.6001571 L21,5.09976434 L6.89978116,5.09976434 L6.89978116,3.39995511 C6.89978116,3.1797778 6.71999327,3 6.4998036,3 L3.39997755,3 C3.17978789,3 3,3.1797778 3,3.39995511 L3,4.99977556 L4.94332529,4.99977556 L6.91089164,14.0563349 L7.09976993,14.9996633 L7.09976993,16.499495 C7.09976993,16.7196723 7.27955783,16.8994501 7.49974749,16.8994501 L7.99971943,16.8994501 L18.0001683,16.8994501 L20.6000224,16.8994501 C20.8202121,16.8994501 21,16.7196723 21,16.499495 L21,14.9996633 L9.75214634,14.9996633 C8.6027159,15.0006733 8.57847483,14.5502188 9.54710735,14.2724722 L9.54710735,14.2724722 Z" id="path-1"></path>
    </defs>
    <g id="Symbols" stroke="none" stroke-width="1" fill="none" fill-rule="evenodd">
        <g id="Ic/-Shop/-2">
            <g>
                <rect id="Rectangle" x="0" y="0" width="24" height="24"></rect>
                <mask id="mask-2" fill="white">
                    <use xlink:href="#path-1"></use>
                </mask>
                <g id="Mask"></g>
                <g id="Color/-Prime/-Blueberry" mask="url(#mask-2)" fill="#FFFFFF">
                    <rect id="Blueberry" x="0" y="0" width="24" height="24"></rect>
                </g>
            </g>
        </g>
    </g>
</svg>