<?xml version="1.0" encoding="UTF-8"?>
<svg width="24px" height="24px" viewBox="0 0 24 24" version="1.1" xmlns="http://www.w3.org/2000/svg" xmlns:xlink="http://www.w3.org/1999/xlink">
    <!-- Generator: sketchtool 52 (66869) - http://www.bohemiancoding.com/sketch -->
    <title>8B098959-8BF7-4737-B6AD-0D204FD7DAB6</title>
    <desc>Created with sketchtool.</desc>
    <defs>
        <path d="M6.66666667,16 C7.403367,16 8,16.6712121 8,17.5 C8,18.3287879 7.403367,19 6.66666667,19 L5.33333333,19 C4.596633,19 4,18.3287879 4,17.5 C4,16.6712121 4.596633,16 5.33333333,16 L6.66666667,16 Z M18.8890136,16 C19.5028616,16 20,16.6712121 20,17.5 C20,18.3287879 19.5028616,19 18.8890136,19 L11.1109864,19 C10.4971384,19 10,18.3287879 10,17.5 C10,16.6712121 10.4971384,16 11.1109864,16 L18.8890136,16 Z M6.66666667,11 C7.403367,11 8,11.6712121 8,12.5 C8,13.3287879 7.403367,14 6.66666667,14 L5.33333333,14 C4.596633,14 4,13.3287879 4,12.5 C4,11.6712121 4.596633,11 5.33333333,11 L6.66666667,11 Z M18.8890136,11 C19.5028616,11 20,11.6712121 20,12.5 C20,13.3287879 19.5028616,14 18.8890136,14 L11.1109864,14 C10.4971384,14 10,13.3287879 10,12.5 C10,11.6712121 10.4971384,11 11.1109864,11 L18.8890136,11 Z M6.66666667,6 C7.403367,6 8,6.67121212 8,7.5 C8,8.32878788 7.403367,9 6.66666667,9 L5.33333333,9 C4.596633,9 4,8.32878788 4,7.5 C4,6.67121212 4.596633,6 5.33333333,6 L6.66666667,6 Z M18.8890136,6 C19.5028616,6 20,6.67121212 20,7.5 C20,8.32878788 19.5028616,9 18.8890136,9 L11.1109864,9 C10.4971384,9 10,8.32878788 10,7.5 C10,6.67121212 10.4971384,6 11.1109864,6 L18.8890136,6 Z" id="path-1"></path>
    </defs>
    <g id="Symbols" stroke="none" stroke-width="1" fill="none" fill-rule="evenodd">
        <g id="Ic/-Menu/-8">
            <g>
                <rect id="Rectangle" x="0" y="0" width="24" height="24"></rect>
                <mask id="mask-2" fill="white">
                    <use xlink:href="#path-1"></use>
                </mask>
                <g id="Mask"></g>
                <g id="Color/-Prime/-Blueberry" mask="url(#mask-2)" fill="#FFFFFF">
                    <rect id="Blueberry" x="0" y="0" width="24" height="24"></rect>
                </g>
            </g>
        </g>
    </g>
</svg>