<?xml version="1.0" encoding="UTF-8"?>
<svg width="24px" height="24px" viewBox="0 0 24 24" version="1.1" xmlns="http://www.w3.org/2000/svg" xmlns:xlink="http://www.w3.org/1999/xlink">
    <!-- Generator: sketchtool 52 (66869) - http://www.bohemiancoding.com/sketch -->
    <title>A32E3065-8F29-4681-AA32-AF57955C0FC4</title>
    <desc>Created with sketchtool.</desc>
    <defs>
        <path d="M6.13315377,4 C4.66661055,4 4,4.66655445 4,6.13297425 L4,8.53257027 C4,9.99899007 4.66661055,10.6655445 6.13315377,10.6655445 L8.53295177,10.6655445 C9.99949499,10.6655445 10.6661055,9.99899007 10.6661055,8.53257027 L10.6661055,6.13297425 C10.6661055,4.66655445 9.99949499,4 8.53295177,4 L6.13315377,4 Z M17.8668462,4 L15.4670482,4 C14.000505,4 13.3338945,4.66655445 13.3338945,6.13297425 L13.3338945,8.53257027 C13.3338945,9.99899007 14.000505,10.6655445 15.4670482,10.6655445 L17.8668462,10.6655445 C19.3333894,10.6655445 20,9.99899007 20,8.53257027 L20,6.13297425 C20,4.66655445 19.3333894,4 17.8668462,4 L17.8668462,4 Z M8.53295177,13.3331089 L6.13315377,13.3331089 C4.66661055,13.3331089 4,13.9996634 4,15.4660832 L4,17.8656792 C4,19.3334455 4.66661055,20 6.13315377,20 L8.53295177,20 C9.99949499,20 10.6661055,19.3334455 10.6661055,17.8656792 L10.6661055,15.4660832 C10.6661055,13.9996634 9.99949499,13.3331089 8.53295177,13.3331089 L8.53295177,13.3331089 Z M17.8668462,13.3331089 L15.4670482,13.3331089 C14.000505,13.3331089 13.3338945,13.9996634 13.3338945,15.4660832 L13.3338945,17.8656792 C13.3338945,19.3334455 14.000505,20 15.4670482,20 L17.8668462,20 C19.3333894,20 20,19.3334455 20,17.8656792 L20,15.4660832 C20,13.9996634 19.3333894,13.3331089 17.8668462,13.3331089 L17.8668462,13.3331089 Z" id="path-1"></path>
    </defs>
    <g id="Symbols" stroke="none" stroke-width="1" fill="none" fill-rule="evenodd">
        <g id="Ic/-Menu/-7">
            <g>
                <rect id="Rectangle" x="0" y="0" width="24" height="24"></rect>
                <mask id="mask-2" fill="white">
                    <use xlink:href="#path-1"></use>
                </mask>
                <g id="Mask"></g>
                <g id="Color/-Prime/-Blueberry" mask="url(#mask-2)" fill="#FFFFFF">
                    <rect id="Blueberry" x="0" y="0" width="24" height="24"></rect>
                </g>
            </g>
        </g>
    </g>
</svg>