<svg xmlns="http://www.w3.org/2000/svg" xmlns:xlink="http://www.w3.org/1999/xlink" width="24" height="24" viewBox="0 0 24 24">
    <defs>
        <path id="a" d="M21.977 14.39c-.008-.045-.01-.093-.027-.135l-3.816-9.28c-.004-.01-.012-.016-.016-.026-.017-.036-.04-.065-.063-.096-.018-.027-.031-.057-.054-.08-.01-.01-.02-.017-.03-.026-.027-.024-.058-.04-.088-.06-.016-.01-.03-.022-.047-.03-.012-.007-.02-.018-.033-.024h-.002c-.011-.005-.023-.006-.035-.01-.031-.012-.065-.014-.099-.02-.046-.01-.091-.018-.14-.016-.009 0-.018-.004-.027-.003l-4.002.395C13.228 4.402 12.66 4 12 4c-.773 0-1.418.548-1.606 1.285l-4.012.396c-.03.003-.054.018-.082.025-.033.008-.067.01-.097.023-.004.001-.007 0-.01.002-.009.004-.014.012-.022.016-.034.017-.062.04-.092.064-.027.02-.055.034-.078.058-.01.01-.016.02-.025.029-.025.03-.042.065-.062.099-.014.025-.035.043-.047.07l-3.816 9.092v.003c-.014.033-.014.072-.022.107-.011.049-.028.096-.029.144v.002C2 17.943 3.992 20 6.44 20c2.45 0 4.442-2.057 4.442-4.585v-.002c0-.048-.017-.095-.028-.144-.009-.035-.009-.074-.022-.107l-.001-.003-3.475-8.278 3.202-.316c.287.52.822.874 1.442.874.732 0 1.348-.493 1.572-1.171l3.002-.296-3.407 8.283c-.017.042-.018.09-.026.135-.007.04-.023.078-.023.117 0 2.528 1.992 4.584 4.441 4.584S22 17.035 22 14.507c0-.04-.016-.078-.023-.117zm-1.546-.528h-5.744l2.872-6.984 2.872 6.984zM6.44 7.946l2.864 6.824H3.577L6.44 7.946zm0 10.764c-1.546 0-2.836-1.141-3.128-2.65H9.57c-.291 1.509-1.582 2.65-3.128 2.65zM12 6.15a.424.424 0 0 1-.417-.43c0-.237.187-.43.417-.43.23 0 .417.193.417.43 0 .236-.187.43-.417.43zM17.56 17.8c-1.547 0-2.838-1.14-3.13-2.65h6.257c-.292 1.51-1.582 2.65-3.128 2.65z"/>
    </defs>
    <g fill="none" fill-rule="evenodd">
        <path d="M0 0h24v24H0z"/>
        <mask id="b" fill="#fff">
            <use xlink:href="#a"/>
        </mask>
        <g fill="#32377D" mask="url(#b)">
            <path d="M0 0h24v24H0z"/>
        </g>
    </g>
</svg>
