<svg xmlns="http://www.w3.org/2000/svg" xmlns:xlink="http://www.w3.org/1999/xlink" width="24" height="24" viewBox="0 0 24 24">
    <defs>
        <path id="a" d="M21 11h-3.17l2.535-2.535a1 1 0 0 0 .003-1.412l-.003-.003a.997.997 0 0 0-1.413-.002L15 11h-2V9l3.952-3.952a.997.997 0 0 0-.002-1.413l-.003-.003a1 1 0 0 0-1.412.003L13 6.17V3a1 1 0 0 0-2 0v3.17L8.465 3.635a1 1 0 0 0-1.412-.003l-.003.003a.997.997 0 0 0-.002 1.413L11 9v2H9L5.048 7.048a.997.997 0 0 0-1.413.002l-.003.003a1 1 0 0 0 .003 1.412L6.17 11H3a1 1 0 0 0 0 2h3.17l-2.535 2.535a1 1 0 0 0-.003 1.412l.003.003a.997.997 0 0 0 1.413.002L9 13h2v2l-3.952 3.952a.997.997 0 0 0 .002 1.413l.003.003a1 1 0 0 0 1.412-.003L11 17.83V21a1 1 0 0 0 2 0v-3.17l2.535 2.535a1 1 0 0 0 1.412.003l.003-.003a.997.997 0 0 0 .002-1.413L13 15v-2h2l3.952 3.952a.997.997 0 0 0 1.413-.002l.003-.003a1 1 0 0 0-.003-1.412L17.83 13H21a1 1 0 0 0 0-2z"/>
    </defs>
    <g fill="none" fill-rule="evenodd">
        <path d="M0 0h24v24H0z"/>
        <mask id="b" fill="#fff">
            <use xlink:href="#a"/>
        </mask>
        <g fill="#000000" mask="url(#b)">
            <path d="M0 0h24v24H0z"/>
        </g>
    </g>
</svg>
