<svg xmlns="http://www.w3.org/2000/svg" xmlns:xlink="http://www.w3.org/1999/xlink" width="202" height="202" viewBox="0 0 202 202">
    <defs>
        <path id="a" d="M179.48 16.8a5.319 5.319 0 0 1 5.32 5.321v133.89c0 11.242-9.153 20.389-20.395 20.389H22.12a5.319 5.319 0 0 1-5.321-5.321V22.115a5.316 5.316 0 0 1 5.32-5.315zM74.925 122.788l-47.49 38.374v4.602h90.795l-43.305-42.976zm69.49-30.447l-41.966 42.782 30.877 30.641h31.081c5.377 0 9.757-4.373 9.757-9.75V122.79l-29.749-30.45zM27.436 27.43v120.046l44.509-35.953a5.324 5.324 0 0 1 7.094.36l15.86 15.745 45.736-46.611a5.313 5.313 0 0 1 3.794-1.596c1.436 0 2.806.582 3.807 1.608l25.929 26.546V27.436l-146.73-.006zm53.183 67.204v8.665H69.984v-8.665h10.635zM97 83.449l6.122 6.122-7.52 7.521-6.123-6.123 7.52-7.52zm-43.401 0l7.52 7.52-6.122 6.123-7.52-7.52 6.122-6.123zm21.707-34.972c11.455 0 20.773 9.325 20.773 20.787s-9.318 20.793-20.773 20.79c-11.468 0-20.796-9.325-20.796-20.79s9.328-20.787 20.796-20.787zm0 10.633c-5.61 0-10.16 4.557-10.16 10.154 0 5.596 4.55 10.157 10.16 10.154 5.59 0 10.14-4.558 10.14-10.154 0-5.597-4.55-10.154-10.14-10.154zm34.03 4.839v10.636h-8.665V63.949h8.665zm-59.409 0v10.636h-8.658V63.949h8.658zm5.07-22.497l6.12 6.116-7.517 7.525-6.121-6.116 7.517-7.525zm40.604-.006l7.52 7.521-6.122 6.123-7.52-7.52 6.122-6.124zm-14.98-6.211V43.9H69.983v-8.665h10.635z"/>
    </defs>
    <g fill="none" fill-rule="evenodd" opacity=".6">
        <path d="M0 0h201.6v201.6H0z"/>
        <mask id="b" fill="#fff">
            <use xlink:href="#a"/>
        </mask>
        <g fill="#32377D" mask="url(#b)">
            <path d="M0 0h202.158v202.158H0z"/>
        </g>
    </g>
</svg>
