<svg xmlns="http://www.w3.org/2000/svg" xmlns:xlink="http://www.w3.org/1999/xlink" width="24" height="24" viewBox="0 0 24 24">
    <defs>
        <path id="a" d="M6.58 13.64l3.78 3.779 6.932-6.932-3.78-3.78L6.58 13.64zm15.106-5.19l-1.608-1.607a2.154 2.154 0 0 1-2.922-2.92L15.55 2.314a1.08 1.08 0 0 0-1.522 0L2.314 14.026a1.08 1.08 0 0 0 0 1.522l1.608 1.609a2.152 2.152 0 0 1 3.184 1.89c0 .374-.095.725-.263 1.031l1.608 1.608a1.08 1.08 0 0 0 1.522 0L21.686 9.974a1.08 1.08 0 0 0 0-1.523zM10.359 19.148L4.852 13.64l8.662-8.661 5.507 5.507-8.662 8.66z"/>
    </defs>
    <g fill="none" fill-rule="evenodd">
        <path d="M0 0h24v24H0z"/>
        <mask id="b" fill="#fff">
            <use xlink:href="#a"/>
        </mask>
        <g fill="#32377D" mask="url(#b)">
            <path d="M0 0h24v24H0z"/>
        </g>
    </g>
</svg>
