<svg xmlns="http://www.w3.org/2000/svg" xmlns:xlink="http://www.w3.org/1999/xlink" width="24" height="24" viewBox="0 0 24 24">
    <defs>
        <path id="a" d="M7.617 9c.069.425.167.831.293 1.219H6.4l-1.2 3.656h5.533c.103.064.208.125.315.184C12.16 14.67 13.495 15 15 15c.782 0 1.518-.09 2.2-.26v6.447c0 .447-.36.813-.8.813h-.8c-.44 0-.8-.366-.8-.813v-.812H5.2v.813c0 .446-.36.812-.8.812h-.8c-.44 0-.8-.366-.8-.813v-6.5a.8.8 0 0 1-.8-.8v-.024a.8.8 0 0 1 .8-.8h.8c.187 0 .359.064.495.171l1.169-3.413C5.432 9.34 5.872 9 6.4 9h1.217zM5.6 17.938c.664 0 1.2-.545 1.2-1.22 0-.674-.536-1.218-1.2-1.218-.664 0-1.2.544-1.2 1.219 0 .674.536 1.218 1.2 1.218zm8.8 0c.664 0 1.2-.545 1.2-1.22 0-.674-.536-1.218-1.2-1.218-.664 0-1.2.544-1.2 1.219 0 .674.536 1.218 1.2 1.218zm1.912-14.692a4.268 4.268 0 0 1 .956 4.595l4.228 4.23c.679.67.679 1.761 0 2.438a1.727 1.727 0 0 1-2.447 0l-4.254-4.249a4.3 4.3 0 0 1-4.543-.973 4.265 4.265 0 0 1-.824-4.884L11.82 6.79a.647.647 0 0 0 .93 0L13.8 5.744a.653.653 0 0 0 0-.927l-2.394-2.386a4.298 4.298 0 0 1 4.906.815z"/>
    </defs>
    <g fill="none" fill-rule="evenodd">
        <path d="M0 0h24v24H0z"/>
        <mask id="b" fill="#fff">
            <use xlink:href="#a"/>
        </mask>
        <g fill="#000000" mask="url(#b)">
            <path d="M0 0h24v24H0z"/>
        </g>
    </g>
</svg>
