<svg xmlns="http://www.w3.org/2000/svg" xmlns:xlink="http://www.w3.org/1999/xlink" width="24" height="24" viewBox="0 0 24 24">
    <defs>
        <path id="a" d="M11.525 19.13a5 5 0 1 1-8.02-5.705l.507-7.112a4 4 0 0 1 6.673-3.278L19.496 7h.004a2.5 2.5 0 0 1 .7 4.9l-8.675 7.23zm.455-1.68l6.703-5.587a2.501 2.501 0 0 1-.618-4.41l-6.312-2.841A4 4 0 0 1 4.86 8.478l-.297 4.155a5 5 0 0 1 7.417 4.816zM9.917 17c0-.128-.011-.256-.028-.383l.822-.645a.196.196 0 0 0 .045-.25l-.778-1.344a.197.197 0 0 0-.24-.084l-.966.39a2.857 2.857 0 0 0-.655-.384l-.145-1.028a.202.202 0 0 0-.194-.16H6.222a.202.202 0 0 0-.194.166l-.145 1.028a2.98 2.98 0 0 0-.655.383L4.26 14.3a.197.197 0 0 0-.239.083l-.778 1.345a.196.196 0 0 0 .045.25l.822.644c-.017.122-.028.25-.028.378s.011.256.028.383l-.822.645a.196.196 0 0 0-.045.25l.778 1.344c.05.084.15.117.24.084l.966-.39c.2.156.416.284.655.384l.145 1.028c.016.089.1.16.194.16h1.556a.202.202 0 0 0 .194-.166l.145-1.028c.233-.1.455-.227.655-.383l.967.389c.089.033.189 0 .239-.083l.778-1.345a.196.196 0 0 0-.045-.25l-.822-.644c.017-.122.028-.25.028-.378zM7 15.889c.611 0 1.111.5 1.111 1.111s-.5 1.111-1.111 1.111-1.111-.5-1.111-1.111.5-1.111 1.111-1.111zM8 8a2 2 0 1 0 0-4 2 2 0 0 0 0 4z"/>
    </defs>
    <g fill="none" fill-rule="evenodd">
        <path d="M0 0h24v24H0z"/>
        <mask id="b" fill="#fff">
            <use xlink:href="#a"/>
        </mask>
        <g fill="#000000" mask="url(#b)">
            <path d="M0 0h24v24H0z"/>
        </g>
    </g>
</svg>
