<svg xmlns="http://www.w3.org/2000/svg" xmlns:xlink="http://www.w3.org/1999/xlink" width="24" height="24" viewBox="0 0 24 24">
    <defs>
        <path id="a" d="M15.891 6.291c.38-.38 1.02-.38 1.41 0a.996.996 0 0 1 0 1.41l-4.6 4.59a.996.996 0 0 1-1.41 0l-4.59-4.59a.996.996 0 1 1 1.41-1.41l3.89 3.89 3.89-3.89zm2.11 10.71c0 .55-.45 1-1 1h-10c-.55 0-1-.45-1-1s.45-1 1-1h10c.55 0 1 .45 1 1z"/>
    </defs>
    <g fill="none" fill-rule="evenodd">
        <path d="M0 0h24v24H0z"/>
        <mask id="b" fill="#fff">
            <use xlink:href="#a"/>
        </mask>
        <g fill="#000000" mask="url(#b)">
            <path d="M0 0h24v24H0z"/>
        </g>
    </g>
</svg>
