<svg xmlns="http://www.w3.org/2000/svg" xmlns:xlink="http://www.w3.org/1999/xlink" width="24" height="24" viewBox="0 0 24 24">
    <defs>
        <path id="a" d="M6.452 7.418C5.34 8.498.482 15.263 4.68 19.36c4.195 4.099 11.124-.644 12.234-1.73 1.112-1.08-.33-4.25-3.22-7.07-2.89-2.82-6.131-4.23-7.242-3.142zm9.175 9.271c-.328.318-2.867-.442-5.313-2.829C7.87 11.472 7.09 8.993 7.418 8.673c.325-.32 2.867.441 5.31 2.829 2.446 2.386 3.226 4.867 2.899 5.187zm.148-7.62c.253 0 .506-.095.7-.284l1.888-1.843a.95.95 0 0 0 0-1.367 1.007 1.007 0 0 0-1.4 0l-1.888 1.843a.95.95 0 0 0 0 1.367c.193.19.446.283.7.283zm-3.566-2.392a1.002 1.002 0 0 0 1.348-.371l1.07-1.866a.955.955 0 0 0-.38-1.316 1.002 1.002 0 0 0-1.348.371l-1.07 1.866a.954.954 0 0 0 .38 1.316zm8.665 2.915a1.004 1.004 0 0 0-1.349-.372l-1.912 1.045a.954.954 0 0 0-.38 1.316.997.997 0 0 0 1.349.372l1.911-1.045a.956.956 0 0 0 .38-1.316z"/>
    </defs>
    <g fill="none" fill-rule="evenodd">
        <path d="M0 0h24v24H0z"/>
        <mask id="b" fill="#fff">
            <use xlink:href="#a"/>
        </mask>
        <g fill="#32377D" mask="url(#b)">
            <path d="M0 0h24v24H0z"/>
        </g>
    </g>
</svg>
