<svg xmlns="http://www.w3.org/2000/svg" xmlns:xlink="http://www.w3.org/1999/xlink" width="24" height="24" viewBox="0 0 24 24">
    <defs>
        <path id="a" d="M19.525 6.233c-1.75-1.644-4.587-1.644-6.336 0L12 7.35l-1.188-1.117c-1.75-1.644-4.586-1.644-6.336 0-1.968 1.85-1.968 4.848 0 6.697L12 20l7.525-7.07c1.967-1.85 1.967-4.848 0-6.697zm-1.116 5.598L12 17.953 5.591 11.83c-.647-.608-.897-1.406-.897-2.25 0-.844.145-1.534.79-2.142a3.132 3.132 0 0 1 2.16-.833c.82 0 1.588.51 2.16 1.047L12 9.61l2.197-1.957c.57-.537 1.338-1.047 2.16-1.047.82 0 1.588.296 2.16.833.645.608.789 1.299.79 2.142 0 .844-.252 1.643-.898 2.25z"/>
    </defs>
    <g fill="none" fill-rule="evenodd">
        <path d="M0 0h24v24H0z"/>
        <mask id="b" fill="#fff">
            <use xlink:href="#a"/>
        </mask>
        <g fill="#32377D" mask="url(#b)">
            <path d="M0 0h24v24H0z"/>
        </g>
    </g>
</svg>
