<svg xmlns="http://www.w3.org/2000/svg" xmlns:xlink="http://www.w3.org/1999/xlink" width="190" height="50" viewBox="0 0 190 50">
    <defs>
        <path id="a" d="M25.113 6.607l.013-.034a1 1 0 0 1 1.748 0l.003.008 8.41 15.143c-7.162.328-12.992 1.8-15.54 4.613-4.47 4.896 1.531 8.69 3.037 12.864 1.359 3.762-.922 8.362-5.379 10.799H1l12.873-23.017 11.24-20.376zm7.685 2.428l-2.427-4.404a5 5 0 0 0-8.742 0l-2.444 4.404H12a2 2 0 0 0-2 2V25.59L1 41.807V50L.999 2a2 2 0 0 1 2-2h45.999a2 2 0 0 1 2 2v40.06L42 25.73V11.035a2 2 0 0 0-2-2h-7.2zM51 50H44l-.004-.01L44 50h7zM51 50h-9.001c0-8.216-8.504-12.813-12.646-16.806-3.705-3.585-3.745-8.073 6.71-10.069L51 50z"/>
        <path id="c" d="M11.5 25.015L0 50.013l8 .002 2.194-5.655h12.543l2.763 5.655h8l-11.5-25H11.5zm4.971 4.301l.029-.063.006-.003.24-.079.066.08 4.168 10.41h-8.709l4.2-10.345zm45.142-2.687c-1.596-1.303-3.617-1.761-5.673-1.614H38v25l18.497.06c2.499 0 4.367-.179 5.655-1.415 1.288-1.236 1.921-3.069 1.921-5.55v-.031c0-.437-.026-.873-.08-1.307a7.853 7.853 0 0 0-.249-1.227 4.852 4.852 0 0 0-2.543-3.177l.1-.066a6.064 6.064 0 0 0 2.327-5.119 7.202 7.202 0 0 0-2.015-5.554zM77 50.015h8v-20h10v-5l-28-.002v5.002h10v20zm35.883-25.274c-4.83 0-8.654.473-11.302 2.44-2.694 2-4.124 5.283-4.124 10.478 0 5.195 1.436 8.478 4.136 10.478 2.651 1.969 6.456 2.233 11.282 2.233s8.616-.263 11.244-2.232c2.671-2.002 4.086-5.279 4.086-10.479 0-5.196-1.412-8.476-4.083-10.476-2.626-1.968-6.409-2.442-11.239-2.442zm-8.438 12.917c0-2.975.585-4.996 1.894-6.24l.001.008c1.319-1.253 3.436-1.791 6.489-1.791 3.071 0 5.202.543 6.505 1.782 1.303 1.239 1.88 3.26 1.88 6.249 0 2.971-.582 4.985-1.9 6.237-1.318 1.252-3.437 1.791-6.489 1.791-3.036 0-5.172-.557-6.48-1.8-1.308-1.243-1.9-3.261-1.9-6.236zm4.059-18.603h3.111a.397.397 0 0 0 .24-.08.411.411 0 0 0 .145-.206l1.765-4.43h8.752l1.8 4.455a.401.401 0 0 0 .372.261h3.109a.421.421 0 0 0 .407-.436.461.461 0 0 0-.046-.2L120.817.281a.408.408 0 0 0-.372-.261h-4.461a.408.408 0 0 0-.383.287l-7.469 18.137a.448.448 0 0 0 .208.573.38.38 0 0 0 .164.038zm9.648-16.014l3.332 8.462h-6.69l3.358-8.462zm-105.143.168v15.405a.421.421 0 0 0 .407.436h2.967a.422.422 0 0 0 .406-.436V.506a.422.422 0 0 0-.406-.435h-.065l-2.3-.007-2.3-.005A2001.312 2001.312 0 0 0 .402.073a.42.42 0 0 0-.4.434v18.106a.422.422 0 0 0 .406.436h2.968a.42.42 0 0 0 .405-.434V3.209h9.228zm4.996 15.847h3.049l.003-.005a.4.4 0 0 0 .372-.289l5.925-15.31 5.902 15.345a.4.4 0 0 0 .363.264h3.045a.417.417 0 0 0 .395-.436.465.465 0 0 0-.044-.2l-7.1-18.1a.392.392 0 0 0-.361-.261h-4.412a.4.4 0 0 0-.377.306l-7.121 18.081a.453.453 0 0 0 .205.57.358.358 0 0 0 .156.035zM75.178.07h-2.936L72.24.064a.42.42 0 0 0-.4.434v7.217h-9.362V.498a.42.42 0 0 0-.406-.435h-2.966a.425.425 0 0 0-.407.447v18.112a.422.422 0 0 0 .407.436h2.968a.42.42 0 0 0 .4-.434v-7.776h9.363v7.776a.42.42 0 0 0 .405.434h2.968a.422.422 0 0 0 .406-.436V.505A.422.422 0 0 0 75.21.07h-.032zm18.391 18.553v-2.259l-.003-.008a.423.423 0 0 0-.406-.436h-.033l-10.993.01v-5.014h10.655a.422.422 0 0 0 .406-.435V8.23a.422.422 0 0 0-.406-.435H82.135V3.2l10.92-.009a.42.42 0 0 0 .405-.434V.497a.421.421 0 0 0-.406-.435h-.03l-14.2-.047a.42.42 0 0 0-.4.434v18.18a.422.422 0 0 0 .407.435h.038l14.3-.007a.42.42 0 0 0 .4-.434zm11.557-.002V3.196l6.203-.007a.423.423 0 0 0 .406-.435V.497a.42.42 0 0 0-.406-.435H95.508a.422.422 0 0 0-.407.435v2.257a.422.422 0 0 0 .407.435h5.845v15.43a.422.422 0 0 0 .406.436h2.967a.42.42 0 0 0 .4-.434zm-66.829.43h3.04l-.001.002a.4.4 0 0 0 .373-.288l1.726-4.43h8.553l1.761 4.455a.4.4 0 0 0 .363.261h3.039a.418.418 0 0 0 .4-.436.47.47 0 0 0-.044-.2L50.333.277a.4.4 0 0 0-.363-.261h-4.359a.4.4 0 0 0-.374.287l-7.3 18.137a.452.452 0 0 0 .2.573c.05.025.104.038.16.038zm9.428-16.014l3.257 8.462h-6.537l3.28-8.462zM44 30.015h10.5a2.5 2.5 0 0 1 0 5H44v-5zm0 10h11a3 3 0 0 1 0 6H44v-6z"/>
    </defs>
    <g fill="none" fill-rule="evenodd">
        <g transform="translate(-1)">
            <mask id="b" fill="#fff">
                <use xlink:href="#a"/>
            </mask>
            <use fill="#000" xlink:href="#a"/>
            <g fill="#FFF" mask="url(#b)">
                <path d="M1 0h50v51H1z"/>
            </g>
        </g>
        <g transform="translate(60)">
            <mask id="d" fill="#fff">
                <use xlink:href="#c"/>
            </mask>
            <use fill="#000" xlink:href="#c"/>
            <g fill="#FFF" mask="url(#d)">
                <path d="M0 0h129v51H0z"/>
            </g>
        </g>
    </g>
</svg>
