<svg xmlns="http://www.w3.org/2000/svg" xmlns:xlink="http://www.w3.org/1999/xlink" width="24" height="24" viewBox="0 0 24 24">
    <defs>
        <path id="a" d="M12.217 2.167c-.028-.223-.407-.223-.434 0C10.836 9.572 6 11.097 6 16.243 6 19.423 8.745 22 12 22c3.253 0 6-2.578 6-5.757 0-5.146-4.837-6.671-5.783-14.076zm-.914 8.185c-.064.229-.131.463-.202.705-.43 1.485-.918 3.166-.918 5.112 0 1.054-.641 1.428-1.24 1.428-.683 0-1.24-.545-1.24-1.215 0-2.299 1.14-3.8 2.144-5.126.314-.414.611-.807.853-1.197.111-.178.408-.17.543.006a.316.316 0 0 1 .06.287z"/>
    </defs>
    <g fill="none" fill-rule="evenodd">
        <path d="M0 0h24v24H0z"/>
        <mask id="b" fill="#fff">
            <use xlink:href="#a"/>
        </mask>
        <g fill="#32377D" mask="url(#b)">
            <path d="M0 0h24v24H0z"/>
        </g>
    </g>
</svg>
