<svg xmlns="http://www.w3.org/2000/svg" xmlns:xlink="http://www.w3.org/1999/xlink" width="24" height="23" viewBox="0 0 24 23">
    <defs>
        <path id="a" d="M11.745 2.003a10.193 10.193 0 0 1 .51 0l.128-1.039 1.985.244-.128 1.044c.166.038.33.08.494.126l.395-.978 1.854.75-.39.965c.152.078.3.16.448.246l.616-.848 1.618 1.176-.617.849c.127.113.25.23.372.349l.798-.67 1.286 1.532-.809.678c.095.141.186.285.274.43l.953-.444.845 1.813-.945.44c.056.161.109.323.157.487l1.025-.2.381 1.964-1.033.2c.014.17.025.339.031.51l1.055.073-.14 1.995-1.039-.072c-.027.168-.06.336-.095.501l.997.324-.618 1.902-.997-.323c-.068.156-.141.31-.217.462l.882.551-1.06 1.696-.896-.56c-.105.134-.213.265-.325.393l.719.77-1.463 1.364-.713-.765c-.135.104-.273.204-.413.3l.507.915-1.75.97-.509-.92c-.156.067-.314.13-.474.188l.255 1.023-1.94.484-.252-1.01c-.168.025-.337.046-.507.063V23h-2v-1.05c-.17-.016-.339-.037-.507-.063l-.252 1.011-1.94-.484.255-1.023a9.933 9.933 0 0 1-.474-.188l-.51.92-1.749-.97.507-.915c-.14-.096-.278-.196-.413-.3l-.713.765-1.463-1.364.718-.77a10.05 10.05 0 0 1-.325-.393l-.895.56-1.06-1.696.882-.551a9.951 9.951 0 0 1-.218-.462l-.996.323-.618-1.902.997-.324a9.955 9.955 0 0 1-.095-.501l-1.04.072L.953 11.7l1.055-.074c.006-.17.017-.34.031-.508l-1.033-.201.381-1.963 1.025.199c.049-.164.101-.326.158-.486l-.946-.441.845-1.813.954.445c.087-.146.178-.29.273-.43l-.809-.679 1.286-1.532.799.67c.12-.12.245-.236.372-.349l-.618-.85 1.618-1.175.617.848a9.98 9.98 0 0 1 .447-.246l-.39-.965 1.854-.75.395.978c.163-.046.328-.088.494-.126l-.128-1.044 1.985-.244.128 1.04zM12 17.483a5.482 5.482 0 0 0 5.482-5.482A5.484 5.484 0 1 0 12 17.484z"/>
    </defs>
    <g fill="none" fill-rule="evenodd">
        <path d="M0 0h24v24H0z"/>
        <mask id="b" fill="#fff">
            <use xlink:href="#a"/>
        </mask>
        <g fill="#32377D" mask="url(#b)">
            <path d="M0 0h24v24H0z"/>
        </g>
    </g>
</svg>
