<svg xmlns="http://www.w3.org/2000/svg" xmlns:xlink="http://www.w3.org/1999/xlink" width="24" height="24" viewBox="0 0 24 24">
    <defs>
        <path id="a" d="M11.958 8.286a5.965 5.965 0 0 0-.975-2.63c.443.18.912.4 1.406.668 3.71 2.001 5.076.88 6.805-.54a1.008 1.008 0 0 1 1.396.117.949.949 0 0 1-.12 1.361c-1.174.964-2.53 2.077-4.625 2.077-1.076 0-2.346-.294-3.887-1.053zm-.237 2.527c.218.104.44.217.67.34 3.708 2.002 5.075.88 6.804-.54a1.008 1.008 0 0 1 1.396.12.95.95 0 0 1-.12 1.36c-1.174.964-2.53 2.077-4.625 2.077-1.196 0-2.632-.363-4.413-1.324-.204-.11-.4-.21-.59-.303.38-.52.68-1.103.878-1.73zM6.068 15a5.987 5.987 0 0 0 1.927-.34c1.192.004 2.624.368 4.395 1.325 3.71 2.001 5.076.88 6.805-.54a1.008 1.008 0 0 1 1.396.117.95.95 0 0 1-.12 1.362C19.296 17.887 17.94 19 15.845 19c-1.196 0-2.632-.363-4.413-1.324-3.708-2.002-5.075-.88-6.805.54a1.008 1.008 0 0 1-1.395-.118.95.95 0 0 1 .12-1.362c.773-.633 1.625-1.333 2.715-1.736zm.559-13.9C7.178 5.543 10 6.458 10 9.546 10 11.453 8.398 13 6.5 13 4.6 13 3 11.453 3 9.546 3 6.458 5.821 5.543 6.373 1.1c.016-.133.237-.133.254 0zm-.534 4.911a.194.194 0 0 0-.035-.172c-.078-.106-.251-.11-.316-.004-.141.235-.315.47-.498.719-.586.795-1.25 1.696-1.25 3.075 0 .402.324.73.722.73.35 0 .724-.225.724-.857 0-1.168.285-2.177.536-3.068l.117-.423z"/>
    </defs>
    <g fill="none" fill-rule="evenodd">
        <path d="M0 0h24v24H0z"/>
        <mask id="b" fill="#fff">
            <use xlink:href="#a"/>
        </mask>
        <g fill="#000000" mask="url(#b)">
            <path d="M0 0h24v24H0z"/>
        </g>
    </g>
</svg>
