<?xml version="1.0" encoding="UTF-8"?>
<svg width="22px" height="22px" viewBox="0 0 22 22" version="1.1" xmlns="http://www.w3.org/2000/svg" xmlns:xlink="http://www.w3.org/1999/xlink">
    <!-- Generator: Sketch 52 (66869) - http://www.bohemiancoding.com/sketch -->
    <title>Ic/ Notify/ 1</title>
    <desc>Created with Sketch.</desc>
    <defs>
        <path d="M21.4589231,8.9158062 L23,12 L21.4589231,15.0841938 L21.4589231,18.2746889 L18.2516206,19.8794016 L15.1330864,23 L12,22.216574 L8.86691361,23 L5.74837942,19.8794016 L2.54107686,18.2746889 L2.54107686,15.0841938 L1,12 L2.54107686,8.9158062 L2.54107686,5.72531109 L5.74837942,4.12059836 L8.86691361,1 L12,1.783426 L15.1330864,1 L18.2516206,4.12059836 L21.4589231,5.72531109 L21.4589231,8.9158062 Z M19.6851421,14.6281703 L21,12.0006981 L19.6879367,9.37322578 L19.6879367,6.84766928 L17.0973451,5.51299155 L14.5822077,3 L12.0013973,3.64500116 L9.42058687,3 L6.72380065,5.64422555 L4.31485794,6.84766928 L4.31485794,9.37322578 L3,12.0006981 L4.31346064,14.6281703 L4.31346064,17.1523307 L6.90405217,18.4870085 L9.41918957,21 L12,20.3549988 L14.5808104,21 L17.2761993,18.3571706 L19.6851421,17.1537268 L19.6851421,14.6281703 Z M7.11967152,15.8539896 L15.8506119,7.11727023 L16.8795972,8.14693663 L8.14865683,16.883656 L7.11967152,15.8539896 Z M9.08956211,11.2719089 C7.88609604,11.2719089 6.90673369,10.2918983 6.90673369,9.08763569 C6.90673369,7.88337305 7.88609604,6.90336246 9.08956211,6.90336246 C10.2930282,6.90336246 11.2723905,7.88337305 11.2723905,9.08763569 C11.2723905,10.2918983 10.2930282,11.2719089 9.08956211,11.2719089 Z M9.08956211,8.35954461 C8.68792168,8.35954461 8.36195264,8.68572941 8.36195264,9.08763569 C8.36195264,9.48954196 8.68792168,9.81572677 9.08956211,9.81572677 C9.49120254,9.81572677 9.81717158,9.48954196 9.81717158,9.08763569 C9.81717158,8.68572941 9.49120254,8.35954461 9.08956211,8.35954461 Z M14.9104379,12.7280911 C16.113904,12.7280911 17.0932663,13.7081017 17.0932663,14.9123643 C17.0932663,16.116627 16.113904,17.0966375 14.9104379,17.0966375 C13.7069718,17.0966375 12.7276095,16.116627 12.7276095,14.9123643 C12.7276095,13.7081017 13.7069718,12.7280911 14.9104379,12.7280911 Z M14.9104379,15.6404554 C15.3120783,15.6404554 15.6380474,15.3142706 15.6380474,14.9123643 C15.6380474,14.510458 15.3120783,14.1842732 14.9104379,14.1842732 C14.5087975,14.1842732 14.1828284,14.510458 14.1828284,14.9123643 C14.1828284,15.3142706 14.5087975,15.6404554 14.9104379,15.6404554 Z" id="path-1"></path>
    </defs>
    <g id="Symbols" stroke="none" stroke-width="1" fill="none" fill-rule="evenodd">
        <g id="Components/-Label/-Sale-(icon)" transform="translate(-13.000000, -3.000000)">
            <g id="Components/-Label/-Discount">
                <g id="Group-3">
                    <g id="Ic/-Shop/-10" transform="translate(12.000000, 2.000000)">
                        <g>
                            <rect id="Rectangle" x="0" y="0" width="24" height="24"></rect>
                            <mask id="mask-2" fill="white">
                                <use xlink:href="#path-1"></use>
                            </mask>
                            <use id="Mask" fill="#000000" fill-rule="nonzero" xlink:href="#path-1"></use>
                            <g id="Color/-Prime/-JustWhite" mask="url(#mask-2)" fill="#FFFFFF">
                                <rect id="JustWhite" x="0" y="0" width="24" height="24"></rect>
                            </g>
                        </g>
                    </g>
                </g>
            </g>
        </g>
    </g>
</svg>