<svg xmlns="http://www.w3.org/2000/svg" xmlns:xlink="http://www.w3.org/1999/xlink" width="24" height="24" viewBox="0 0 24 24">
    <defs>
        <path id="a" d="M17.38 10.966h-4.346V6.62C13.034 6.049 12.572 6 12 6c-.572 0-1.034.05-1.034.62v4.346H6.62C6.049 10.966 6 11.428 6 12c0 .572.05 1.034.62 1.034h4.346v4.345c0 .572.462.621 1.034.621.572 0 1.034-.05 1.034-.62v-4.346h4.345c.572 0 .621-.462.621-1.034 0-.572-.05-1.034-.62-1.034z"/>
    </defs>
    <g fill="none" fill-rule="evenodd">
        <path d="M0 0h24v24H0z"/>
        <mask id="b" fill="#fff">
            <use xlink:href="#a"/>
        </mask>
        <g fill="#32377D" mask="url(#b)">
            <path d="M0 0h24v24H0z"/>
        </g>
    </g>
</svg>
