<svg xmlns="http://www.w3.org/2000/svg" xmlns:xlink="http://www.w3.org/1999/xlink" width="24" height="24" viewBox="0 0 24 24">
    <defs>
        <path id="a" d="M14 21v.874c0 .56-.762 1.106-2 1.106s-2-.546-2-1.106V21H9a1 1 0 0 1-1-1v-1.002h1V18H8v-1h1l-.001-1H8v-1h1v-1H8v-1a1 1 0 0 1 0-2h.551L9 5.76c0-1.173.31-1.438.84-1.76v.633c0 .482.777 1.096 2.16 1.096 1.382 0 2.16-.615 2.16-1.096V4c.53.322.84.587.84 1.76l.45 5.24H16a1 1 0 0 1 0 2v1h-1v1h1v1h-1v1h1v1h-1v.998h1V20a1 1 0 0 1-1 1h-1zM11 1.678c0-.337.381-.678 1-.678s1 .341 1 .678v2.656C13 4.67 12.619 5 12 5s-1-.33-1-.666V1.678zm2.568 9.364c-.234-.15-.482.152-.482.152s-2.33 2.387-2.854 3.127c-.524.741-.055.878.359 1.056.413.179 1 .409 1 .409l-1.173 2.582s-.207.448.014.59c.234.15.482-.151.482-.151s2.33-2.387 2.853-3.128c.524-.741.056-.878-.358-1.056-.413-.178-1-.409-1-.409l1.173-2.583s.208-.446-.014-.59z"/>
    </defs>
    <g fill="none" fill-rule="evenodd">
        <path d="M0 0h24v24H0z"/>
        <mask id="b" fill="#fff">
            <use xlink:href="#a"/>
        </mask>
        <g fill="#000000" mask="url(#b)">
            <path d="M0 0h24v24H0z"/>
        </g>
    </g>
</svg>
