<svg xmlns="http://www.w3.org/2000/svg" xmlns:xlink="http://www.w3.org/1999/xlink" width="24" height="24" viewBox="0 0 24 24">
    <defs>
        <path id="a" d="M13 16h1v1h3v-2h2v6h-2v-2h-3v1h-4v-1H7v2H5v-6h2v2h3v-1h1V7H6.767L6.19 9.157l-1.931-.518L5.81 2.843l1.931.518L7.303 5h9.93l.578-2.157 1.931.518-1.553 5.796-1.931-.518L16.697 7H13v9z"/>
    </defs>
    <g fill="none" fill-rule="evenodd">
        <path d="M0 0h24v24H0z"/>
        <mask id="b" fill="#fff">
            <use xlink:href="#a"/>
        </mask>
        <g fill="#000000" mask="url(#b)">
            <path d="M0 0h24v24H0z"/>
        </g>
    </g>
</svg>
