<svg xmlns="http://www.w3.org/2000/svg" xmlns:xlink="http://www.w3.org/1999/xlink" width="24" height="24" viewBox="0 0 24 24">
    <defs>
        <path id="a" d="M10.393 20.791a8.923 8.923 0 0 1-5.201-3.003.908.908 0 0 0 .39.073c.185-.006.348-.047.734-.27l2.354-1.359a2 2 0 1 0-2-3.464l-2.354 1.359c-.386.223-.503.344-.6.5a.908.908 0 0 0-.133.38 8.92 8.92 0 0 1-.518-3.005c0-1.055.183-2.068.518-3.007.015.133.06.26.133.377.097.157.214.278.6.501l2.354 1.36a2 2 0 1 0 2-3.465l-2.354-1.36c-.386-.222-.55-.263-.734-.269a.908.908 0 0 0-.39.073 8.922 8.922 0 0 1 5.201-3.003.908.908 0 0 0-.26.303c-.087.163-.133.324-.133.77V7a2 2 0 1 0 4 0V4.282c0-.446-.046-.607-.134-.77a.908.908 0 0 0-.258-.303 8.927 8.927 0 0 1 5.198 3.002.908.908 0 0 0-.388-.072c-.185.006-.348.047-.734.27L15.33 7.768a2 2 0 0 0 2 3.464l2.354-1.359c.386-.223.503-.344.6-.5a.908.908 0 0 0 .133-.378c.335.94.518 1.952.518 3.007a8.915 8.915 0 0 1-.518 3.004.908.908 0 0 0-.133-.378c-.097-.157-.214-.278-.6-.501l-2.354-1.36a2 2 0 0 0-2 3.465l2.354 1.36c.386.222.55.263.734.269a.908.908 0 0 0 .388-.072 8.928 8.928 0 0 1-5.198 3.002.908.908 0 0 0 .258-.303c.088-.163.134-.324.134-.77V17a2 2 0 1 0-4 0v2.718c0 .446.046.607.134.77a.908.908 0 0 0 .26.303zM12 12.935a.935.935 0 1 0 0-1.87.935.935 0 0 0 0 1.87zM12 1.5c5.8 0 10.501 4.701 10.5 10.5 0 5.799-4.701 10.5-10.5 10.5-5.8 0-10.5-4.7-10.5-10.5C1.5 6.202 6.201 1.5 12 1.5zm0 1A9.5 9.5 0 0 0 2.5 12a9.5 9.5 0 0 0 9.5 9.5 9.5 9.5 0 0 0 9.5-9.5A9.499 9.499 0 0 0 12 2.5z"/>
    </defs>
    <g fill="none" fill-rule="evenodd">
        <path d="M0 0h24v24H0z"/>
        <mask id="b" fill="#fff">
            <use xlink:href="#a"/>
        </mask>
        <g fill="#000000" mask="url(#b)">
            <path d="M0 0h24v24H0z"/>
        </g>
    </g>
</svg>
