<svg xmlns="http://www.w3.org/2000/svg" xmlns:xlink="http://www.w3.org/1999/xlink" width="24" height="24" viewBox="0 0 24 24">
    <defs>
        <path id="a" d="M5.105 8.84c.938-.736 1.714-.229 2.753.986.117.135.274-.023.362-.103.088-.079 1.457-1.324 1.524-1.383.067-.058.149-.17.041-.295a39.18 39.18 0 0 1-.745-.965c-1.816-2.403 4.966-4.031 3.925-4.059-.53-.013-2.658-.038-2.975-.004-1.29.139-2.907 1.357-3.721 1.923-1.064.74-1.463 1.172-1.529 1.23-.3.267-.048.882-.594 1.365-.577.513-.937.126-1.27.423-.167.148-.63.5-.763.617-.134.118-.158.32-.022.478 0 0 1.269 1.42 1.375 1.544.107.125.393.232.57.072l.712-.632c.079-.068-.051-.876.357-1.197zm5.733.524c-.12-.14-.27-.143-.4-.027l-1.44 1.27a.298.298 0 0 0-.027.406l8.328 9.588a.528.528 0 0 0 .755.054l.974-.826a.553.553 0 0 0 .051-.77l-8.241-9.695zm11.106-4.081c-.075-.502-.332-.396-.464-.183-.132.213-.724 1.118-.968 1.529-.241.407-.834 1.21-1.94.417-1.154-.825-.753-1.4-.552-1.787.201-.389.822-1.479.91-1.615.09-.136-.015-.535-.372-.368-.358.167-2.534 1.042-2.836 2.295-.307 1.277.259 2.416-.853 3.55l-1.348 1.423 1.354 1.593 1.662-1.596c.396-.403 1.241-.793 2.007-.619 1.64.376 2.534-.248 3.073-1.277.48-.921.401-2.86.327-3.362zM4.71 19.163a.552.552 0 0 0 0 .77l.955.945c.21.213.54.124.75-.09l4.928-4.901-1.51-1.738-5.123 5.014z"/>
    </defs>
    <g fill="none" fill-rule="evenodd">
        <path d="M0 0h24v24H0z"/>
        <mask id="b" fill="#fff">
            <use xlink:href="#a"/>
        </mask>
        <g fill="#32377D" mask="url(#b)">
            <path d="M0 0h24v24H0z"/>
        </g>
    </g>
</svg>
