<svg xmlns="http://www.w3.org/2000/svg" xmlns:xlink="http://www.w3.org/1999/xlink" width="24" height="24" viewBox="0 0 24 24">
    <defs>
        <path id="a" d="M9.45 13.91a6.033 6.033 0 0 0 1.562-1.61 3.5 3.5 0 0 1 .079.027v-.15a6.017 6.017 0 0 0 .748-4.563 1.325 1.325 0 1 0-.932-2.068 6.03 6.03 0 0 0-.637-.761 2.298 2.298 0 1 1 2.64 3.622v3.92a4.352 4.352 0 0 1 1.484-.237h1.915c1.412 0 1.484-1.236 1.484-1.484V8.408a2.298 2.298 0 1 1 1.818 0v2.198c0 1.327-.88 3.303-3.304 3.303h-1.915c-1.413 0-1.485.757-1.485 1.005v2.678A2.296 2.296 0 0 1 11.998 22a2.299 2.299 0 0 1-.91-4.408v-2.678c-.005-.34-.132-1.005-1.482-1.005H9.45zm-3.196 1.085c-.04.178-.047.329-.047.4v2.197a2.298 2.298 0 1 1-1.818 0v-2.198c0-.189.018-.39.055-.598a6.008 6.008 0 0 0 1.81.199zm11.123-8.697a1.325 1.325 0 1 0 2.65 0 1.325 1.325 0 0 0-2.65 0zm-4.052 13.404a1.325 1.325 0 1 0-2.65 0 1.325 1.325 0 0 0 2.65 0zm-6.702 0a1.325 1.325 0 1 0-2.65 0 1.325 1.325 0 0 0 2.65 0zM6.627 1.1C7.178 5.543 10 6.458 10 9.546 10 11.453 8.398 13 6.5 13 4.6 13 3 11.453 3 9.546 3 6.458 5.821 5.543 6.373 1.1c.016-.133.237-.133.254 0zm-.534 4.911a.194.194 0 0 0-.035-.172c-.078-.106-.251-.11-.316-.004-.141.235-.315.47-.498.719-.586.795-1.25 1.696-1.25 3.075 0 .402.324.73.722.73.35 0 .724-.225.724-.857 0-1.168.285-2.177.536-3.068l.117-.423z"/>
    </defs>
    <g fill="none" fill-rule="evenodd">
        <path d="M0 0h24v24H0z"/>
        <mask id="b" fill="#fff">
            <use xlink:href="#a"/>
        </mask>
        <g fill="#000000" mask="url(#b)">
            <path d="M0 0h24v24H0z"/>
        </g>
    </g>
</svg>
