<svg xmlns="http://www.w3.org/2000/svg" xmlns:xlink="http://www.w3.org/1999/xlink" width="24" height="24" viewBox="0 0 24 24">
    <defs>
        <path id="a" d="M3.322 16.493l-1.071-1.08.997-.329a7.788 7.788 0 0 1-.097-.436l-1.025.072L2 12.884l1.003-.072c.003-.153.01-.305.022-.456l-.978-.193.346-1.808.953.189c.042-.15.088-.297.138-.443l-.877-.416.765-1.669.88.418c.078-.133.16-.264.245-.392l-.747-.637 1.164-1.41.74.632c.11-.109.22-.214.334-.317l-.573-.802L6.88 4.426l.577.808c.13-.077.264-.151.399-.221l-.367-.922 1.679-.69.373.94a8.91 8.91 0 0 1 .437-.112l-.121-1.005L11.654 3l.12 1.003a9.142 9.142 0 0 1 .451 0L12.346 3l1.797.224-.121 1.005c.147.034.293.071.437.112l.373-.94 1.679.69-.366.921c.135.07.268.144.398.221l.577-.807 1.465 1.082-.573.802c.114.102.225.208.334.316l.74-.632 1.164 1.41-.746.638c.084.128.166.259.245.391l.88-.417.764 1.67-.877.415c.05.146.096.293.139.443l.952-.189.346 1.808-.978.193c.011.151.019.303.022.456l1.003.072-.126 1.836-1.025-.072a7.787 7.787 0 0 1-.097.436l.997.33-1.084 1.067.022.02c-.576.584-.93 1.079-1.064 1.483-.132.404-.007.743.377 1.016l.735.735c.17.17.265.4.265.64v.125a.5.5 0 0 1-.5.5h-17a.5.5 0 0 1-.5-.5v-.125c0-.24.095-.47.265-.64L4 19c.384-.273.51-.612.377-1.016s-.488-.899-1.064-1.483l.009-.008zM7 13.001a5 5 0 1 0 10-.002A5 5 0 0 0 7 13z"/>
    </defs>
    <g fill="none" fill-rule="evenodd">
        <path d="M0 0h24v24H0z"/>
        <mask id="b" fill="#fff">
            <use xlink:href="#a"/>
        </mask>
        <g fill="#000000" mask="url(#b)">
            <path d="M0 0h24v24H0z"/>
        </g>
    </g>
</svg>
