<svg xmlns="http://www.w3.org/2000/svg" xmlns:xlink="http://www.w3.org/1999/xlink" width="24" height="24" viewBox="0 0 24 24">
    <defs>
        <path id="a" d="M6.758 9c.32.48.731.894 1.207 1.219H6.4l-1.2 3.656h5.315a4.5 4.5 0 0 0 6.685 3.551v3.762c0 .446-.36.812-.8.812h-.8c-.44 0-.8-.366-.8-.813v-.812H5.2v.813c0 .446-.36.812-.8.812h-.8c-.44 0-.8-.366-.8-.813v-6.5a.8.8 0 0 1-.8-.8v-.024a.8.8 0 0 1 .8-.8h.8c.187 0 .359.064.495.171l1.169-3.413C5.432 9.34 5.872 9 6.4 9h.358zM5.6 17.938c.664 0 1.2-.545 1.2-1.22 0-.674-.536-1.218-1.2-1.218-.664 0-1.2.544-1.2 1.219 0 .674.536 1.218 1.2 1.218zM10.499 1.07c.38 3.086 2.323 3.722 2.324 5.867 0 1.325-1.104 2.4-2.412 2.4C9.104 9.336 8 8.261 8 6.936c0-2.145 1.943-2.781 2.324-5.867.011-.093.163-.093.175 0zm9.177 0C20.056 4.156 22 4.792 22 6.937c0 1.325-1.104 2.4-2.411 2.4s-2.412-1.075-2.412-2.4c0-2.145 1.945-2.781 2.324-5.867.012-.093.163-.093.175 0zm-4.763 6.663c.011-.093.162-.093.174 0 .38 3.087 2.324 3.722 2.324 5.867 0 1.326-1.104 2.4-2.412 2.4-1.307 0-2.41-1.074-2.41-2.4 0-2.145 1.943-2.78 2.324-5.867z"/>
    </defs>
    <g fill="none" fill-rule="evenodd">
        <path d="M0 0h24v24H0z"/>
        <mask id="b" fill="#fff">
            <use xlink:href="#a"/>
        </mask>
        <g fill="#000000" mask="url(#b)">
            <path d="M0 0h24v24H0z"/>
        </g>
    </g>
</svg>
