<svg xmlns="http://www.w3.org/2000/svg" xmlns:xlink="http://www.w3.org/1999/xlink" width="24" height="24" viewBox="0 0 24 24">
    <defs>
        <path id="a" d="M8 6.592h9c2.736 0 3.32-1.548 3.32-2.276V3C21.378 3.669 22 4.22 22 6.658v10.007C22 19.754 19.477 22 17 22H8c-2.559 0-6-1.6-6-5.335V6.658C2 4.22 2.621 3.669 3.68 3v1.315c0 1 1.554 2.276 4.32 2.276zm5.794 2.72c-.266-.172-.55.175-.55.175s-2.652 2.732-3.25 3.579c-.596.848-.062 1.005.409 1.209.47.204 1.139.468 1.139.468l-1.336 2.956s-.236.512.016.674c.267.173.55-.172.55-.172s2.653-2.732 3.25-3.58c.596-.849.063-1.006-.408-1.21-.471-.204-1.14-.467-1.14-.467l1.336-2.957s.237-.511-.016-.675zM4.927 2.126c0-.56.754-1.126 1.98-1.126s1.98.567 1.98 1.126v1.748c0 .56-.754 1.106-1.98 1.106s-1.98-.546-1.98-1.106V2.126zm10 0c0-.56.754-1.126 1.98-1.126s1.98.567 1.98 1.126v1.748c0 .56-.754 1.106-1.98 1.106s-1.98-.546-1.98-1.106V2.126zM10 2h4v2h-4V2z"/>
    </defs>
    <g fill="none" fill-rule="evenodd">
        <path d="M0 0h24v24H0z"/>
        <mask id="b" fill="#fff">
            <use xlink:href="#a"/>
        </mask>
        <g fill="#32377D" mask="url(#b)">
            <path d="M0 0h24v24H0z"/>
        </g>
    </g>
</svg>
