<svg xmlns="http://www.w3.org/2000/svg" xmlns:xlink="http://www.w3.org/1999/xlink" width="24" height="24" viewBox="0 0 24 24">
    <defs>
        <path id="a" d="M14.556 8H15a1 1 0 0 1 1 1v1h1a1 1 0 0 1 1 1v11a1 1 0 0 1-1 1H7a1 1 0 0 1-1-1V11a1 1 0 0 1 1-1h1V9a1 1 0 0 1 1-1h.444l1.382-6.217A1 1 0 0 1 11.802 1h.396a1 1 0 0 1 .976.783L14.556 8zm-2.43 1.1c-.016-.133-.237-.133-.253 0-.552 4.443-3.373 5.358-3.373 8.446C8.5 19.453 10.101 21 12 21c1.898 0 3.5-1.547 3.5-3.454 0-3.088-2.822-4.003-3.373-8.446zm-.533 4.911l-.117.423c-.251.891-.536 1.9-.536 3.068 0 .632-.374.856-.724.856a.727.727 0 0 1-.722-.729c0-1.38.664-2.28 1.25-3.075.183-.249.357-.484.498-.719.065-.106.238-.102.316.004.04.05.052.113.035.172z"/>
    </defs>
    <g fill="none" fill-rule="evenodd">
        <path d="M0 0h24v24H0z"/>
        <mask id="b" fill="#fff">
            <use xlink:href="#a"/>
        </mask>
        <g fill="#000000" mask="url(#b)">
            <path d="M0 0h24v24H0z"/>
        </g>
    </g>
</svg>
