<svg xmlns="http://www.w3.org/2000/svg" xmlns:xlink="http://www.w3.org/1999/xlink" width="24" height="24" viewBox="0 0 24 24">
    <defs>
        <path id="a" d="M3.092 10.4a4 4 0 0 1 7.468-2.87c1.778.234 4.654.788 6.484 1.014 1.283.158 2.771.81 4.466 1.955l-.5.866c-3.464-2-6.196-1.268-8.196 2.196l-2 3.464a2 2 0 0 1-2.732.732l-5.196-3a2 2 0 0 1-.733-2.732l.939-1.625zm.774-.92a7.998 7.998 0 0 1 5.545-2.046A3.001 3.001 0 0 0 3.866 9.48zm17.206 2.579C21.388 14.65 23 15.184 23 16.985A2.02 2.02 0 0 1 21 19c-1.085 0-2-.902-2-2.015 0-1.8 1.612-2.335 1.928-4.926.009-.079.135-.079.144 0zm-.304 2.864a.115.115 0 0 0-.02-.1c-.045-.062-.144-.065-.181-.002-.08.136-.18.274-.285.419-.334.464-.714.99-.714 1.794a.42.42 0 0 0 .413.425c.2 0 .413-.131.413-.5 0-.68.163-1.27.306-1.789l.068-.247z"/>
    </defs>
    <g fill="none" fill-rule="evenodd">
        <path d="M0 0h24v24H0z"/>
        <mask id="b" fill="#fff">
            <use xlink:href="#a"/>
        </mask>
        <g fill="#000000" mask="url(#b)">
            <path d="M0 0h24v24H0z"/>
        </g>
    </g>
</svg>
