<svg xmlns="http://www.w3.org/2000/svg" xmlns:xlink="http://www.w3.org/1999/xlink" width="24" height="24" viewBox="0 0 24 24">
    <defs>
        <path id="a" d="M10.577 4.16a9.03 9.03 0 0 0-4.019 4.713 3.979 3.979 0 0 0-1.529 3.14c0 1.282.604 2.422 1.543 3.15a9.026 9.026 0 0 0 3.152 4.13V20H8.276v-.762a7.232 7.232 0 0 1-.367-.046l-.182.734-1.406-.351.185-.743a7.181 7.181 0 0 1-.343-.137l-.37.668-1.266-.704.367-.664a7.266 7.266 0 0 1-.299-.218l-.516.555-1.06-.99.52-.56a7.293 7.293 0 0 1-.235-.284l-.648.406-.768-1.231.64-.4a7.234 7.234 0 0 1-.159-.336l-.72.235L1.2 13.79l.721-.235a7.246 7.246 0 0 1-.069-.364l-.752.053L1 11.795l.764-.053c.004-.124.012-.247.022-.37l-.748-.145.276-1.426.742.145c.036-.12.074-.237.115-.353l-.686-.32.613-1.317.69.323c.064-.106.13-.21.198-.312L2.4 7.474l.931-1.112.579.487c.087-.087.177-.172.27-.254l-.448-.617 1.172-.854.446.616c.106-.062.214-.122.324-.179l-.282-.7 1.342-.544.286.71c.119-.034.238-.065.358-.092l-.093-.758L8.723 4l.092.754a7.361 7.361 0 0 1 .37 0L9.277 4l1.3.16zm.012 15.687l-.316.079-.078-.314c.13.081.26.16.394.235zm3.187-1.149a6.798 6.798 0 0 1-3.963-2.288c.093.04.193.059.297.055.14-.004.265-.035.56-.205l1.793-1.036a1.524 1.524 0 0 0-1.524-2.639l-1.794 1.036c-.294.17-.383.262-.457.381a.692.692 0 0 0-.101.289A6.796 6.796 0 0 1 8.192 12c0-.804.14-1.575.395-2.29a.692.692 0 0 0 .101.287c.074.12.163.212.457.381l1.794 1.036a1.524 1.524 0 0 0 1.524-2.64L10.669 7.74c-.294-.17-.418-.2-.559-.205a.692.692 0 0 0-.297.055 6.797 6.797 0 0 1 3.963-2.288.692.692 0 0 0-.198.23c-.066.125-.102.248-.102.588v2.07a1.524 1.524 0 1 0 3.048 0V6.12c0-.34-.036-.463-.102-.587a.692.692 0 0 0-.197-.23 6.802 6.802 0 0 1 3.96 2.286.692.692 0 0 0-.295-.054c-.14.004-.265.035-.56.205l-1.793 1.036a1.524 1.524 0 0 0 1.524 2.639l1.794-1.036c.294-.17.383-.262.457-.381a.692.692 0 0 0 .101-.287c.256.716.395 1.487.395 2.29 0 .803-.14 1.574-.395 2.29a.692.692 0 0 0-.101-.289c-.074-.12-.163-.212-.457-.381l-1.794-1.036a1.524 1.524 0 0 0-1.524 2.64l1.794 1.035c.294.17.418.2.559.205a.692.692 0 0 0 .296-.054 6.803 6.803 0 0 1-3.961 2.287.692.692 0 0 0 .197-.23c.066-.125.102-.248.102-.588v-2.07a1.524 1.524 0 1 0-3.048 0v2.07c0 .34.036.463.102.587.05.093.116.17.198.231zM15 12.712a.712.712 0 1 0 0-1.425.712.712 0 0 0 0 1.425zM15 4a8 8 0 0 1 0 16 8 8 0 0 1 0-16zm0 .762a7.238 7.238 0 1 0 0 14.476 7.238 7.238 0 0 0 0-14.476z"/>
    </defs>
    <g fill="none" fill-rule="evenodd">
        <path d="M0 0h24v24H0z"/>
        <mask id="b" fill="#fff">
            <use xlink:href="#a"/>
        </mask>
        <g fill="#000000" mask="url(#b)">
            <path d="M0 0h24v24H0z"/>
        </g>
    </g>
</svg>
