<svg xmlns="http://www.w3.org/2000/svg" xmlns:xlink="http://www.w3.org/1999/xlink" width="24" height="24" viewBox="0 0 24 24">
    <defs>
        <path id="a" d="M10.797 18.75l.436-1.744c-2.952.048-5.197.38-6.733.994l-3-11C5.167 5 8.667 4 12 4s6.833 1 10.5 3l-3 11c-1.622-.649-4.034-.982-7.235-1l-.437 1.75h1.422v1.5h-4.5v-1.5h2.047zm4.754-6.25h-2.16l-.677 2.705c2.176.031 4.016.21 5.534.546l2.132-7.819C17.431 6.504 14.64 5.8 12 5.8c-2.64 0-5.431.704-8.38 2.132l2.132 7.819c1.61-.357 3.582-.535 5.932-.55l.926-3.701h3.227l1.182-4.137.962.274-2 7-.962-.274.532-1.863z"/>
    </defs>
    <g fill="none" fill-rule="evenodd">
        <path d="M0 0h24v24H0z"/>
        <mask id="b" fill="#fff">
            <use xlink:href="#a"/>
        </mask>
        <g fill="#000000" mask="url(#b)">
            <path d="M0 0h24v24H0z"/>
        </g>
    </g>
</svg>
