<svg xmlns="http://www.w3.org/2000/svg" xmlns:xlink="http://www.w3.org/1999/xlink" width="24" height="24" viewBox="0 0 24 24">
    <defs>
        <path id="a" d="M14.668 17.55L12.048 20l-7.564-7.07c-1.979-1.85-1.979-4.848 0-6.697 1.759-1.644 4.61-1.644 6.37 0l1.194 1.117 1.194-1.117c1.759-1.644 4.61-1.644 6.37 0 .904.846 1.394 1.932 1.472 3.038a5.327 5.327 0 0 0-2.369-1.715 3.155 3.155 0 0 0-2.289-.95c-.825 0-1.596.51-2.17 1.047L12.048 9.61 9.84 7.653c-.575-.537-1.347-1.047-2.172-1.047-.825 0-1.597.297-2.17.833-.65.608-.795 1.298-.795 2.142 0 .844.252 1.642.902 2.25l6.443 6.122 1.338-1.273c.382.35.813.644 1.282.87zM18 12h3v2h-3v3h-2v-3h-3v-2h3V9h2v3z"/>
    </defs>
    <g fill="none" fill-rule="evenodd">
        <path d="M0 0h24v24H0z"/>
        <mask id="b" fill="#fff">
            <use xlink:href="#a"/>
        </mask>
        <g fill="#32377D" mask="url(#b)">
            <path d="M0 0h24v24H0z"/>
        </g>
    </g>
</svg>
