<svg xmlns="http://www.w3.org/2000/svg" xmlns:xlink="http://www.w3.org/1999/xlink" width="130" height="33" viewBox="0 0 130 33">
    <defs>
        <path id="a" d="M5.529 16.99c-.839 0-1.55-.093-2.041-.322-.781-.357-1.383-1.086-1.383-2.245 0-.981.28-1.886.618-3.036l2.49-8.719A13.005 13.005 0 0 0 .006 13.085c0 7.193 5.832 13.023 13.027 13.023 5.836 0 10.774-3.834 12.433-9.119H5.529zM13.033.062c-1.58 0-3.093.28-4.494.794L6.404 8.458h18.811C23.345 3.551 18.597.063 13.033.063z"/>
        <path id="c" d="M5.529 16.99c-.839 0-1.55-.093-2.041-.322-.781-.357-1.383-1.086-1.383-2.245 0-.981.28-1.886.618-3.036l2.49-8.719A13.005 13.005 0 0 0 .006 13.085c0 7.193 5.832 13.023 13.027 13.023 5.836 0 10.774-3.834 12.433-9.119H5.529zM13.033.062c-1.58 0-3.093.28-4.494.794L6.404 8.458h18.811C23.345 3.551 18.597.063 13.033.063z"/>
        <path id="e" d="M.119.063h26.06V26.12H.119z"/>
        <path id="g" d="M.006.063h25.46v26.045H.006z"/>
        <path id="i" d="M25.904 15.74c-1.461 7.044-8.36 11.568-15.406 10.106C3.455 24.38-1.07 17.483.394 10.441 1.86 3.398 8.758-1.124 15.802.34c7.045 1.463 11.568 8.36 10.102 15.401"/>
        <path id="k" d="M2.826 2.82h30.23l-.002 30.68-30.23.002z"/>
        <path id="m" d="M.05.101h13.538v9.916H.05z"/>
        <path id="o" d="M.05.102h13.538v9.915H.05z"/>
        <path id="q" d="M.05.101h13.538v9.916H.05z"/>
        <path id="s" d="M.023.042h14.295v11.344H.023z"/>
    </defs>
    <g fill="none" fill-rule="evenodd">
        <path fill="#ED1B2D" fill-rule="nonzero" d="M124.903 31.276h.57l.341 1.236.37-1.236h.552v1.688h-.345v-1.449l-.442 1.449h-.29l-.434-1.449v1.449h-.322v-1.688zm-1.097.28h-.594v-.28h1.54v.28h-.589v1.408h-.357v-1.407z"/>
        <path fill="#009A4E" d="M129.892 0H23.057c-3.734 0-5.636.039-7.715.294-4.68.542-8.814 2.56-11.345 5.542C1.463 8.857.108 12.543.108 16.486c0 4.471 1.767 8.666 4.987 11.806 2.399 2.342 5.485 3.764 9.426 4.353 2.632.394 5.264.37 7.596.34l1.62-.012h97.335L129.892 0z"/>
        <path fill="#FFF" d="M120.504 32.244H23.736c-6.419 0-13.099.419-18.123-4.48C2.663 24.878.848 20.9.848 16.485c0-3.857 1.391-7.453 3.69-10.18C7.171 3.196 11.32 1.508 15.43 1.022 17.545.762 19.516.73 23.057.73h105.867l-8.42 31.514z"/>
        <path fill="#ED1B2D" fill-rule="nonzero" d="M103.09 12.229c-.517 0-.866.227-1.229.584-1.237 1.215-2.661 4.917-3.363 7.78-.322 1.373-.476 2.144-.476 2.953 0 .765.35 1.195.95 1.195.47 0 .978-.326 1.333-.705.645-.668 1.09-1.643 1.596-2.853 1.206-2.854 2.069-6.568 2.069-7.784 0-.592-.182-1.17-.88-1.17zm4.377 7.907c-1.518 4.244-4.019 7.676-8.938 7.676-3.405 0-5.345-1.653-5.345-5.155 0-1.55.385-3.2.872-4.663 1.39-4.076 4.407-8.846 9.228-8.846 3.606 0 5.35 1.822 5.35 5.384 0 1.717-.577 3.981-1.167 5.604zm-55.569 2.622c0 1.1.521 1.977 1.717 1.977.452 0 .876 0 1.33-.098l1.59-5.803c-2.205.265-4.637 1.334-4.637 3.924zm10.143-6.676l-3.01 10.923c-2.107.548-4.28.868-6.487.868-2.782 0-5.539-1.355-5.539-4.5 0-5.472 5.897-7.027 10.306-7.446.23-.716.452-1.459.452-2.205 0-1.227-1.069-1.525-2.106-1.525-1.454 0-3.434.394-4.823.842l.777-2.982c1.487-.646 3.755-.934 5.38-.934 2.655 0 5.507.846 5.507 4.015 0 1-.193 1.976-.457 2.944zm35.197-6.45c-.73-.397-1.977-.484-2.994-.484-2.035 0-4.438.361-6.278 1.304L83.264 27.39h4.735l4.034-14.74a6.194 6.194 0 0 1 2.149-.355c.612 0 .955.03 1.23.045l1.826-2.709zm-48.083-.823c0-3.209-2.17-4.342-5.088-4.342-2.947 0-5.44 1.356-7.318 3.593-2.63 3.14-4.803 9.79-4.803 13.833 0 4.244 1.753 6.29 6.059 6.29 6.004 0 7.456-4.866 8.851-9.693l-5.184.975c-.419 1.356-1.459 5.28-3.278 5.28-1.098 0-1.325-1.032-1.325-1.939 0-2.723 1.623-7.909 2.595-10.498.518-1.364 1.848-4.508 3.66-4.508.416 0 .708.224.834.44.167.252.214.544.214.905 0 .143-.036.569-.104.876-.126.643-1.072 4.063-1.072 4.063l4.988-.87c.385-1.34.971-3.02.971-4.405zm26.037.827c-1.202-.354-2.524-.514-3.763-.514-3.656 0-7.531 1.972-7.565 6.09-.032 3.726 4.498 4.984 4.476 7.095-.02 1.719-1.545 2.366-3.032 2.366a13.83 13.83 0 0 1-3.641-.486l-.826 2.85c1.52.488 3.369.71 4.949.71 3.699 0 7.117-2.103 7.157-6.12.037-3.956-4.236-4.825-4.22-7.095.014-1.757 1.771-2.267 3.234-2.267.77 0 1.614.06 2.394.23l.837-2.86zm11.169.104h-3.464l1.35-4.997-4.985.816-1.095 4.18h-1.723l-.778 2.756h1.721s-2.661 9.681-2.853 10.487c-.13.523-.26 1.169-.26 1.691 0 1.296.846 2.233 1.942 2.526.415.13 1.132.191 1.951.191h3.435l.772-2.784h-1.746c-.776 0-1.49-.068-1.49-.973 0-.226.064-.489.124-.807a3333.56 3333.56 0 0 1 2.855-10.33h3.46l.784-2.756zm27.226 12.533c-.105.455-.167.847-.167 1.166 0 .97.746 1.167 1.557 1.167h1.624l-.654 2.784h-3.238c-1.013 0-1.818-.1-2.305-.289-1.098-.456-1.811-1.428-1.811-2.886 0-.65.13-1.324.288-2.004.197-.844 4.566-16.524 4.566-16.524l4.965-.944s-4.666 16.813-4.825 17.53z"/>
        <path fill="#F9B29D" fill-rule="nonzero" d="M12.601 17.385a.304.304 0 0 1-.304-.305c0-.17.13-.307.304-.307h.828c.162 0 .308.137.308.307a.314.314 0 0 1-.308.305h-.828zm-.908-1.015a.21.21 0 0 1-.21-.208c0-.12.094-.212.21-.212h.524c.113 0 .207.091.207.212a.208.208 0 0 1-.207.208h-.524zm-.032 1.855h-.512c-.12 0-.207-.1-.207-.214 0-.115.093-.21.207-.21h.512c.116 0 .212.095.212.21a.213.213 0 0 1-.212.214zm-1.036-.939h-.51a.211.211 0 0 1-.208-.21.21.21 0 0 1 .208-.213h.51a.21.21 0 0 1 .213.214c0 .11-.091.209-.213.209zm-.982-.916h-.515a.21.21 0 0 1-.212-.208c0-.12.092-.212.212-.212h.515c.118 0 .215.091.215.212a.213.213 0 0 1-.215.208zm-.548 1.855H8.58c-.115 0-.22-.1-.22-.214 0-.115.105-.21.22-.21h.515c.116 0 .206.095.206.21 0 .114-.09.214-.206.214zm.585-4.132h.512c.117 0 .216.095.216.214a.213.213 0 0 1-.216.213H9.68a.212.212 0 0 1-.213-.213.21.21 0 0 1 .213-.214zm.993.912h.52c.115 0 .214.095.214.214s-.1.21-.215.21h-.519a.213.213 0 0 1-.218-.21c0-.119.099-.214.218-.214zm1.576-.912h.514c.116 0 .213.095.213.214a.215.215 0 0 1-.213.213h-.514a.218.218 0 0 1-.22-.213c0-.119.1-.214.22-.214zm1.72.817c.173 0 .31.14.31.306a.303.303 0 0 1-.31.301h-.825a.31.31 0 0 1-.313-.301c0-.166.145-.306.313-.306h.825z"/>
        <path fill="#ED1B2D" fill-rule="nonzero" d="M10.673 15.43h.52a.213.213 0 0 0 .214-.212c0-.118-.1-.213-.215-.213h-.519a.215.215 0 0 0-.218.213c0 .12.099.212.218.212zm1.576-.91h.514a.215.215 0 0 0 .213-.214.214.214 0 0 0-.213-.213h-.514c-.12 0-.22.095-.22.213 0 .117.1.213.22.213zm3.732-.67h-.862a.457.457 0 0 0-.329.784.464.464 0 0 0 .329.135h.641l.277-.919h-.056zm-3.15 1.366a.31.31 0 0 0 .312.301h.826a.303.303 0 0 0 .31-.301.308.308 0 0 0-.31-.306h-.826a.314.314 0 0 0-.312.306zm.722 2.786c0 .253.212.46.46.46h.658l.271-.92h-.928c-.25 0-.46.202-.46.46z"/>
        <path fill="#ED1B2F" d="M15.21 16.627l.003-.004h-.002z"/>
        <path fill="#ED1B2D" fill-rule="nonzero" d="M14.125 16.154c0 .256.207.473.458.473h.627v-.004h.003l.28-.94h-.91a.47.47 0 0 0-.458.47m-2.464 1.648h-.512a.209.209 0 0 0-.207.21c0 .114.087.214.207.214h.512c.12 0 .212-.1.212-.214a.212.212 0 0 0-.212-.21m.763-1.64a.208.208 0 0 0-.207-.21h-.524c-.116 0-.21.09-.21.21a.21.21 0 0 0 .21.21h.524a.208.208 0 0 0 .207-.21m1.313.92a.313.313 0 0 0-.308-.308h-.828a.303.303 0 0 0-.305.307.303.303 0 0 0 .305.305h.828c.162 0 .308-.14.308-.305M9.68 14.52h.512a.213.213 0 1 0 0-.427H9.68a.21.21 0 0 0-.213.213c0 .117.092.213.213.213"/>
        <path fill="#ED1B2D" fill-rule="nonzero" d="M22.76 14.598h-.581a.253.253 0 0 1-.254-.253c0-.14.116-.253.254-.253h.58c.138 0 .245.113.245.253a.246.246 0 0 1-.244.253zm-.546 1.803h-.582a.249.249 0 0 1-.25-.247c0-.142.12-.254.25-.254h.582c.141 0 .254.112.254.254a.246.246 0 0 1-.254.247zm-.544 1.824h-.574a.255.255 0 0 1-.257-.257c0-.138.11-.25.257-.25h.574c.144 0 .255.112.255.25a.256.256 0 0 1-.255.257zm-1.177-.892h-.577a.254.254 0 0 1-.252-.253c0-.147.115-.254.252-.254h.577a.25.25 0 0 1 .252.254c0 .14-.113.253-.252.253zm-1.176-.932h-.578a.243.243 0 0 1-.252-.247.25.25 0 0 1 .252-.254h.578c.138 0 .254.112.254.254a.247.247 0 0 1-.254.247zm-.546 1.824h-.573a.26.26 0 0 1-.259-.257c0-.138.117-.25.26-.25h.572c.141 0 .259.112.259.25a.261.261 0 0 1-.26.257zm-1.963-.807a.345.345 0 0 1-.353-.338c0-.194.159-.352.353-.351h.942c.19 0 .349.158.349.351 0 .187-.16.338-.35.338h-.94zm.542-2.549h.948c.189 0 .342.161.342.347 0 .194-.153.35-.342.35h-.948a.348.348 0 1 1 0-.697zm1.932-.777h.576a.252.252 0 1 1 0 .505h-.576a.254.254 0 0 1-.252-.252c0-.14.116-.253.252-.253zm1.178.875h.573a.25.25 0 0 1 .254.249c0 .143-.11.258-.254.258h-.573a.254.254 0 0 1 0-.507zm9.008-1.117h-12.66a.473.473 0 0 1 .345.457.458.458 0 0 1-.457.462h-.936l-.275.913h.68a.47.47 0 0 1 0 .941h-.952l-.002.004h-.001l-.267.914h.647c.252 0 .458.203.458.46a.483.483 0 0 1-.393.466h13.943a13.12 13.12 0 0 0-.13-4.617zM9.095 17.801H8.58c-.116 0-.22.095-.22.21 0 .114.105.214.22.214h.515c.116 0 .206-.1.206-.214a.208.208 0 0 0-.206-.21zm1.53-.938h-.51a.21.21 0 0 0-.208.214c0 .11.092.209.208.209h.51a.211.211 0 0 0 .213-.21.21.21 0 0 0-.213-.213zm-.982-.912h-.515c-.12 0-.212.09-.212.21a.21.21 0 0 0 .212.21h.515a.213.213 0 0 0 .215-.21.211.211 0 0 0-.215-.21z"/>
        <g transform="translate(3.682 3.427)">
            <mask id="b" fill="#fff">
                <use xlink:href="#a"/>
            </mask>
            <path fill="#009A4E" d="M26.051 13.091c0 7.195-5.832 13.026-13.028 13.026-7.195 0-13.026-5.831-13.026-13.026C-.003 5.901 5.828.067 13.023.067c7.196 0 13.028 5.834 13.028 13.024" mask="url(#b)"/>
        </g>
        <g transform="translate(3.682 3.427)">
            <mask id="d" fill="#fff">
                <use xlink:href="#c"/>
            </mask>
            <g mask="url(#d)">
                <g transform="translate(-.127)">
                    <mask id="f" fill="#fff">
                        <use xlink:href="#e"/>
                    </mask>
                    <g mask="url(#f)">
                        <g transform="translate(.127)">
                            <mask id="h" fill="#fff">
                                <use xlink:href="#g"/>
                            </mask>
                            <g mask="url(#h)">
                                <g transform="translate(-.127)">
                                    <mask id="j" fill="#fff">
                                        <use xlink:href="#i"/>
                                    </mask>
                                    <g mask="url(#j)">
                                        <g transform="translate(-5.078 -5.077)">
                                            <mask id="l" fill="#fff">
                                                <use xlink:href="#k"/>
                                            </mask>
                                            <path d="M29.615 36.258L.018 30.105 6.266.065l29.597 6.153z" mask="url(#l)"/>
                                        </g>
                                    </g>
                                </g>
                            </g>
                        </g>
                        <g transform="translate(11.172 .127)">
                            <mask id="n" fill="#fff">
                                <use xlink:href="#m"/>
                            </mask>
                            <g mask="url(#n)">
                                <mask id="p" fill="#fff">
                                    <use xlink:href="#o"/>
                                </mask>
                                <g mask="url(#p)">
                                    <path d="M.26.179h13.189v9.656H.259z"/>
                                    <path d="M.472.256H13.31v9.397H.472z"/>
                                    <path d="M.682.333H13.17v9.139H.682z"/>
                                    <path d="M.894.41H13.03v8.88H.894z"/>
                                    <path d="M1.105.487h11.786v8.621H1.105z"/>
                                    <path d="M1.315.565h11.437v8.36H1.315z"/>
                                    <path d="M1.527.641h11.086v8.103H1.527z"/>
                                    <path d="M1.738.719h10.736v7.843H1.738z"/>
                                    <path d="M1.948.795h10.387v7.586H1.948z"/>
                                    <path d="M2.159.873h10.037v7.326H2.159z"/>
                                    <path d="M2.37.95h9.686v7.066H2.37z"/>
                                    <path d="M2.581 1.027h9.336v6.808H2.581z"/>
                                    <path d="M2.793 1.105h8.985v6.549H2.793z"/>
                                    <path d="M3.004 1.181h8.634v6.29H3.004z"/>
                                    <path d="M3.214 1.258H11.5V7.29H3.214z"/>
                                    <path d="M3.426 1.335h7.935v5.773H3.426z"/>
                                    <path d="M3.636 1.413h7.585v5.514H3.636z"/>
                                    <path d="M3.847 1.49h7.236v5.254H3.847z"/>
                                    <path d="M4.058 1.567h6.887v4.996H4.058z"/>
                                    <path d="M4.27 1.644h6.535V6.38H4.269z"/>
                                    <path d="M4.48 1.721h6.185V6.2H4.48z"/>
                                    <path d="M4.69 1.798h5.836v4.22H4.691z"/>
                                    <path d="M4.902 1.875h5.486v3.961H4.902z"/>
                                    <path d="M5.113 1.952h5.135v3.703H5.113z"/>
                                    <path d="M5.324 2.029h4.785v3.444H5.324z"/>
                                    <path d="M5.535 2.105h4.436v3.186H5.535z"/>
                                    <path d="M5.746 2.182h4.085V5.11H5.746z"/>
                                    <path d="M5.957 2.258h3.735v2.67H5.957z"/>
                                    <path d="M6.167 2.336h3.386v2.411H6.167z"/>
                                    <path d="M6.379 2.413h3.035v2.152H6.379z"/>
                                    <path d="M6.589 2.488h2.686v1.896H6.59z"/>
                                    <path d="M6.8 2.565h2.336v1.638H6.8z"/>
                                    <path d="M7.01 2.64h1.988v1.382H7.01z"/>
                                    <path d="M7.22 2.716H8.86v1.126H7.22z"/>
                                    <path d="M7.43 2.79h1.291v.871h-1.29z"/>
                                    <path d="M7.64 2.86h.943v.624H7.64z"/>
                                </g>
                            </g>
                        </g>
                        <g transform="translate(11.172 .127)">
                            <mask id="r" fill="#fff">
                                <use xlink:href="#q"/>
                            </mask>
                            <g mask="url(#r)">
                                <g transform="translate(-10.664 14.47)">
                                    <mask id="t" fill="#fff">
                                        <use xlink:href="#s"/>
                                    </mask>
                                    <path d="M.023.042h14.295v11.343H.023z" mask="url(#t)"/>
                                </g>
                            </g>
                        </g>
                    </g>
                </g>
            </g>
        </g>
    </g>
</svg>
