<svg xmlns="http://www.w3.org/2000/svg" width="130" height="31" viewBox="0 0 130 31">
    <g fill="none" fill-rule="nonzero">
        <path fill="#000" d="M114.705 22.44v-3.886s3.256.797 3.256-2.305V6.217h11.985v16.208h-4.343V10.016h-3.256v6.234s.87 8.067-7.642 6.19zM101.76 2.631l2.542-.997s.086 1.352 1.857 1.352c1.772 0 1.9-1.352 1.9-1.352l2.572.997s-.671 2.66-4.472 2.66c-3.8 0-4.399-2.66-4.399-2.66zm-2.943 19.764l.015-16.208h4.199v9.805l5.97-9.805h4.4v16.208h-4.213v-9.718l-6 9.718h-4.371zm-32.037 0V6.188h4.37v6.845l4.528-6.845h5.184l-5.827 7.827 6.171 8.381h-5.513l-4.543-6.902v6.902h-4.37zm-12.812 0l2.271-4.525-5.785-11.683h5.17l2.872 6.817 2.442-6.817h4.842l-7.113 16.208h-4.7zm-19.798.014v-3.884s3.257.796 3.257-2.306V6.188h11.984v16.208H45.07V9.988h-3.256v6.233s.87 8.068-7.643 6.19zm.558 4.228h3.036v-2.397h.657v5.9h-.657v-2.884h-3.036v2.884h-.658v-5.9h.658v2.397zm8.65-1.778h-2.416v1.751h2.344v.62h-2.344v2.29h2.416v.62h-3.073v-5.9h3.073v.619zm4.12 4.45h-.16c-2.202 0-2.717-1.345-2.717-2.3 0-.956.515-2.3 2.717-2.3h.16v-.708h.656v.707h.16c2.202 0 2.717 1.345 2.717 2.3 0 .956-.515 2.3-2.717 2.3h-.16v.832h-.657v-.832zm0-3.98h-.178c-1.616 0-2.025.928-2.025 1.68 0 .75.409 1.68 2.025 1.68h.177v-3.36zm.656 3.36h.178c1.616 0 2.025-.93 2.025-1.68 0-.752-.409-1.68-2.025-1.68h-.178v3.36zm5.897-3.83v5.281h-.657V24.86h-1.439v-.62h3.535v.62h-1.439zm3.925 2.662c-.266-.026-.675-.115-.994-.372-.427-.344-.515-.804-.515-1.202 0-.531.168-.911.408-1.177.462-.513 1.12-.531 1.474-.531h1.385v5.9h-.657v-2.583h-.355l-1.688 2.583h-.799l1.741-2.618zm.462-2.662c-.31 0-.728.017-1.012.31-.188.208-.29.48-.284.76 0 .397.151.646.337.795.248.195.622.248.906.248h.693V24.86h-.64zm3.837 1.778h3.037v-2.397h.656v5.9h-.656v-2.884h-3.037v2.884h-.657v-5.9h.657v2.397zm8.845 1.84H68.6l-.71 1.663h-.728l2.725-6.184 2.655 6.184h-.728l-.693-1.663zm-.257-.62l-.995-2.362-1.012 2.362h2.007zm4.111-.336c-.266-.026-.674-.115-.994-.372-.427-.344-.514-.804-.514-1.202 0-.531.168-.911.408-1.177.461-.513 1.12-.531 1.475-.531h1.384v5.9h-.656v-2.583h-.356l-1.686 2.583h-.8l1.74-2.618zm.462-2.662c-.31 0-.728.017-1.011.31-.19.207-.291.48-.285.76 0 .397.151.646.337.795.248.195.623.248.907.248h.693V24.86h-.64zm6.26 1.91l2.523-2.53h.887l-2.77 2.752 2.86 3.149h-.907l-2.424-2.707-.17.168v2.539h-.656v-5.9h.657v2.53zm4.425.425c0-1.76 1.376-3.052 3.08-3.052 1.705 0 3.08 1.292 3.08 3.052 0 1.752-1.366 3.053-3.08 3.053-1.713 0-3.08-1.3-3.08-3.053zm.674 0a2.412 2.412 0 0 0 2.406 2.433 2.412 2.412 0 0 0 2.407-2.433 2.412 2.412 0 0 0-2.407-2.432 2.412 2.412 0 0 0-2.406 2.432zm6.847 2.946l.985-6.228 2.272 4.98 2.318-4.989.923 6.237h-.674l-.56-4.104-2.015 4.351-1.99-4.351-.586 4.104h-.673zm12.573-5.9v5.9h-.657V24.86h-3.036v5.281h-.658v-5.9h4.351zm5.152 4.237h-2.521l-.71 1.663h-.729l2.726-6.184 2.655 6.184h-.728l-.693-1.663zm-.257-.62l-.995-2.362-1.011 2.362h2.006zm3.526-1.22h3.037v-2.397h.657v5.9h-.657v-2.884h-3.037v2.884h-.657v-5.9h.657v2.397zm9.698-1l-4.12 4.768v-6.165h.657v4.52l4.12-4.768v6.148h-.657v-4.503zm3.782 1.884c-.266-.026-.674-.115-.994-.372-.427-.344-.515-.804-.515-1.202 0-.531.169-.911.408-1.177.462-.513 1.118-.531 1.474-.531h1.386v5.9h-.658v-2.583h-.355l-1.687 2.583h-.798l1.74-2.618zm.462-2.662c-.31 0-.728.017-1.012.31-.188.207-.29.48-.285.76 0 .397.152.646.338.795.248.195.62.248.906.248h.692V24.86h-.639zM91.549 6.188c2.814 2.946 6.074 5.832 6.073 8.907 0 3.074-2.38 8.482-9.13 8.482-6.752 0-9.122-5.325-9.122-8.482 0-3.157 3.685-6.288 6.227-8.907 2.542-2.618 2.895-4.667 2.895-4.667s.243 1.722 3.056 4.667zm-7.1 3.871c.079-.199.1-.277.035-.313-.064-.035-.17.064-.17.064-.658.57-1.994 1.715-2.278 3.65-.287 1.935.914 2.789 1.199 2.973.286.186.328.016.328-.255 0-.27-.041-2.035.072-3.202.115-1.166.736-2.718.815-2.917z"/>
        <path fill="#CC2229" d="M.577.426V30.18h30.195V.426H.577zm9.441 4.895s.086-1.665 1.729-1.665c1.642 0 1.714 1.665 1.714 1.665v11.611s.02 1.053 1.185 1.053c1.166 0 1.1-1.053 1.1-1.053V5.321s.158-1.665 1.758-1.665 1.728 1.665 1.728 1.665v11.611s-.057 4.269-4.585 4.497c-4.542-.13-4.642-4.497-4.642-4.497l.013-11.611zm-2.313 20.59s-3.486 0-3.486-3.402V5.32s0-1.665 1.743-1.665S7.69 5.32 7.69 5.32V21.43s-.129 1.08 1.2 1.08h15.526l-3.743-9.107s-.6-1.579 0-2.66c.6-1.082 3.143-5.422 3.143-5.422s.7-1.665 2.014-1.665c1.314 0 2.07 1.409 1.528 2.391-.543.982-3 5.18-3 5.18s-.628.868 0 2.05c1.029 2.447 5.2 12.636 5.2 12.636H7.705z"/>
    </g>
</svg>
