<svg xmlns="http://www.w3.org/2000/svg" width="120" height="36" viewBox="0 0 120 36">
    <g fill="none" fill-rule="evenodd">
        <path fill="#000" d="M2.796 28.079h94.427l.415-1.168H2.796v-15.58H120v19.374H2.796V28.08zm31.969-7.586s.237-2.452.237-3.035c.059-.467 0-1.634-1.125-1.634h-4.914l-3.197 8.637h3.848l2.31-6.244-.474 6.244h3.434l4.203-6.128-2.31 6.128h3.848l3.257-8.637h-5.98l-3.137 4.669zm20.839 4.143a15.93 15.93 0 0 0 3.256-.35l1.006-2.568c-1.362.174-2.665.524-3.67.116-1.836-.758-.711-2.626.591-3.208.533-.234 1.363-.526 2.25-.467.415 0 1.362 0 1.718.817l1.302-3.035c-2.19-.526-4.44-.234-5.565 0-2.605.467-6.098 2.335-6.039 5.778 0 1.925 2.428 3.034 5.15 2.917zm38.482-.175h4.202l3.257-8.637h-4.264l-3.195 8.637zm-50.974 0h4.203l3.257-8.637h-4.263l-3.197 8.637zm25.99-5.544h-2.19l1.184-3.093h-4.027l-3.256 8.637h4.026l1.125-2.918h2.132L67.03 24.46h4.026l3.255-8.637h-4.084l-1.124 3.093zm20.603 2.684l2.13-5.777h-4.143l-3.197 8.637h8.288l1.065-2.86h-4.143zm20.069.175c.06-.583.178-2.976.237-4.318.06-.583-.059-.992-.355-1.284-.355-.35-.77-.35-.77-.35h-4.913l-3.256 8.637h3.611l2.249-6.128-.237 6.128h5.98l3.255-8.637h-3.552l-2.249 5.952zm-31.437.35l.355-.933h4.619l.77-2.16h-4.62l.357-.933h4.854l.828-2.276h-8.82l-3.256 8.637h8.999l.828-2.334h-4.914z"/>
        <path fill="#0C0E0F" d="M26.121 19.793c.238-.409-.058-1.167-.592-1.752-.473-.583-1.125-.758-1.184-1.05.652-1.284-.06-2.393-1.065-2.86a1.842 1.842 0 0 0-.71-1.634c.236-.525.533-1.984-.593-2.859.474-1.808-1.421-2.859-2.427-2.918-.473-.35-1.125-.583-2.014-.642a2.185 2.185 0 0 0-.296-2.86c.06-.991-.65-1.925-1.657-2.275-.355-.817-2.25-.7-2.428.058-1.125.409-1.775 1.576-1.657 2.684-.652.7-.652 1.868 0 2.684-.592-.058-1.421.118-1.954.35h-.06c-.473-.232-.947-.35-1.48-.232-.118-.118-.473-.234-.71-.292a1.79 1.79 0 0 0-.77-.7c-.118-.526-.533-.934-.946-1.11.058-.408-.119-.875-.238-1.109-.237-.35-.177-.933-.118-1.05.296-.292.059-.584-.059-.7-.592-.584-1.184-.292-1.361 0C3.21.475 2.559.242 2.203.358 1.67-.05.901.242.901.708c-.355.234-.592.35-.059 1.284-.118 1.926.118 2.51 1.421 3.56-.415.408-.592 1.225-.237 1.867-.118.933.415 1.867 1.067 2.334.177 1.343 1.479 2.1 2.368 2.276.591.875 1.42 1.284 2.25 1.342.058.409.177.76.414 1.109-.178.759-.178 1.459.059 2.101-.592.642-.829 1.635-.534 2.626-.71.818-.946 2.159-.473 3.268 0 0-.177.292-.296.583-.473.235-.947.759-1.184 1.459-.236.525-.118 1.225 0 1.81-.77.641-1.243 2.275.118 3.56-.296.932-.946 1.75-1.717 2.742-.532.7-.65 1.05 0 1.867.474.642 1.362 1.168 2.132 1.168 1.42.058 2.427-.234 2.546-1.285.118-.583-.296-1.808-.296-2.1-.06-.292.058-.758.354-1.516 1.303-.293 1.954-1.226 2.073-2.16.947-.526 1.657-1.634 1.302-2.86.178-.175.237-.35.355-.642 0 .526.355.876.533 1.226-.533 1.342.178 2.568 1.006 3.093-1.42 2.043.118 3.035.533 3.443.533.467.592 1.343 1.422 1.634.71.233 2.96 0 3.374-.934.118-.233.237-.524.118-.7 0-.7-.414-1.167-1.183-1.634-.888-.466-.888-.35-1.303-1.634 1.362-.642 1.599-2.159 1.54-2.743.946-1.167.888-2.158.355-2.8.178-.525.118-.934 0-1.343.829-.7 1.184-1.75.888-2.86.474-.7.592-1.458.414-2.333.415.642 1.065.874 1.776.874 0 0 .06.176.118.292-.237.409-.118.876.414 1.226.06.234.178.35.296.467 0 .176.474.934 1.007.526.058 0 .651-.409.651-.409.533.41 1.717.06 1.598-.7z"/>
        <path fill="#FFF" d="M20.615 15.94c0-.057-.059-.64-.059-.875.237-.292.651-.817.71-1.46.296-.116.71-.407.888-.7 1.362 1.285-.058 2.92-1.539 3.036zm2.428-1.225c1.48.642 1.065 2.393-.06 2.86-1.538.7-2.545-.467-2.368-1.226 1.125-.175 2.073-.7 2.428-1.634zm-.414 4.144c.059-.059.177-.059.236.058-.06.116-.177.467-.177.525-.178-.175-.178-.466-.06-.583zm.947.7c-.178.058-.296.176-.415.292-.177.058-.177-.875.119-.76.296.06.236.293.296.468zm.414.117s.178.117.236.291c-.06.059-.296.235-.414.292-.237.176-.297.176-.355.059-.177-.234.119-.525.533-.642zm.355-1.81s.888.41 1.184 1.401c-.355-.291-1.006-1.05-1.006-1.108-.119-.118-.237-.176-.237-.118 0 .176.474.817.651.992.296.408.888.7.474.992-.119.117-.474.176-.947-.408-.119-.117-.473-.291-.651-.409-.12-.408-.533-.467-.652-.408-.117-.117-.236-.233-.355-.233-.059-.117-.118-.408-.177-.408.295-.06.947-.409 1.243-.7.119.175.355.35.473.408zm-9.354-1.342c-3.374.059-6.394-1.576-6.572-3.21.592-.116 1.303-.291 1.836-.875 2.841 2.218 8.584 1.226 10.301-.524.77 1.283.06 4.55-5.565 4.61zm-3.79-6.944c3.198 1.284 7.876.233 8.822-.992 2.19 2.976-1.716 4.727-5.387 4.669-2.428-.059-3.493-.818-4.026-1.226.237-.35.71-1.342.592-2.45zm-4.853-.35c-.947.875-3.138.817-3.67-1.342 1.42.992 3.61-.176 3.788-1.693.177.117.296.292.415.409.414.759.355 1.808-.533 2.626zm1.776 1.459c-1.54 1.692-3.849.583-4.322-.759 1.954.817 4.144-.875 3.73-3.034.592.116 1.894 2.334.592 3.793zM6.348 12.03c2.013-.059 3.848-2.042 2.309-4.902 1.303.35 2.131 1.4 2.013 3.268-.178 2.743-3.197 2.801-4.322 1.634zm2.368 2.917c2.783 2.51 8.584 2.744 11.307.642.238 1.226-.71 3.268-5.032 3.443-2.545.058-6.808-.933-6.275-4.085zm2.19 6.653c-2.072-.584-3.493-2.86-2.309-4.493 1.717 2.334 5.328 2.392 6.453 2.392 0 1.517-1.835 2.568-4.144 2.101zm3.138.059c-.119.991-.77 2.451-3.08 2.567-1.894.117-4.439-2.043-2.9-4.434 1.066 2.159 3.908 2.917 5.98 1.867zM7.65 22.944c1.125 1.459 2.783 1.926 4.382 1.575.118.934-1.244 2.219-3.256 1.46-.948-.35-1.836-1.752-1.126-3.035zm-1.599 3.909c1.303 2.51 3.612 2.042 4.145 1.926-.119.7-1.007 2.042-3.02 1.342-1.42-.467-2.071-2.508-1.125-3.268zm2.606-.525c.532.292 1.894.583 3.02-.175.236.7-.77 3.092-3.612 2.1-1.422-.466-2.723-2.86-1.184-4.376.058 1.108.71 1.926 1.776 2.451zm10.182 6.945l.119.058c-.238.467-1.954.876-2.664.583-.83-.407-.652-.874-1.185-1.341-1.184-1.109-1.006-1.576-.828-2.16.059-.292.178-.467.414-.759.829.292 1.184.235 1.895.059 0 .058 0 .233.059.291a8.675 8.675 0 0 0-1.007.176l.178.409s.414-.118.947-.176c0 0 .06.292.118.408-.474 0-.888.176-.888.176l.118.35s.65-.175 1.125-.117c.473.408 2.368.875 1.421 1.868-.355.35-1.244.466-1.954.466v.117c.12.176 1.422.233 2.132-.408zm-.888-6.012c0 .235-.06 2.277-2.309 2.16-1.243-.058-2.368-.875-2.013-2.626.592.642 1.303 1.05 2.31 1.05a3.048 3.048 0 0 0 2.012-.584zm-2.072.176c-1.954 0-3.315-2.101-2.487-3.56.652 2.043 3.79 2.393 5.151.759.474.875-.236 2.86-2.664 2.801zm.356-2.16c-1.184 0-2.31-.641-2.487-1.75.119-.117.296-.408.415-.583 1.183.875 2.9.933 4.262.058.296 1.46-1.006 2.275-2.19 2.275zm-1.481-4.084c1.421.526 3.316.233 4.5-.934.236 2.86-3.256 3.736-4.914 2.334.118-.35.236-.874.236-1.283.06 0 .12-.058.178-.117zm.77-1.693c2.19-.116 3.493-.932 4.203-1.575.12 2.51-2.545 3.618-4.676 2.977a2.36 2.36 0 0 0 .473-1.402zM4.809 7.654c-1.599.758-3.02-.7-1.954-1.75 0 0 .237.35.296.467.118.117.592.291.888 0l-.119-.117c-.354.059-.532-.233-.65-.408-.119-.234-.238-.468-.356-.526-1.48-1.11-1.598-1.517-1.48-3.15 0-.06 0-.118.118-.118.178.058.237.176.237.292.06.292.178 1.109.355 1.284 0 0 .178-.117.238-.117-.178-.233-.296-.992-.296-1.225-.06-.292-.415-.584-.71-.467 0-.176-.12-.409-.238-.584.118-.117.237-.175.414.058.178.175.533.76.77 1.11.177.408.296.64.414.64.12 0 .178-.057.178-.057s-.77-1.518-1.125-1.984C1.67.885 1.552.768 1.434.768c.118-.175.355-.059.591.117.356.35.77 1.108 1.185 1.926 0 0 .237-.058.118-.35A30.562 30.562 0 0 0 2.44.885c.356.058.888.7 1.126 1.4 0 .526.118.817.177.876-.119.233-.237.408-.177.758h.118l.118-.175c.118-.467.414-.408.414-.467-.177-.41-.296-.934 0-1.342.178-.35.415-.176.593 0-.238.291-.238.933-.06 1.283 0 .118.296.642.296.992 0 .584-.414.76-.296 1.11.178.408-.178.583-.06.758.06.117.474-.058.474-.292 0-.116-.06-.641.178-.874.947.408 1.066 2.042-.532 2.742zm1.657 22.584c.296.409 1.243.526 1.718.469-.296.7-.415 1.34-.355 1.632.059.409.296 1.169.355 1.635 0 .175-.06.35-.237.408-.533.291-1.954.525-3.02-.292l-.058.059c.413.583 1.183.932 2.13.875v.057c-.77.234-1.776-.116-2.368-.758-.296-.41-.473-.7 0-1.283.651-.934 1.243-1.517 1.835-2.802zM20.261 8.063c.058-.058.058-.292-.06-.526.592.175 1.717 1.05.947 2.51 0-.409-.118-1.46-.887-1.984zm1.124 4.785c0-.584-.178-1.109-.474-1.46.534-.583.711-1.049.77-1.224.237.116 1.184 1.866-.296 2.684zm-10.3-3.793c-.18-.76-.534-1.46-1.065-1.867.71-.233 1.598-.408 2.368-.058.118.117.296.117.296 0 .06-.059 0-.175-.118-.175-.238-.175-.12-.409.058-.525.119-.059 0-.117 0-.117-1.48-.641-1.065-2.568.06-2.626.059 0 .118-.117 0-.175-.119 0-.474.058-.533.058 0-1.575 1.184-2.159 1.894-2.101.118 0 .059-.117-.06-.117-.058 0-.295-.117-.236-.175.355-.292 1.184-.175 1.243.058 0 0 0 .058-.059.058v.117c1.125.233 1.776.992 1.658 1.926-.118 0 0 .116 0 .116.355.233.71.7.71 1.459-.06.933-.592 1.166-.77 1.166.237.41 0 .643-.237.76-.119.058 0 .116.059.116.118 0 .414-.116.652-.35 1.48.117 2.9.584 2.782 1.342-.178.876-2.31 1.751-5.388 1.751-1.124 0-2.249-.174-3.315-.641zM3.387 4.153c-.06.058-.237-.117-.414-.234-.178-.058-.415-.058-.415-.116 0 0 .178-.058.355-.058.118 0 .237.058.356.058.058.116.177.291.118.35zm3.907 28.185c-.356-.116-.888-.174-1.184-.174v-.409c.355.059.888.117 1.302.233l-.118.35zm.237-.758c-.533-.175-.651-.175-1.243-.233v-.35c.65 0 .829 0 1.361.176l-.118.407zM15.94 4.97c.059-.058.177.291.118.29 0 .059-.119 0-.237 0-.178 0-.415.468-.71.584-.356.176-.71-.291-.889-.408-.236-.117-.473-.117-.532-.117-.06.058-.179.176-.237.117-.06-.059 0-.175.177-.408 0 0 .06-.059.06-.117.118 0 .118.117.118.175.592 0 .888-.234 1.954-.058.06-.058.119-.058.178-.058zm-.83.7c.06-.058.356-.409.474-.467a4.53 4.53 0 0 0-1.302.06c.295.116.473.524.828.407zm.415-3.384c.158-.004.31.06.415.175.177.116.355.467.355.817.059.583-.236 1.05-.592 1.109-.118 0-.237-.058-.355-.117-.237-.175-.356-.525-.415-.875 0-.584.237-1.05.592-1.11zm.474 1.633c.059-.116.118-.35.118-.641-.059-.292-.118-.525-.296-.7-.059-.06-.178-.06-.237-.06-.296 0-.474.41-.415.876v.117c.06-.292.178-.526.415-.584.237 0 .414.292.414.642v.35zm-2.131-1.575a.544.544 0 0 1 .415.175c.236.175.354.467.354.817 0 .583-.296 1.109-.651 1.109-.178 0-.296-.059-.414-.117a1.178 1.178 0 0 1-.356-.875c0-.584.296-1.05.652-1.109zm.473 1.517c.059-.175.118-.35.118-.525-.06-.292-.118-.525-.296-.7-.06-.058-.178-.117-.296-.058-.237 0-.474.408-.474.875 0 .175.06.35.178.467v.058-.058c-.06-.058-.06-.117-.06-.233 0-.35.178-.643.415-.643s.414.292.414.643v.174z"/>
    </g>
</svg>
