<svg xmlns="http://www.w3.org/2000/svg" width="114" height="35" viewBox="0 0 114 35">
    <path fill="#157563" fill-rule="nonzero" d="M72.631 34.53V18.585h17.716v4.337h-8.396v1.542h7.625v4.085h-7.625v1.693h8.615v4.321H72.63h.05l-.049-.035zm0-21.739V3.135c1.157-.695 2.565-1.084 4.09-1.084h16.846v11.826h-4.174V5.829H76.72c-1.844 0-3.354.966-3.354 2.135 0 1.169 1.51 2.134 3.354 2.134h11.264l-2.816 3.779H76.72a8.105 8.105 0 0 1-4.089-1.086zm19.411 20.416l3.033-4.472c1.375.576 2.581.982 3.655 1.254 1.074.272 2.079.406 3.018.406.653 0 1.157-.085 1.54-.238.369-.134.554-.338.554-.592 0-.459-.938-.797-2.816-1.017-.469-.07-.938-.133-1.408-.187-1.978-.306-3.504-.813-4.56-1.558-1.056-.747-1.575-1.66-1.575-2.78 0-1.71 1.022-3.1 3.067-4.185 2.045-1.083 4.726-1.626 8.046-1.626 1.525 0 3.017.118 4.49.372 1.476.237 2.968.594 4.477 1.085l-2.917 4.185c-.89-.398-1.816-.71-2.764-.932a11.574 11.574 0 0 0-2.7-.323c-.654 0-1.173.068-1.542.204-.352.134-.535.322-.535.559 0 .457 1.324.847 3.972 1.185.419.069.753.103.988.137 1.828.253 3.252.76 4.308 1.523 1.057.763 1.576 1.677 1.576 2.762 0 1.78-1.055 3.219-3.184 4.338-2.111 1.135-4.878 1.693-8.281 1.693a30.22 30.22 0 0 1-5.23-.457 33.708 33.708 0 0 1-5.212-1.336zm17.985-19.331H114V6.539c0-3.693-3.453-4.49-5.23-4.49H95.26v11.827h4.089V5.828h8.633c1.173 0 2.045.711 2.045 1.813v6.235zM59.49 25.787c.603-.052 1.074-.171 1.424-.356.485-.272.739-.66.739-1.152 0-.509-.253-.9-.74-1.17-.35-.203-.82-.34-1.423-.39v-4.134h.504c3.47 0 6.133.458 7.978 1.39 1.844.914 2.766 2.253 2.766 3.982 0 1.151-.47 2.084-1.392 2.812-.937.746-2.179 1.17-3.753 1.286l7.04 6.473V18.586h-.034v15.978h.034-10.645L59.49 31.75v-5.963h-.001zM72.631 3.135v9.656c-1.81-1.084-3.001-2.846-3.001-4.828 0-2 1.191-3.762 3.001-4.828zm-13.142 10.74V9.522l4.208 4.355h-4.208zm0-8.318V2.051h4.542L59.49 5.557zm4.995-3.507h4.174v11.826h-4.174V2.05zm-7.14 20.653v3.117h1.474c.253 0 .47-.017.671-.033v5.963l-2.145-2.456v5.27h-9.37V18.586h11.515v4.134c-.201-.017-.418-.017-.67-.017h-1.475zM59.49 2.05v3.507l-2.18 1.694 2.18 2.27v4.355h-1.56L51.544 7.25l6.723-5.2h1.223V2.05zm-26.5 32.513V21.212l.352.475c.201.27.434.66.72 1.202a.68.68 0 0 0 .05.12c.134-.254.369-.627.688-1.136.067-.084.101-.134.133-.185l2.196-3.101H47.94L38.72 27.5v7.065h-5.732v-.002zm0-20.687v-3.779h6.067c1.844 0 3.336-.965 3.336-2.134 0-1.17-1.492-2.135-3.336-2.135h-6.068V2.05h6.068c3.89 0 7.09 2.66 7.09 5.913 0 3.252-3.201 5.913-7.09 5.913h-6.068zM47.286 0h4.173v13.876h-4.173V0zM32.988 2.05v3.778h-6.034c-1.844 0-3.352.966-3.352 2.135 0 1.169 1.508 2.134 3.352 2.134h6.035v3.779h-6.035c-3.905 0-7.09-2.66-7.09-5.913s3.185-5.913 7.09-5.913h6.034zm0 19.162v13.351H29.1v-7.065l-8.884-8.913h10.88l1.893 2.627zM5.348 34.563V23.804H.034v-5.22h20.164v5.22h-5.313v10.76H5.348zm9.42-20.687h3.973V6.539c0-3.693-3.454-4.49-5.23-4.49H0v11.827h4.09V5.828h8.632c1.174 0 2.045.711 2.045 1.813v6.235z"/>
</svg>
