<svg xmlns="http://www.w3.org/2000/svg" width="80" height="47" viewBox="0 0 80 47">
    <path fill="#DE2027" fill-rule="nonzero" d="M0 0l23.38 23.423.092.077-.092.124L.154 46.86H4.26L27.562 23.5 4.105.015 0 0zm18.55 0l-4.12.015 23.394 23.408.062.077-.062.124L14.6 46.86h4.12L42.022 23.5 18.55 0zm3.117 0L45.03 23.423l.092.077-.092.124L21.837 46.86h4.105L49.229 23.5 25.772 0h-4.105zm7.207 0l23.379 23.423.077.077-.077.124-23.21 23.237h4.105c.077-.072 23.395-23.438 23.395-23.438L79.923 0h-4.12L54.474 21.35l-.077.094-.092-.093-1.374-1.36-.108-.093.108-.093L72.7 0h-4.12L50.787 17.842l-.093-.093-1.373-1.36-.093-.11L65.478.016h-4.105L47.284 14.131l-.108.108-.093-.108-1.373-1.376-.093-.077.093-.093L58.286.015 54.166 0 43.673 10.528l-.108.078-.093-.093-1.373-1.36-.093-.109.093-.092L51.034.015h-4.09l-6.898 6.864-.077.109-.092-.109L32.994.015 28.874 0zM7.222.015l23.365 23.408.107.077-.107.124L7.407 46.86h4.09L34.8 23.5 11.327.015H7.222z"/>
</svg>
