<svg xmlns="http://www.w3.org/2000/svg" xmlns:xlink="http://www.w3.org/1999/xlink" width="24" height="24" viewBox="0 0 24 24">
    <defs>
        <path id="a" d="M11.891 4.554l3.765 1.334a.995.995 0 0 0 .557.03l.134-.04 2.931-1.155c1.266-.499 2.625.39 2.717 1.738l.005.146v12.005c0 .817-.484 1.554-1.212 1.868l-.149.057-3.992 1.358c-.36.121-.75.139-1.118.046l-.183-.056-5.002-1.773a.965.965 0 0 0-.556-.034l-.135.044-2.931 1.155c-1.266.499-2.625-.39-2.717-1.738L4 19.393l.001-3.988c.116.14.183.213.183.213 1.003 1.316 2.65 1.339 3.633 0 0 0 1.11-1.226 2.186-3.15v6.069l6.004 2.138V7.613l-4.023-1.415c.01-.19.016-.38.016-.573 0-.366-.037-.724-.109-1.07zM6.001 2C8.208 2 10 3.818 10 6.063c0 3.879-3.41 8.136-3.41 8.136-.315.437-.854.442-1.18 0 0 0-3.41-4.257-3.41-8.136C2 3.818 3.791 2 6 2zm0 1.917c-1.193 0-2.16.982-2.16 2.194 0 1.211.966 2.194 2.16 2.194 1.192 0 2.16-.983 2.16-2.194C8.16 4.9 7.192 3.917 6 3.917z"/>
    </defs>
    <g fill="none" fill-rule="evenodd">
        <path d="M0 0h24v24H0z"/>
        <mask id="b" fill="#fff">
            <use xlink:href="#a"/>
        </mask>
        <g fill="#32377D" mask="url(#b)">
            <path d="M0 0h24v24H0z"/>
        </g>
    </g>
</svg>
