<svg xmlns="http://www.w3.org/2000/svg" xmlns:xlink="http://www.w3.org/1999/xlink" width="24" height="24" viewBox="0 0 24 24">
    <defs>
        <path id="a" d="M17.408 12c0-2.766 1.276-4.32 2.276-4.32H21C20.331 6.62 19.78 6 17.342 6H7.335C3.6 6 2 9.441 2 12c0 2.558 1.6 6 5.335 6h10.007c2.437 0 2.989-.621 3.657-1.68h-1.315c-.999 0-2.276-1.555-2.276-4.32zm-2.72 1.794c-.164.253-.675.016-.675.016l-2.957-1.336s-.263.669-.467 1.14c-.204.471-.361 1.004-1.21.408-.848-.597-3.58-3.25-3.58-3.25s-.345-.283-.172-.55c.162-.252.674-.016.674-.016l2.956 1.336s.264-.669.468-1.14c.204-.47.36-1.004 1.209-.407.847.597 3.58 3.25 3.58 3.25s.346.283.174.55zm6.186-3.867h-.748c-.56 0-1.106.754-1.106 1.98s.546 1.98 1.106 1.98h.748c.56 0 1.126-.754 1.126-1.98s-.567-1.98-1.126-1.98z"/>
    </defs>
    <g fill="none" fill-rule="evenodd">
        <path d="M0 0h24v24H0z"/>
        <mask id="b" fill="#fff">
            <use xlink:href="#a"/>
        </mask>
        <g fill="#000000" mask="url(#b)">
            <path d="M0 0h24v24H0z"/>
        </g>
    </g>
</svg>
