<svg xmlns="http://www.w3.org/2000/svg" xmlns:xlink="http://www.w3.org/1999/xlink" width="24" height="24" viewBox="0 0 24 24">
    <defs>
        <path id="a" d="M18.461 12c0-.997.614-1.784 1.539-2.325a8.426 8.426 0 0 0-.659-1.593c-1.037.271-1.877-.135-2.582-.84-.705-.707-.921-1.545-.65-2.583A8.427 8.427 0 0 0 14.516 4c-.541.924-1.519 1.539-2.516 1.539-.997 0-1.976-.614-2.517-1.539a8.356 8.356 0 0 0-1.592.659c.271 1.037.056 1.876-.65 2.582-.706.706-1.545 1.112-2.582.841A8.33 8.33 0 0 0 4 9.674c.924.54 1.539 1.328 1.539 2.326 0 .997-.614 1.975-1.539 2.517a8.39 8.39 0 0 0 .659 1.592c1.037-.27 1.877-.055 2.582.65.705.707.921 1.545.65 2.582A8.401 8.401 0 0 0 9.484 20c.541-.925 1.519-1.539 2.516-1.539.997 0 1.975.614 2.516 1.539a8.368 8.368 0 0 0 1.593-.66c-.271-1.037-.056-1.875.65-2.581.706-.706 1.545-1.112 2.582-.841A8.426 8.426 0 0 0 20 14.325c-.925-.54-1.539-1.327-1.539-2.325zM12 15.48a3.479 3.479 0 1 1-.001-6.958A3.479 3.479 0 0 1 12 15.48z"/>
    </defs>
    <g fill="none" fill-rule="evenodd">
        <path d="M0 0h24v24H0z"/>
        <mask id="b" fill="#fff">
            <use xlink:href="#a"/>
        </mask>
        <g fill="#000000" mask="url(#b)">
            <path d="M0 0h24v24H0z"/>
        </g>
    </g>
</svg>
