<svg xmlns="http://www.w3.org/2000/svg" xmlns:xlink="http://www.w3.org/1999/xlink" width="24" height="24" viewBox="0 0 24 24">
    <defs>
        <path id="a" d="M18.73 5.27c-1.48-1.48-2.59-1.258-2.59-1.258l-5.182 5.18-5.922 5.923L4 20l4.884-1.036 5.922-5.922 5.182-5.18c0-.002.222-1.112-1.258-2.593zM8.594 18.375l-1.665.36a3.813 3.813 0 0 0-.708-.957 3.862 3.862 0 0 0-.955-.71l.358-1.663.482-.482s.906.019 1.929 1.041c1.022 1.023 1.04 1.93 1.04 1.93l-.48.48z"/>
    </defs>
    <g fill="none" fill-rule="evenodd">
        <path d="M0 0h24v24H0z"/>
        <mask id="b" fill="#fff">
            <use xlink:href="#a"/>
        </mask>
        <g fill="#32377D" mask="url(#b)">
            <path d="M0 0h24v24H0z"/>
        </g>
    </g>
</svg>
