<svg xmlns="http://www.w3.org/2000/svg" xmlns:xlink="http://www.w3.org/1999/xlink" width="24" height="24" viewBox="0 0 24 24">
    <defs>
        <path id="a" d="M12 1.5c5.8 0 10.501 4.701 10.5 10.5 0 5.799-4.701 10.5-10.5 10.5-5.8 0-10.5-4.7-10.5-10.5C1.5 6.202 6.201 1.5 12 1.5zm0 1A9.5 9.5 0 0 0 2.5 12a9.5 9.5 0 0 0 9.5 9.5 9.5 9.5 0 0 0 9.5-9.5A9.499 9.499 0 0 0 12 2.5zm0 8.565a.935.935 0 1 0 0 1.87.935.935 0 0 0 0-1.87zm-8.935.937c0-1.057.183-2.07.519-3.01a.885.885 0 0 0 .132.38c.085.138.185.247.467.422l.133.079 2.354 1.36A2 2 0 0 0 8.802 7.85l-.132-.083-2.354-1.36c-.386-.222-.55-.263-.734-.269a.908.908 0 0 0-.392.074 8.93 8.93 0 0 1 5.205-3.005.895.895 0 0 0-.261.304c-.077.142-.122.284-.132.616L10 4.282V7a2 2 0 0 0 3.995.15L14 7V4.282c0-.446-.046-.607-.134-.77a.908.908 0 0 0-.259-.303 8.93 8.93 0 0 1 5.2 3.004.892.892 0 0 0-.389-.074c-.162.006-.307.037-.6.195l-.134.075-2.354 1.359a2 2 0 0 0 1.862 3.537l.138-.073 2.354-1.359c.386-.223.503-.344.6-.5a.913.913 0 0 0 .12-.3l.013-.079c.335.94.518 1.952.518 3.008a8.915 8.915 0 0 1-.519 3.006.89.89 0 0 0-.132-.38c-.085-.138-.185-.247-.467-.422l-.133-.079-2.354-1.36a2 2 0 0 0-2.132 3.382l.132.083 2.354 1.36c.386.222.55.263.734.269a.908.908 0 0 0 .391-.073 8.937 8.937 0 0 1-5.203 3.003.898.898 0 0 0 .26-.303c.077-.142.122-.284.132-.616l.002-.154V17a2 2 0 0 0-3.995-.15L10 17v2.718c0 .446.046.607.134.77a.908.908 0 0 0 .26.304 8.927 8.927 0 0 1-5.205-3.007.88.88 0 0 0 .393.076c.162-.006.307-.037.6-.195l.134-.075 2.354-1.359a2 2 0 0 0-1.862-3.537l-.138.073-2.354 1.359c-.386.223-.503.344-.6.5a.908.908 0 0 0-.134.382 8.95 8.95 0 0 1-.517-3.007z"/>
    </defs>
    <g fill="none" fill-rule="evenodd">
        <path d="M0 0h24v24H0z"/>
        <mask id="b" fill="#fff">
            <use xlink:href="#a"/>
        </mask>
        <g fill="#000000" mask="url(#b)">
            <path d="M0 0h24v24H0z"/>
        </g>
    </g>
</svg>
