<svg xmlns="http://www.w3.org/2000/svg" xmlns:xlink="http://www.w3.org/1999/xlink" width="24" height="24" viewBox="0 0 24 24">
    <defs>
        <path id="a" d="M12 2C6.476 2 2 6.476 2 12s4.476 10 10 10 10-4.476 10-10S17.524 2 12 2zm0 19.168a9.154 9.154 0 0 1-7.024-3.283c.856-.37 2.99-1.14 4.341-1.534.106-.034.125-.038.125-.514 0-.51-.057-.87-.182-1.135a5.763 5.763 0 0 1-.443-1.52c-.202-.235-.476-.696-.654-1.581-.153-.779-.081-1.063.02-1.327.01-.029.024-.058.029-.086.038-.178-.015-1.13-.15-1.866-.09-.505.025-1.577.722-2.466.437-.563 1.278-1.25 2.788-1.346h.841c1.534.096 2.375.783 2.813 1.346.697.89.812 1.961.716 2.466-.134.736-.187 1.683-.149 1.866.005.028.02.057.03.081.1.265.177.548.018 1.327-.178.885-.452 1.346-.653 1.582a5.819 5.819 0 0 1-.443 1.52c-.158.33-.317.725-.317 1.12 0 .475.02.48.13.514 1.283.38 3.495 1.144 4.47 1.543A9.15 9.15 0 0 1 12 21.168z"/>
    </defs>
    <g fill="none" fill-rule="evenodd">
        <path d="M0 0h24v24H0z"/>
        <mask id="b" fill="#fff">
            <use xlink:href="#a"/>
        </mask>
        <g fill="#32377D" mask="url(#b)">
            <path d="M0 0h24v24H0z"/>
        </g>
    </g>
</svg>
